<svg xmlns="http://www.w3.org/2000/svg" width="354.77" height="342.346" viewBox="0 0 354.77 342.346">
  <g id="Group_105" data-name="Group 105" transform="translate(-39.009 -39.079)">
    <g id="Background_Complete" data-name="Background Complete" transform="translate(42.218 39.079)">
      <g id="Group_1" data-name="Group 1" transform="translate(2.908 11.656)">
        <path id="Path_1" data-name="Path 1" d="M60.681,67.43,71.716,67.2l5.6-.094c1.871-.04,3.752-.031,5.629-.046l.372,0,0,.377.045,9.408,0,.422-.422,0L71.812,77.2c-3.71,0-7.42-.094-11.131-.137l-.231,0,0-.227c.016-1.6.072-3.184.11-4.753Zm0,0,.119,4.753c.038,1.566.094,3.114.11,4.654l-.23-.23c3.711-.043,7.421-.134,11.131-.138l11.132-.053-.42.42.045-9.408.375.375c-1.834-.015-3.664-.007-5.5-.046l-5.531-.094Z" transform="translate(-48.031 -55.19)" fill="#ebebeb"/>
        <path id="Path_2" data-name="Path 2" d="M75.453,53.32l11.034-.234,5.6-.094c1.871-.04,3.752-.032,5.628-.046l.373,0,0,.377.045,9.408,0,.422-.422,0L86.584,63.1c-3.71,0-7.421-.1-11.131-.138l-.232,0,0-.227c.016-1.6.072-3.184.11-4.753Zm0,0,.119,4.753c.038,1.566.094,3.115.11,4.654l-.23-.23c3.71-.043,7.421-.134,11.131-.138l11.131-.052-.42.42.045-9.408.374.375c-1.834-.015-3.663-.007-5.5-.046l-5.531-.094Z" transform="translate(-50.384 -52.943)" fill="#ebebeb"/>
        <path id="Path_3" data-name="Path 3" d="M101.132,197.085l11.034-.235,5.6-.094c1.871-.04,3.752-.031,5.629-.046l.372,0,0,.377.045,9.407,0,.422-.422,0-11.132-.053c-3.71,0-7.42-.094-11.131-.138l-.231,0,0-.227c.016-1.6.072-3.183.11-4.753Zm0,0,.119,4.753c.038,1.566.094,3.115.11,4.654l-.23-.229c3.711-.044,7.421-.134,11.131-.138l11.132-.053-.42.42.045-9.407.375.374c-1.834-.014-3.664-.007-5.5-.046l-5.531-.094Z" transform="translate(-54.474 -75.841)" fill="#ebebeb"/>
        <path id="Path_4" data-name="Path 4" d="M115.9,182.975l11.034-.235,5.6-.094c1.871-.04,3.752-.031,5.628-.046l.373,0,0,.378.045,9.407,0,.422-.422,0-11.131-.053c-3.71,0-7.421-.094-11.131-.137l-.232,0,0-.227c.016-1.6.072-3.183.11-4.753Zm0,0,.119,4.753c.038,1.566.094,3.115.11,4.654l-.23-.229c3.71-.043,7.421-.134,11.131-.138l11.131-.053-.42.419.045-9.407.374.375c-1.834-.015-3.664-.007-5.5-.046l-5.532-.1Z" transform="translate(-56.826 -73.594)" fill="#ebebeb"/>
        <path id="Path_5" data-name="Path 5" d="M45.909,53.32l11.034-.234,5.6-.094c1.871-.04,3.752-.032,5.629-.046l.372,0,0,.377.045,9.408,0,.422-.422,0L57.041,63.1c-3.711,0-7.421-.1-11.131-.138l-.232,0,0-.227c.015-1.6.071-3.184.109-4.753Zm0,0,.119,4.753c.039,1.566.1,3.115.11,4.654l-.229-.23c3.71-.043,7.42-.134,11.131-.138l11.131-.052-.42.42L67.8,53.32l.375.375c-1.834-.015-3.664-.007-5.5-.046l-5.531-.094Z" transform="translate(-45.678 -52.943)" fill="#ebebeb"/>
        <path id="Path_6" data-name="Path 6" d="M434.977,294.553l-11.034.234-5.6.1c-1.871.04-3.752.031-5.629.046l-.372,0,0-.378-.045-9.408,0-.422.422,0,11.131.052c3.711,0,7.421.1,11.132.138l.231,0,0,.227c-.016,1.6-.072,3.184-.11,4.753Zm0,0-.119-4.753c-.038-1.566-.094-3.115-.11-4.654l.229.229c-3.711.043-7.421.134-11.132.138l-11.131.052.42-.419-.045,9.408-.375-.375c1.834.015,3.664.007,5.5.046l5.531.094Z" transform="translate(-104.071 -89.86)" fill="#ebebeb"/>
        <path id="Path_7" data-name="Path 7" d="M449.748,308.663l-11.034.234-5.6.094c-1.871.039-3.752.032-5.629.046l-.373,0,0-.378-.045-9.407,0-.422.422,0,11.131.053c3.711,0,7.421.1,11.131.138l.232,0,0,.227c-.015,1.6-.071,3.183-.11,4.753Zm0,0-.119-4.753c-.038-1.566-.094-3.115-.11-4.654l.229.23c-3.71.043-7.42.133-11.131.137l-11.131.053.42-.42-.045,9.407-.375-.374c1.834.014,3.664.007,5.5.046l5.531.094Z" transform="translate(-106.424 -92.108)" fill="#ebebeb"/>
        <path id="Path_8" data-name="Path 8" d="M83.134,308.663,72.1,308.9l-5.6.094c-1.871.039-3.752.032-5.628.046l-.373,0,0-.378-.045-9.407,0-.422.422,0L72,298.888c3.71,0,7.421.1,11.131.138l.232,0,0,.227c-.016,1.6-.072,3.183-.11,4.753Zm0,0-.119-4.753c-.038-1.566-.094-3.115-.11-4.654l.23.23c-3.71.043-7.421.133-11.131.137l-11.131.053.42-.42-.045,9.407-.374-.374c1.834.014,3.663.007,5.5.046l5.531.094Z" transform="translate(-48.031 -92.108)" fill="#ebebeb"/>
        <path id="Path_9" data-name="Path 9" d="M412.637,53.32l11.034-.234,5.6-.094c1.871-.04,3.752-.032,5.629-.046l.372,0,0,.377.045,9.408,0,.422-.421,0L423.768,63.1c-3.71,0-7.42-.1-11.131-.138l-.232,0,0-.227c.016-1.6.072-3.184.11-4.753Zm0,0,.119,4.753c.038,1.566.094,3.115.11,4.654l-.23-.23c3.711-.043,7.421-.134,11.131-.138l11.132-.052-.42.42.045-9.408.375.375c-1.834-.015-3.664-.007-5.5-.046l-5.531-.094Z" transform="translate(-104.089 -52.943)" fill="#ebebeb"/>
      </g>
      <g id="Group_7" data-name="Group 7" transform="translate(223.294)">
        <path id="Path_10" data-name="Path 10" d="M429.464,196.165H317.528V39.851H429.464Zm-108.616-3.322H426.143V43.172H320.849Z" transform="translate(-309.363 -39.202)" fill="#ebebeb"/>
        <rect id="Rectangle_1" data-name="Rectangle 1" width="3.321" height="150.465" transform="translate(62.473 4.838)" fill="#ebebeb"/>
        <g id="Group_6" data-name="Group 6">
          <g id="Group_2" data-name="Group 2" transform="translate(5.154 7.363)">
            <rect id="Rectangle_2" data-name="Rectangle 2" width="117.959" height="4.625" fill="#ebebeb"/>
            <rect id="Rectangle_3" data-name="Rectangle 3" width="117.959" height="4.625" transform="translate(0 5.203)" fill="#ebebeb"/>
            <rect id="Rectangle_4" data-name="Rectangle 4" width="117.959" height="4.625" transform="translate(0 10.406)" fill="#ebebeb"/>
            <rect id="Rectangle_5" data-name="Rectangle 5" width="117.959" height="4.625" transform="translate(0 15.609)" fill="#ebebeb"/>
            <rect id="Rectangle_6" data-name="Rectangle 6" width="117.959" height="4.625" transform="translate(0 20.812)" fill="#ebebeb"/>
            <rect id="Rectangle_7" data-name="Rectangle 7" width="117.959" height="4.625" transform="translate(0 26.015)" fill="#ebebeb"/>
            <rect id="Rectangle_8" data-name="Rectangle 8" width="117.959" height="4.625" transform="translate(0 31.218)" fill="#ebebeb"/>
            <rect id="Rectangle_9" data-name="Rectangle 9" width="117.959" height="4.625" transform="translate(0 36.422)" fill="#ebebeb"/>
            <rect id="Rectangle_10" data-name="Rectangle 10" width="117.959" height="4.625" transform="translate(0 41.625)" fill="#ebebeb"/>
          </g>
          <g id="Group_5" data-name="Group 5" transform="translate(111.361 6.425)">
            <g id="Group_3" data-name="Group 3">
              <rect id="Rectangle_11" data-name="Rectangle 11" width="0.83" height="89.996" transform="translate(1.057)" fill="#263238"/>
              <path id="Path_11" data-name="Path 11" d="M443.222,157.566h-2.948l.739-4.235h1.47Z" transform="translate(-440.274 -63.702)" fill="#263238"/>
            </g>
            <g id="Group_4" data-name="Group 4" transform="translate(2.991)">
              <rect id="Rectangle_12" data-name="Rectangle 12" width="0.83" height="112.701" transform="translate(1.059)" fill="#263238"/>
              <path id="Path_12" data-name="Path 12" d="M446.779,183.675h-2.948l.739-4.235h1.47Z" transform="translate(-443.831 -67.86)" fill="#263238"/>
            </g>
          </g>
          <rect id="Rectangle_13" data-name="Rectangle 13" width="128.267" height="9.676" fill="#dbdbdb"/>
        </g>
      </g>
      <g id="Group_16" data-name="Group 16" transform="translate(0 13.989)">
        <g id="Group_10" data-name="Group 10" transform="translate(0 41.499)">
          <rect id="Rectangle_14" data-name="Rectangle 14" width="94.01" height="5.581" fill="#ebebeb"/>
          <g id="Group_8" data-name="Group 8" transform="translate(7.136 5.584)">
            <rect id="Rectangle_15" data-name="Rectangle 15" width="5.584" height="18.462" fill="#ebebeb"/>
            <rect id="Rectangle_16" data-name="Rectangle 16" width="5.584" height="5.706" fill="#dbdbdb"/>
          </g>
          <g id="Group_9" data-name="Group 9" transform="translate(81.293 5.584)">
            <rect id="Rectangle_17" data-name="Rectangle 17" width="5.584" height="18.462" fill="#ebebeb"/>
            <rect id="Rectangle_18" data-name="Rectangle 18" width="5.584" height="5.706" fill="#dbdbdb"/>
          </g>
        </g>
        <g id="Group_15" data-name="Group 15" transform="translate(4.891)">
          <rect id="Rectangle_19" data-name="Rectangle 19" width="35.576" height="8.959" transform="translate(16.304 5.924) rotate(90)" fill="#c7c7c7"/>
          <rect id="Rectangle_20" data-name="Rectangle 20" width="3.909" height="8.959" transform="translate(16.304 4.022) rotate(90)" fill="#dbdbdb"/>
          <rect id="Rectangle_21" data-name="Rectangle 21" width="1.451" height="8.959" transform="translate(16.304 12.94) rotate(90)" fill="#dbdbdb"/>
          <rect id="Rectangle_22" data-name="Rectangle 22" width="3.909" height="10.075" transform="translate(17.42 32.924) rotate(90)" fill="#dbdbdb"/>
          <g id="Group_11" data-name="Group 11" transform="translate(16.304)">
            <rect id="Rectangle_23" data-name="Rectangle 23" width="41.5" height="6.261" transform="translate(6.261 0) rotate(90)" fill="#dbdbdb"/>
            <rect id="Rectangle_24" data-name="Rectangle 24" width="15.961" height="3.757" transform="translate(4.982 3.902) rotate(90)" fill="#ebebeb"/>
          </g>
          <g id="Group_12" data-name="Group 12" transform="translate(33.193 7.881)">
            <rect id="Rectangle_25" data-name="Rectangle 25" width="41.5" height="6.261" transform="matrix(0.711, 0.703, -0.703, 0.711, 4.402, 0)" fill="#c7c7c7"/>
            <rect id="Rectangle_26" data-name="Rectangle 26" width="15.961" height="3.757" transform="translate(14.773 11.983) rotate(44.666)" fill="#dbdbdb"/>
          </g>
          <g id="Group_13" data-name="Group 13" transform="translate(22.561 9.984)">
            <rect id="Rectangle_27" data-name="Rectangle 27" width="31.522" height="10.633" transform="translate(10.633) rotate(90)" fill="#a6a6a6"/>
            <rect id="Rectangle_28" data-name="Rectangle 28" width="2.938" height="10.633" transform="translate(10.633 25.243) rotate(90)" fill="#c7c7c7"/>
            <rect id="Rectangle_29" data-name="Rectangle 29" width="1.139" height="10.633" transform="translate(10.633 22.175) rotate(90)" fill="#c7c7c7"/>
          </g>
          <g id="Group_14" data-name="Group 14" transform="translate(0 11.882)">
            <rect id="Rectangle_30" data-name="Rectangle 30" width="29.624" height="7.345" transform="translate(7.345) rotate(90)" fill="#a6a6a6"/>
            <rect id="Rectangle_31" data-name="Rectangle 31" width="2.761" height="7.345" transform="translate(7.345 23.723) rotate(90)" fill="#c7c7c7"/>
            <rect id="Rectangle_32" data-name="Rectangle 32" width="2.761" height="7.345" transform="translate(7.345 6.106) rotate(90)" fill="#c7c7c7"/>
            <rect id="Rectangle_33" data-name="Rectangle 33" width="1.07" height="7.345" transform="translate(7.345 10.759) rotate(90)" fill="#c7c7c7"/>
          </g>
        </g>
      </g>
    </g>
    <g id="Shadow" transform="translate(47.654 360.076)">
      <g id="Group_17" data-name="Group 17">
        <path id="Path_14" data-name="Path 14" d="M387.186,432.564c0,6.448-75.776,11.674-169.251,11.674S48.684,439.012,48.684,432.564,124.46,420.89,217.935,420.89,387.186,426.117,387.186,432.564Z" transform="translate(-56.684 -422.89)" fill="#ebebeb"/>
      </g>
    </g>
    <g id="Plant" transform="translate(39.009 243.854)">
      <g id="Group_29" data-name="Group 29" transform="translate(0 0)">
        <g id="Group_26" data-name="Group 26">
          <g id="Group_19" data-name="Group 19" transform="translate(38.845 40.425)">
            <path id="Path_15" data-name="Path 15" d="M360.283,320.98s13.949-3.162,21.595-10.206,11.916-19.665,11.916-19.665a120.147,120.147,0,0,0-15.644,4.109,26.407,26.407,0,0,0-4.732,6.692,32.2,32.2,0,0,1-.037-4.785,21.258,21.258,0,0,0-4.967,3.016C362.074,305.689,360.283,320.98,360.283,320.98Z" transform="translate(-352.014 -291.108)" fill="#ffc727"/>
            <g id="Group_18" data-name="Group 18" transform="translate(0 2.018)">
              <path id="Path_16" data-name="Path 16" d="M396.839,297.624c1.9-1.316,3.838-2.584,5.73-3.913a.109.109,0,0,0-.114-.186c-3.595,2.147-7.138,4.442-10.566,6.845-1.2.837-2.369,1.71-3.529,2.6l.243-.414c.419-.7.86-1.388,1.3-2.075a29.7,29.7,0,0,1,2.962-3.952c.041-.045-.029-.112-.069-.066-1.085,1.253-2.17,2.492-3.162,3.821-.472.631-.907,1.285-1.325,1.955q-.325.52-.627,1.053c-.067.119-.14.239-.209.36-1.8,1.417-3.56,2.893-5.236,4.455q-1.551,1.445-3,2.994c.539-1.688,1.011-3.395,1.636-5.058.021-.056-.071-.081-.092-.023-.608,1.744-1.272,3.495-1.742,5.286-1.069,1.154-2.091,2.351-3.053,3.595.016-.076.032-.152.05-.227.158-.657.323-1.313.5-1.966.34-1.263.71-2.516,1.135-3.752a21.8,21.8,0,0,1,3.748-7.077c.039-.047-.029-.113-.069-.066a27.212,27.212,0,0,0-5.343,11.155c-.149.594-.289,1.191-.425,1.788-.071.316-.155.639-.208.964-.422.57-.836,1.145-1.232,1.735a60.391,60.391,0,0,0-5.9,11.574,133.6,133.6,0,0,0-4.471,13.937c-.025.092.114.124.143.035,2.728-8.163,5.514-16.441,10.185-23.737.986-1.541,2.053-3.025,3.185-4.457a26.328,26.328,0,0,0,6.784-1.352,30,30,0,0,0,6.8-3.283,41.634,41.634,0,0,0,3.485-2.632.047.047,0,1,0-.06-.073,27.828,27.828,0,0,1-6.394,3.868,34.859,34.859,0,0,1-7.037,2.361c-1.03.224-2.074.39-3.119.532a59.1,59.1,0,0,1,4.114-4.558c.47-.47.958-.92,1.442-1.374a32.966,32.966,0,0,1,5.157-2.953c2.285-1.1,4.535-2.275,6.8-3.426,1.276-.648,2.544-1.313,3.83-1.941.055-.027.005-.108-.05-.081-2.293,1.107-4.621,2.142-6.935,3.2-2.178,1-4.382,2-6.472,3.173-.09.051-.174.106-.263.157,1.889-1.644,3.845-3.212,5.846-4.724C393.058,300.31,394.934,298.943,396.839,297.624Z" transform="translate(-363.769 -293.509)" fill="#263238"/>
              <path id="Path_17" data-name="Path 17" d="M378.3,306.958c-1.135.5-2.29.937-3.413,1.462-1.155.54-2.249,1.172-3.345,1.821-.048.029,0,.1.045.073,1.112-.532,2.239-1.03,3.34-1.585,1.128-.568,2.244-1.174,3.4-1.681C378.378,307.025,378.351,306.933,378.3,306.958Z" transform="translate(-346.018 -295.65)" fill="#263238"/>
            </g>
          </g>
          <g id="Group_21" data-name="Group 21" transform="translate(1.8)">
            <path id="Path_18" data-name="Path 18" d="M410.979,243.025a19.931,19.931,0,0,1,4.168,11.585c.046,1.251-.151,2.994-.3,5.044a33.1,33.1,0,0,1,9.1,7.779,16.5,16.5,0,0,0-9.2-2.2,27.684,27.684,0,0,0,.533,4.168,15.643,15.643,0,0,1,5.916,1.17,13.241,13.241,0,0,0-5.334,1.06c2.486,7.91,9.878,16.038,30.287,19.489a42.826,42.826,0,0,0-3.615-28.721C436.426,250.37,410.979,243.025,410.979,243.025Z" transform="translate(-410.979 -243.025)" fill="#ffc727"/>
            <g id="Group_20" data-name="Group 20" transform="translate(5.495 5.442)">
              <path id="Path_19" data-name="Path 19" d="M439.659,326q-.532-5.07-1.322-10.108a201.846,201.846,0,0,0-4.115-19.978,80.218,80.218,0,0,0-2.946-9.1,13.8,13.8,0,0,0,.075-1.634q.021-.98.01-1.961-.023-1.961-.187-3.915a46.754,46.754,0,0,0-1.254-7.652c-.372-1.454-.806-2.885-1.233-4.324a.047.047,0,0,0-.091.027,56.231,56.231,0,0,1,1.507,7.638,71.707,71.707,0,0,1,.685,7.66q.038,1.052.04,2.1c0,.3-.013.6-.024.9a65.642,65.642,0,0,0-3.439-7.118,86.529,86.529,0,0,0-6.986-10.451,4.418,4.418,0,0,0-.167-1.142q-.144-.684-.3-1.365-.314-1.4-.7-2.782c-.508-1.849-1.177-3.637-1.755-5.462a.048.048,0,0,0-.091.028c.539,1.808.9,3.68,1.311,5.52.2.91.4,1.821.6,2.732q.15.682.291,1.368c.007.032.013.068.018.1q-1.237-1.561-2.527-3.078c-3.9-4.569-8.17-8.786-12.471-12.972-.529-.515-1.07-1.016-1.607-1.523-.045-.043-.108.024-.066.068,4.11,4.288,8.158,8.625,11.99,13.165q1.366,1.618,2.688,3.276c-.463-.314-.932-.62-1.392-.922-1.187-.778-2.39-1.533-3.629-2.227s-2.487-1.372-3.759-2c-1.309-.648-2.707-1.177-3.971-1.911-.054-.032-.1.061-.045.083a29.533,29.533,0,0,1,3.724,2.063c1.243.736,2.482,1.478,3.7,2.252,1.2.761,2.405,1.511,3.6,2.285.994.645,1.971,1.349,3,1.945a96.344,96.344,0,0,1,6.539,9.517,70.12,70.12,0,0,1,3.38,6.41c-.245-.107-.491-.21-.732-.318l-1.868-.83c-1.2-.533-2.407-1.053-3.611-1.576-2.288-1-4.614-1.91-6.859-3a30.942,30.942,0,0,1-3.664-2.035c-.051-.034-.1.049-.046.083a81.484,81.484,0,0,0,13.508,6.966l2.009.889c.552.244,1.1.517,1.672.731a71.452,71.452,0,0,1,3.452,9.458,192.324,192.324,0,0,1,4.44,19.744c1.171,6.666,1.961,13.378,2.575,20.115.077.842.151,1.681.247,2.521a.266.266,0,0,0,.531-.013C440.366,332.827,440.015,329.4,439.659,326Z" transform="translate(-402.911 -249.498)" fill="#263238"/>
              <path id="Path_20" data-name="Path 20" d="M419.251,272.283c-.374-2.075-.926-4.1-1.486-6.134-.016-.06-.106-.032-.091.027.516,1.994.885,4.026,1.26,6.051q.572,3.092,1.01,6.211c.005.036.06.036.057,0A54.645,54.645,0,0,0,419.251,272.283Z" transform="translate(-394.921 -252.144)" fill="#263238"/>
              <path id="Path_21" data-name="Path 21" d="M438.077,279.255a36.688,36.688,0,0,0-4.438-2.5c-.744-.385-1.5-.75-2.251-1.115-.776-.377-1.584-.691-2.354-1.078-.055-.028-.1.055-.046.083.747.374,1.454.827,2.188,1.227.756.412,1.507.832,2.267,1.239,1.492.8,2.959,1.69,4.526,2.34A.114.114,0,0,0,438.077,279.255Z" transform="translate(-422.542 -253.489)" fill="#263238"/>
            </g>
          </g>
          <g id="Group_23" data-name="Group 23" transform="translate(41.855 10.699)">
            <path id="Path_22" data-name="Path 22" d="M368.358,291.2s12.908-3.083,18.835-11.742c5.66-8.269,7.488-22.365,7.634-23.605-.232,1.137-2.9,13.457-11.684,19.2C376.415,279.447,369.914,283.062,368.358,291.2Z" transform="translate(-362.845 -255.767)" fill="#263238" opacity="0.1"/>
            <path id="Path_23" data-name="Path 23" d="M390.337,271.369a16.492,16.492,0,0,0-4.758,7.839c-.007.026.032.04.04.013a19.27,19.27,0,0,1,4.781-7.781C390.445,271.4,390.382,271.327,390.337,271.369Z" transform="translate(-372.911 -258.236)" fill="#263238"/>
            <g id="Group_22" data-name="Group 22">
              <path id="Path_24" data-name="Path 24" d="M368.586,291.185s12.908-3.083,18.835-11.742c5.66-8.269,7.488-22.365,7.634-23.605a.762.762,0,0,0,.015-.087s-6.189,8.8-12.7,11.044S366.72,276.8,368.586,291.185Z" transform="translate(-363.073 -255.751)" fill="#ffc727"/>
              <path id="Path_25" data-name="Path 25" d="M400.669,261.52a52.638,52.638,0,0,1-3.99,6.823,27.368,27.368,0,0,1-5.31,5.464c-1.753,1.392-3.607,2.654-5.381,4.02.013-.021.026-.044.039-.064.333-.5.689-.975,1.057-1.445.739-.944,1.548-1.835,2.36-2.717,1.6-1.739,3.241-3.447,4.679-5.331a19.646,19.646,0,0,0,2.07-3.334c.027-.054-.063-.084-.09-.03-2.093,4.363-6.274,7.154-9.258,10.839a18.9,18.9,0,0,0-1.193,1.631,6.752,6.752,0,0,0-.743,1.312,27.128,27.128,0,0,0-4.4,4.452,17.788,17.788,0,0,1,.518-2.506,12.628,12.628,0,0,1,1.368-3.269c.032-.052-.048-.1-.079-.052a15.435,15.435,0,0,0-1.506,3.248,11.358,11.358,0,0,0-.469,2.788l-.007.008a25.38,25.38,0,0,0-1.745,2.711c.054-.276.106-.552.161-.826.256-1.286.54-2.569.874-3.838a22.977,22.977,0,0,1,3.1-7.271.048.048,0,0,0-.079-.053,27.662,27.662,0,0,0-3.44,7.115c-.411,1.266-.741,2.554-1.031,3.854-.141.635-.269,1.272-.391,1.912-.063.33-.134.668-.188,1.008a46.45,46.45,0,0,0-2.977,8.75,128.615,128.615,0,0,0-2.753,16.32,135.793,135.793,0,0,0-.89,17.33c.012.726.055,1.45.1,2.175.011.187.29.214.3.018.126-2.864.2-5.73.37-8.592s.419-5.722.726-8.575a152.262,152.262,0,0,1,2.69-16.688c1.046-4.72,2.4-9.469,4.982-13.6a25.582,25.582,0,0,1,4.657-5.538c1.81-1.625,3.788-3.048,5.7-4.553a31.264,31.264,0,0,0,5.227-5.025,41.07,41.07,0,0,0,4.105-6.663c.3-.585.617-1.166.925-1.749C400.776,261.518,400.7,261.466,400.669,261.52Z" transform="translate(-370.96 -256.666)" fill="#263238"/>
              <path id="Path_26" data-name="Path 26" d="M376.48,263.77A43.551,43.551,0,0,1,373.6,268.8a.036.036,0,0,0,.06.04,35.1,35.1,0,0,0,2.906-5.037C376.6,263.745,376.506,263.715,376.48,263.77Z" transform="translate(-348.999 -257.024)" fill="#263238"/>
            </g>
          </g>
          <g id="Group_25" data-name="Group 25" transform="translate(0 40.425)">
            <path id="Path_27" data-name="Path 27" d="M414.475,291.108s-.2,18.344,10.764,23.639,16.848.884,24.3,2.658a.023.023,0,0,1-.013-.009c-.288-.437-5.608-8.083-14.068-10.188C426.757,305.038,417.114,298.752,414.475,291.108Z" transform="translate(-414.475 -291.108)" fill="#ffc727"/>
            <path id="Path_28" data-name="Path 28" d="M414.475,291.108s-.2,18.344,10.764,23.639,16.848.884,24.3,2.658a.023.023,0,0,1-.013-.009,41.469,41.469,0,0,0-12.469-3.678C430.141,312.885,416.929,308.378,414.475,291.108Z" transform="translate(-414.475 -291.108)" opacity="0.1"/>
            <g id="Group_24" data-name="Group 24" transform="translate(4.831 11.217)">
              <path id="Path_29" data-name="Path 29" d="M434.437,319.856a18.455,18.455,0,0,0-4.362-2.953c-.235-.113-.478-.2-.716-.306-.116-.146-.239-.286-.368-.421q-.493-.515-1.032-.98a15.332,15.332,0,0,0-2.206-1.592c-1.817-1.068-3.808-1.815-5.666-2.808-.055-.029-.1.055-.046.083.918.478,1.808,1,2.7,1.525.868.507,1.758.99,2.6,1.537a18.607,18.607,0,0,1,2.171,1.627c.193.169.378.352.563.539a29.3,29.3,0,0,0-3.706-.984c-2.008-.406-4.039-.694-6.042-1.121a28.09,28.09,0,0,1-2.911-.785c-.91-.732-1.818-1.461-2.68-2.256a22,22,0,0,1-2.835-3.143c-.036-.049-.119,0-.081.05a33.563,33.563,0,0,0,4.5,4.961c-.472-.18-.941-.372-1.4-.581a22.639,22.639,0,0,1-9.346-7.776c-.034-.05-.115,0-.081.05a25.641,25.641,0,0,0,7.561,7.258,22.7,22.7,0,0,0,4.778,2.262,44.266,44.266,0,0,0,5.936,1.4,41.984,41.984,0,0,1,5.813,1.383,17.536,17.536,0,0,1,4.875,2.564,22.8,22.8,0,0,1,6.572,8.15,40.906,40.906,0,0,1,3.619,13.411c.024.2.327.2.314-.008C442.441,333.235,440.381,325.211,434.437,319.856Z" transform="translate(-403.482 -304.45)" fill="#263238"/>
              <path id="Path_30" data-name="Path 30" d="M433.774,314.85a6.315,6.315,0,0,0-2.255-2.044,8.281,8.281,0,0,1-2.682-2.219c-.036-.05-.118,0-.081.05a9.083,9.083,0,0,0,2.368,2.121,8.261,8.261,0,0,1,2.58,2.134C433.735,314.935,433.8,314.894,433.774,314.85Z" transform="translate(-415.546 -305.424)" fill="#263238"/>
            </g>
          </g>
        </g>
        <g id="Group_28" data-name="Group 28" transform="translate(27.265 76.376)">
          <g id="Group_27" data-name="Group 27" transform="translate(1.613 4.21)">
            <path id="Path_31" data-name="Path 31" d="M389.64,338.878l.5,10.087,1.53,30.818h23.008l1.53-30.818.5-10.087Z" transform="translate(-389.64 -338.878)" fill="#37474f"/>
            <path id="Path_32" data-name="Path 32" d="M389.64,338.878l.5,10.087h26.068l.5-10.087Z" transform="translate(-389.64 -338.878)" fill="#263238"/>
          </g>
          <rect id="Rectangle_34" data-name="Rectangle 34" width="30.292" height="9.623" fill="#37474f"/>
        </g>
      </g>
    </g>
    <g id="Floor" transform="translate(42.218 332.032)">
      <line id="Line_1" data-name="Line 1" x2="349.373" fill="none" stroke="#263238" stroke-linecap="round" stroke-linejoin="round" stroke-width="1"/>
    </g>
    <g id="Device" transform="translate(111.633 50.651)">
      <g id="Group_36" data-name="Group 36">
        <rect id="Rectangle_35" data-name="Rectangle 35" width="314.694" height="210.544" rx="12.893" transform="translate(210.544 0) rotate(90)" fill="#263238"/>
        <line id="Line_2" data-name="Line 2" x2="0.487" transform="translate(201.418 41.421)" fill="none"/>
        <rect id="Rectangle_36" data-name="Rectangle 36" width="192.533" height="270.834" transform="translate(9.127 22.026)" fill="#fff"/>
        <g id="Group_30" data-name="Group 30" transform="translate(82.361 11.145)">
          <rect id="Rectangle_37" data-name="Rectangle 37" width="3.273" height="45.82" rx="1.25" transform="translate(45.82 0) rotate(90)" fill="#37474f"/>
          <circle id="Ellipse_1" data-name="Ellipse 1" cx="5.926" cy="5.926" r="5.926" transform="translate(16.984 286.429)" fill="#37474f"/>
        </g>
        <g id="Group_34" data-name="Group 34" transform="translate(38.793 242.205)">
          <rect id="Rectangle_38" data-name="Rectangle 38" width="133.2" height="1.876" fill="#ebebeb"/>
          <rect id="Rectangle_39" data-name="Rectangle 39" width="133.2" height="1.876" transform="translate(0 5.814)" fill="#ebebeb"/>
        </g>
        <g id="Group_35" data-name="Group 35" transform="translate(38.793 59.22)">
          <rect id="Rectangle_40" data-name="Rectangle 40" width="133.2" height="1.876" fill="#ebebeb"/>
          <rect id="Rectangle_41" data-name="Rectangle 41" width="133.2" height="1.876" transform="translate(0 5.814)" fill="#ebebeb"/>
        </g>
      </g>
    </g>
    <g id="Envelope" transform="translate(149.393 133.381)">
      <g id="Group_48" data-name="Group 48">
        <g id="Group_47" data-name="Group 47" transform="translate(0 95)">
          <g id="Group_39" data-name="Group 39" transform="translate(22.433)">
            <line id="Line_3" data-name="Line 3" x1="0.014" y1="13.916" fill="none" stroke="#263238" stroke-width="1"/>
          </g>
          <g id="Group_40" data-name="Group 40" transform="translate(-7.315 6.294)">
            <line id="Line_4" data-name="Line 4" x1="9.85" y1="9.83" fill="none" stroke="#263238" stroke-width="1"/>
          </g>
          <g id="Group_41" data-name="Group 41" transform="translate(-14 21.867)">
            <line id="Line_5" data-name="Line 5" x1="13.916" y2="0.014" fill="none" stroke="#263238" stroke-width="1"/>
          </g>
          <g id="Group_42" data-name="Group 42" transform="translate(-7.706 27.78)">
            <line id="Line_6" data-name="Line 6" x1="9.83" y2="9.85" fill="none" stroke="#263238" stroke-width="1"/>
          </g>
          <g id="Group_43" data-name="Group 43" transform="translate(121.947)">
            <line id="Line_7" data-name="Line 7" y1="13.916" x2="0.014" fill="none" stroke="#263238" stroke-width="1"/>
          </g>
          <g id="Group_44" data-name="Group 44" transform="translate(127.86 6.294)">
            <line id="Line_8" data-name="Line 8" y1="9.83" x2="9.85" fill="none" stroke="#263238" stroke-width="1"/>
          </g>
          <g id="Group_45" data-name="Group 45" transform="translate(130.479 21.867)">
            <line id="Line_9" data-name="Line 9" x2="13.916" y2="0.014" fill="none" stroke="#263238" stroke-width="1"/>
          </g>
          <g id="Group_46" data-name="Group 46" transform="translate(128.27 27.78)">
            <line id="Line_10" data-name="Line 10" x2="9.83" y2="9.85" fill="none" stroke="#263238" stroke-width="1"/>
          </g>
        </g>
      </g>
    </g>
    <g id="Speech_Bubble" data-name="Speech Bubble" transform="translate(163.633 189.336)">
      <g id="Group_104" data-name="Group 104" transform="translate(4 0)">
        <g id="Group_103" data-name="Group 103">
          <path id="Path_144" data-name="Path 144" d="M119.455,127.181a40.629,40.629,0,0,0,67.9,25.706l20.334,2.984L197.516,138.3a40.644,40.644,0,1,0-78.062-11.114Z" transform="translate(-119.227 -81.947)" fill="#fff"/>
          <path id="Path_145" data-name="Path 145" d="M118.726,127.348a40.929,40.929,0,0,0,8.2,20.6,45.352,45.352,0,0,0,3.685,4.24,45.869,45.869,0,0,0,4.288,3.632,40.06,40.06,0,0,0,9.805,5.459,40.555,40.555,0,0,0,10.942,2.608,40.082,40.082,0,0,0,5.646.108,35.743,35.743,0,0,0,5.625-.585,41.011,41.011,0,0,0,20.106-9.928l-.48.148,20.313,3.118,1.473.228-.746-1.3L197.47,138.065l.047.7a41.084,41.084,0,0,0-2.5-36.221,41.6,41.6,0,0,0-12.727-13.555,41.34,41.34,0,0,0-35.723-4.808,41.508,41.508,0,0,0-15.673,9.609A40.871,40.871,0,0,0,118.726,127.348Zm0,0a40.2,40.2,0,0,1,46.089-43.981A39.931,39.931,0,0,1,181.6,90a41.862,41.862,0,0,1,12.161,13.263,40.082,40.082,0,0,1,5.158,17.195,40.587,40.587,0,0,1-2.86,17.705l-.146.365.193.331L206.336,156.4l.727-1.071-20.35-2.851-.28-.039-.2.187a40.035,40.035,0,0,1-19.463,10.024,34.8,34.8,0,0,1-5.513.671,39.167,39.167,0,0,1-5.562-.009,40,40,0,0,1-10.854-2.389,37.85,37.85,0,0,1-9.8-5.283,36.622,36.622,0,0,1-7.99-7.78A40.837,40.837,0,0,1,118.726,127.348Z" transform="translate(-118.499 -82.114)" fill="#263238"/>
        </g>
        <path id="Path_146" data-name="Path 146" d="M150.336,137.886l-17.359-17.572,5.832-5.761,10.14,10.263L170.016,91.79l6.913,4.408Z" transform="translate(-114.805 -73.7)" fill="#005380"/>
      </g>
    </g>
  </g>
</svg>
