<svg xmlns="http://www.w3.org/2000/svg" width="275.006" height="230.845" viewBox="0 0 275.006 230.845">
  <g id="Group_54" data-name="Group 54" transform="translate(0 -54.953)">
    <g id="Background_Complete" data-name="Background Complete" transform="translate(0 54.953)">
      <g id="Group_1" data-name="Group 1">
        <rect id="Rectangle_1" data-name="Rectangle 1" width="271.769" height="0.155" transform="translate(0 202.865)" fill="#ebebeb"/>
        <rect id="Rectangle_2" data-name="Rectangle 2" width="20.52" height="0.155" transform="translate(223.21 212.837)" fill="#ebebeb"/>
        <rect id="Rectangle_3" data-name="Rectangle 3" width="5.386" height="0.155" transform="translate(199.817 214.518)" fill="#ebebeb"/>
        <rect id="Rectangle_4" data-name="Rectangle 4" width="11.89" height="0.155" transform="translate(245.7 207.084)" fill="#ebebeb"/>
        <rect id="Rectangle_5" data-name="Rectangle 5" width="26.76" height="0.155" transform="translate(32.5 208.124)" fill="#ebebeb"/>
        <rect id="Rectangle_6" data-name="Rectangle 6" width="3.924" height="0.155" transform="translate(64.776 208.124)" fill="#ebebeb"/>
        <rect id="Rectangle_7" data-name="Rectangle 7" width="58.036" height="0.155" transform="translate(81.451 210.74)" fill="#ebebeb"/>
        <path id="Path_1" data-name="Path 1" d="M161.375,230.187H41.743a3.541,3.541,0,0,1-3.536-3.536V58.489a3.54,3.54,0,0,1,3.536-3.536H161.375a3.54,3.54,0,0,1,3.536,3.536V226.651A3.54,3.54,0,0,1,161.375,230.187ZM41.743,55.108a3.385,3.385,0,0,0-3.381,3.381V226.651a3.385,3.385,0,0,0,3.381,3.381H161.375a3.385,3.385,0,0,0,3.381-3.381V58.489a3.385,3.385,0,0,0-3.381-3.381Z" transform="translate(-14.536 -54.953)" fill="#ebebeb"/>
        <path id="Path_2" data-name="Path 2" d="M362.207,230.187H257.6a3.34,3.34,0,0,1-3.092-3.536V58.489a3.34,3.34,0,0,1,3.092-3.536h104.61a3.34,3.34,0,0,1,3.093,3.536V226.651A3.341,3.341,0,0,1,362.207,230.187ZM257.6,55.108a3.194,3.194,0,0,0-2.956,3.381V226.651a3.194,3.194,0,0,0,2.956,3.381h104.61a3.194,3.194,0,0,0,2.957-3.381V58.489a3.194,3.194,0,0,0-2.957-3.381Z" transform="translate(-96.83 -54.953)" fill="#ebebeb"/>
      </g>
      <g id="Group_14" data-name="Group 14" transform="translate(46.998 43.219)">
        <g id="Group_6" data-name="Group 6" transform="translate(0 30.459)">
          <rect id="Rectangle_8" data-name="Rectangle 8" width="87.965" height="128.969" transform="translate(15.176)" fill="#f0f0f0"/>
          <g id="Group_2" data-name="Group 2" transform="translate(18.285 4.06)">
            <rect id="Rectangle_9" data-name="Rectangle 9" width="81.746" height="23.819" fill="#e0e0e0"/>
            <rect id="Rectangle_10" data-name="Rectangle 10" width="4.644" height="19.963" transform="translate(0 3.856)" fill="#ebebeb"/>
            <rect id="Rectangle_11" data-name="Rectangle 11" width="4.644" height="19.963" transform="translate(22.454 3.856)" fill="#ebebeb"/>
            <rect id="Rectangle_12" data-name="Rectangle 12" width="4.644" height="19.963" transform="translate(48.013 4.146) rotate(-9.779)" fill="#ebebeb"/>
            <rect id="Rectangle_13" data-name="Rectangle 13" width="4.644" height="17.332" transform="translate(5.754 6.487)" fill="#ebebeb"/>
            <rect id="Rectangle_14" data-name="Rectangle 14" width="4.644" height="17.332" transform="translate(16.428 6.487)" fill="#ebebeb"/>
            <rect id="Rectangle_15" data-name="Rectangle 15" width="4.644" height="17.332" transform="translate(43.369 6.487)" fill="#ebebeb"/>
            <rect id="Rectangle_16" data-name="Rectangle 16" width="4.644" height="17.332" transform="translate(28.664 6.899) rotate(-12.528)" fill="#ebebeb"/>
            <rect id="Rectangle_17" data-name="Rectangle 17" width="2.322" height="20.954" transform="translate(12.091 2.865)" fill="#ebebeb"/>
            <rect id="Rectangle_18" data-name="Rectangle 18" width="2.322" height="20.954" transform="translate(39.712 2.865)" fill="#ebebeb"/>
          </g>
          <g id="Group_3" data-name="Group 3" transform="translate(18.285 31.65)">
            <rect id="Rectangle_19" data-name="Rectangle 19" width="81.746" height="23.819" transform="translate(81.746 23.819) rotate(180)" fill="#e0e0e0"/>
            <rect id="Rectangle_20" data-name="Rectangle 20" width="4.644" height="19.963" transform="translate(81.746 23.819) rotate(180)" fill="#ebebeb"/>
            <rect id="Rectangle_21" data-name="Rectangle 21" width="4.644" height="19.963" transform="translate(59.292 23.819) rotate(180)" fill="#ebebeb"/>
            <rect id="Rectangle_22" data-name="Rectangle 22" width="4.644" height="19.963" transform="matrix(-0.985, -0.17, 0.17, -0.985, 30.343, 23.819)" fill="#ebebeb"/>
            <rect id="Rectangle_23" data-name="Rectangle 23" width="4.644" height="17.332" transform="translate(75.992 23.819) rotate(180)" fill="#ebebeb"/>
            <rect id="Rectangle_24" data-name="Rectangle 24" width="4.644" height="17.332" transform="translate(65.319 23.819) rotate(180)" fill="#ebebeb"/>
            <rect id="Rectangle_25" data-name="Rectangle 25" width="4.644" height="17.332" transform="translate(38.377 23.819) rotate(180)" fill="#ebebeb"/>
            <rect id="Rectangle_26" data-name="Rectangle 26" width="4.644" height="17.332" transform="matrix(-0.976, -0.217, 0.217, -0.976, 49.323, 23.819)" fill="#ebebeb"/>
            <rect id="Rectangle_27" data-name="Rectangle 27" width="2.322" height="20.954" transform="translate(69.655 23.819) rotate(180)" fill="#ebebeb"/>
            <rect id="Rectangle_28" data-name="Rectangle 28" width="2.322" height="20.954" transform="translate(42.034 23.819) rotate(180)" fill="#ebebeb"/>
            <rect id="Rectangle_29" data-name="Rectangle 29" width="4.644" height="19.963" transform="translate(0 3.856)" fill="#ebebeb"/>
            <rect id="Rectangle_30" data-name="Rectangle 30" width="4.644" height="17.332" transform="translate(5.754 6.487)" fill="#ebebeb"/>
            <rect id="Rectangle_31" data-name="Rectangle 31" width="4.644" height="17.332" transform="translate(16.428 6.487)" fill="#ebebeb"/>
            <rect id="Rectangle_32" data-name="Rectangle 32" width="2.322" height="20.954" transform="translate(12.091 2.865)" fill="#ebebeb"/>
          </g>
          <g id="Group_5" data-name="Group 5" transform="translate(17.99 59.241)">
            <rect id="Rectangle_33" data-name="Rectangle 33" width="81.746" height="23.819" transform="translate(0.295)" fill="#e0e0e0"/>
            <g id="Group_4" data-name="Group 4" transform="translate(0 2.865)">
              <rect id="Rectangle_34" data-name="Rectangle 34" width="4.644" height="19.963" transform="translate(47.215 0.991)" fill="#ebebeb"/>
              <rect id="Rectangle_35" data-name="Rectangle 35" width="4.644" height="19.963" transform="translate(72.773 1.281) rotate(-9.779)" fill="#ebebeb"/>
              <rect id="Rectangle_36" data-name="Rectangle 36" width="4.644" height="17.332" transform="translate(30.515 3.622)" fill="#ebebeb"/>
              <rect id="Rectangle_37" data-name="Rectangle 37" width="4.644" height="17.332" transform="translate(41.188 3.622)" fill="#ebebeb"/>
              <rect id="Rectangle_38" data-name="Rectangle 38" width="4.644" height="17.332" transform="translate(68.13 3.622)" fill="#ebebeb"/>
              <rect id="Rectangle_39" data-name="Rectangle 39" width="4.644" height="17.332" transform="translate(53.425 4.035) rotate(-12.527)" fill="#ebebeb"/>
              <rect id="Rectangle_40" data-name="Rectangle 40" width="2.322" height="20.954" transform="translate(36.852)" fill="#ebebeb"/>
              <rect id="Rectangle_41" data-name="Rectangle 41" width="2.322" height="20.954" transform="translate(64.473)" fill="#ebebeb"/>
              <rect id="Rectangle_42" data-name="Rectangle 42" width="4.644" height="19.963" transform="translate(19.348 1.281) rotate(-9.779)" fill="#ebebeb"/>
              <rect id="Rectangle_43" data-name="Rectangle 43" width="4.644" height="17.332" transform="translate(14.705 3.622)" fill="#ebebeb"/>
              <rect id="Rectangle_44" data-name="Rectangle 44" width="4.644" height="17.332" transform="translate(0 4.035) rotate(-12.527)" fill="#ebebeb"/>
              <rect id="Rectangle_45" data-name="Rectangle 45" width="2.322" height="20.954" transform="translate(11.048)" fill="#ebebeb"/>
            </g>
          </g>
          <rect id="Rectangle_46" data-name="Rectangle 46" width="15.176" height="129.306" transform="translate(15.176 129.306) rotate(180)" fill="#e0e0e0"/>
        </g>
        <g id="Group_8" data-name="Group 8" transform="translate(111.632 96.954)">
          <path id="Path_3" data-name="Path 3" d="M317.519,340.644H304.626l6.778-55.205a4.923,4.923,0,0,1,4.751-4.231h56.26l-8.247,59.437Z" transform="translate(-274.529 -281.207)" fill="#f5f5f5"/>
          <path id="Path_4" data-name="Path 4" d="M391.443,340.644h12.894l6.778-55.205a3.665,3.665,0,0,0-3.712-4.231h-4.431a4.923,4.923,0,0,0-4.751,4.231Z" transform="translate(-307.559 -281.207)" fill="#f0f0f0"/>
          <g id="Group_7" data-name="Group 7" transform="translate(75.379 18.575)">
            <path id="Path_5" data-name="Path 5" d="M381.469,351.986l2.336-26.7a2.545,2.545,0,0,1,2.214-2.3l.96-.123a3.414,3.414,0,0,0,2.969-3.089l.426-4.869a3.414,3.414,0,0,0-3.4-3.712h21.549a3.414,3.414,0,0,1,3.4,3.712l-.426,4.869a3.414,3.414,0,0,1-2.969,3.089l-.96.123a2.545,2.545,0,0,0-2.214,2.3l-2.336,26.7a3.769,3.769,0,0,1-3.754,3.44H377.715A3.768,3.768,0,0,0,381.469,351.986Z" transform="translate(-377.715 -311.189)" fill="#e6e6e6"/>
          </g>
          <path id="Path_6" data-name="Path 6" d="M283.095,318.6a8.118,8.118,0,0,0-8.087-7.41h18.759a8.118,8.118,0,0,1,8.087,7.41l1.852,21.167h-18.76Z" transform="translate(-263.26 -292.614)" fill="#e6e6e6"/>
          <path id="Path_7" data-name="Path 7" d="M259.46,311.189h8.333a8.118,8.118,0,0,1,8.087,7.41l1.852,21.167h44.679l1.852-21.167a8.118,8.118,0,0,1,8.087-7.41h8.333a3.414,3.414,0,0,1,3.4,3.712l-.426,4.869a3.414,3.414,0,0,1-2.969,3.089l-.96.123a2.545,2.545,0,0,0-2.214,2.3l-2.336,26.7a3.769,3.769,0,0,1-3.755,3.44H268.718a3.769,3.769,0,0,1-3.754-3.44l-2.336-26.7a2.544,2.544,0,0,0-2.213-2.3l-.961-.123a3.414,3.414,0,0,1-2.969-3.089l-.426-4.869A3.414,3.414,0,0,1,259.46,311.189Z" transform="translate(-256.046 -292.614)" fill="#f0f0f0"/>
        </g>
        <g id="Group_12" data-name="Group 12" transform="translate(10.016)">
          <path id="Path_8" data-name="Path 8" d="M98.3,148.729s-.686-4.524,2.614-7.425,3.01-4.627,2.067-4.852-1.813,2.676-3.264,3.474c0,0-.046-4.134,1.427-5.657s2.246-5.446.844-5.516-1.547,2.331-1.837,4.032a14.309,14.309,0,0,1-1.852,4.1s-.3-3.7-1.257-5.222,1.586-5,.607-6.527-2.72,1.378-2.575,4.642,2.321,6.745,1.813,10.154c0,0-.96-2.393-1.822-2.611s-1.732-1.8-2.312-2.387-1.305,1.444,0,3.33,4.642,6.93,4.134,11.008Z" transform="translate(-92.027 -124.713)" fill="#e6e6e6"/>
          <path id="Path_9" data-name="Path 9" d="M101.09,160.155l1.081,6.781a3.448,3.448,0,0,1-3.406,3.99H97.613a3.448,3.448,0,0,1-3.406-3.99l1.081-6.781Z" transform="translate(-92.84 -138.197)" fill="#e6e6e6"/>
          <rect id="Rectangle_47" data-name="Rectangle 47" width="3.365" height="14.467" transform="translate(76.488 31.398) rotate(180)" fill="#ebebeb"/>
          <rect id="Rectangle_48" data-name="Rectangle 48" width="3.365" height="14.467" transform="translate(60.216 31.398) rotate(180)" fill="#ebebeb"/>
          <rect id="Rectangle_49" data-name="Rectangle 49" width="3.365" height="14.467" transform="translate(39.237 31.398) rotate(-170.221)" fill="#ebebeb"/>
          <rect id="Rectangle_50" data-name="Rectangle 50" width="3.365" height="12.561" transform="translate(72.319 31.398) rotate(180)" fill="#ebebeb"/>
          <rect id="Rectangle_51" data-name="Rectangle 51" width="3.365" height="12.561" transform="translate(64.584 31.398) rotate(180)" fill="#ebebeb"/>
          <rect id="Rectangle_52" data-name="Rectangle 52" width="3.365" height="12.561" transform="translate(45.059 31.398) rotate(180)" fill="#ebebeb"/>
          <rect id="Rectangle_53" data-name="Rectangle 53" width="3.365" height="12.561" transform="translate(52.991 31.398) rotate(-167.473)" fill="#ebebeb"/>
          <rect id="Rectangle_54" data-name="Rectangle 54" width="1.683" height="15.185" transform="translate(67.726 31.398) rotate(180)" fill="#ebebeb"/>
          <rect id="Rectangle_55" data-name="Rectangle 55" width="1.683" height="15.185" transform="translate(47.709 31.398) rotate(180)" fill="#ebebeb"/>
          <g id="Group_9" data-name="Group 9" transform="translate(17.627 19.916)">
            <rect id="Rectangle_56" data-name="Rectangle 56" width="16.397" height="11.32" fill="#ebebeb"/>
          </g>
          <g id="Group_10" data-name="Group 10" transform="translate(76.532 24.552)">
            <rect id="Rectangle_57" data-name="Rectangle 57" width="13.737" height="8.451" fill="#ebebeb"/>
          </g>
          <g id="Group_11" data-name="Group 11" transform="translate(80.189 17.124)">
            <rect id="Rectangle_58" data-name="Rectangle 58" width="6.868" height="8.451" fill="#ebebeb"/>
          </g>
        </g>
        <g id="Group_13" data-name="Group 13" transform="translate(147.032 5.941)">
          <rect id="Rectangle_59" data-name="Rectangle 59" width="16.337" height="68.078" transform="translate(48.484)" fill="#e0e0e0"/>
          <rect id="Rectangle_60" data-name="Rectangle 60" width="61.097" height="68.257" transform="translate(63.067 68.257) rotate(180)" fill="#e0e0e0"/>
          <rect id="Rectangle_61" data-name="Rectangle 61" width="63.391" height="68.257" transform="translate(63.391 68.257) rotate(180)" fill="#f0f0f0"/>
          <rect id="Rectangle_62" data-name="Rectangle 62" width="58.078" height="62.944" transform="translate(60.786 65.121) rotate(180)" fill="#fff"/>
          <rect id="Rectangle_63" data-name="Rectangle 63" width="1.077" height="62.944" transform="translate(3.785 65.121) rotate(180)" fill="#e0e0e0"/>
          <rect id="Rectangle_64" data-name="Rectangle 64" width="1.697" height="57.332" transform="translate(3.604 49.138) rotate(-90)" fill="#e0e0e0"/>
          <rect id="Rectangle_65" data-name="Rectangle 65" width="58.988" height="2.85" transform="translate(61.696 47.441) rotate(180)" fill="#f0f0f0"/>
        </g>
      </g>
    </g>
    <g id="Shadow" transform="translate(34.763 271.767)">
      <ellipse id="_Path_" data-name="&lt;Path&gt;" cx="120.122" cy="7.015" rx="120.122" ry="7.015" transform="translate(0 0)" fill="#f5f5f5"/>
    </g>
    <g id="Interface" transform="translate(84.083 115.588)">
      <g id="Group_27" data-name="Group 27">
        <rect id="Rectangle_66" data-name="Rectangle 66" width="119.912" height="139.584" rx="7.316" fill="#407bff"/>
        <rect id="Rectangle_67" data-name="Rectangle 67" width="119.912" height="139.584" rx="7.316" fill="#fff" opacity="0.6" style="mix-blend-mode: normal;isolation: isolate"/>
        <g id="Group_17" data-name="Group 17" transform="translate(19.427 64.013)">
          <rect id="Rectangle_68" data-name="Rectangle 68" width="81.059" height="13.88" fill="#fff"/>
          <g id="Group_16" data-name="Group 16" transform="translate(4.436 4.438)" opacity="0.4">
            <path id="Path_12" data-name="Path 12" d="M177.049,267.309v.364h-2.812V263.7h2.727v.364h-2.307v1.415h2.056v.358h-2.056v1.477Z" transform="translate(-174.237 -263.456)" fill="#263238"/>
            <path id="Path_13" data-name="Path 13" d="M179.694,267.346h1.489v.352h-1.489Z" transform="translate(-176.313 -264.846)" fill="#263238"/>
            <path id="Path_14" data-name="Path 14" d="M188.487,266.533v1.733h-.4v-1.693c0-.631-.318-.954-.858-.954a.96.96,0,0,0-1,1.079v1.568h-.4v-1.693c0-.631-.318-.954-.864-.954a.963.963,0,0,0-1,1.079v1.568h-.4v-2.989h.386v.546a1.209,1.209,0,0,1,1.1-.568,1.073,1.073,0,0,1,1.063.63,1.3,1.3,0,0,1,1.182-.63A1.128,1.128,0,0,1,188.487,266.533Z" transform="translate(-177.782 -264.05)" fill="#263238"/>
            <path id="Path_15" data-name="Path 15" d="M195.387,266.414v1.852H195V267.8a1.122,1.122,0,0,1-1.028.494c-.677,0-1.091-.353-1.091-.869,0-.46.3-.846,1.154-.846h.948V266.4c0-.512-.29-.79-.846-.79a1.52,1.52,0,0,0-.994.353l-.182-.3a1.9,1.9,0,0,1,1.216-.4A1.061,1.061,0,0,1,195.387,266.414Zm-.4.955v-.489h-.937c-.58,0-.767.227-.767.534,0,.347.278.563.756.563A.956.956,0,0,0,194.984,267.368Z" transform="translate(-181.331 -264.05)" fill="#263238"/>
            <path id="Path_16" data-name="Path 16" d="M198.55,263.594a.292.292,0,0,1,.295-.284.287.287,0,1,1,0,.574A.292.292,0,0,1,198.55,263.594Zm.09.943h.4v2.989h-.4Z" transform="translate(-183.487 -263.31)" fill="#263238"/>
            <path id="Path_17" data-name="Path 17" d="M201.163,263.31h.4v4.216h-.4Z" transform="translate(-184.481 -263.31)" fill="#263238"/>
          </g>
        </g>
        <g id="Group_19" data-name="Group 19" transform="translate(19.427 82.972)">
          <rect id="Rectangle_69" data-name="Rectangle 69" width="81.059" height="13.88" fill="#fff"/>
          <g id="Group_18" data-name="Group 18" transform="translate(4.436 4.459)" opacity="0.4">
            <path id="Path_18" data-name="Path 18" d="M177.351,295.7c0,.847-.613,1.359-1.625,1.359h-1.068v1.255h-.421v-3.977h1.489C176.737,294.333,177.351,294.844,177.351,295.7Zm-.421,0c0-.636-.42-1-1.216-1h-1.057v1.988h1.057C176.51,296.685,176.93,296.321,176.93,295.7Z" transform="translate(-174.237 -294.094)" fill="#263238"/>
            <path id="Path_19" data-name="Path 19" d="M182.649,297.051V298.9h-.387v-.466a1.122,1.122,0,0,1-1.028.494c-.676,0-1.09-.353-1.09-.869,0-.46.3-.847,1.153-.847h.949v-.182c0-.511-.29-.789-.847-.789a1.529,1.529,0,0,0-.994.352l-.182-.3a1.9,1.9,0,0,1,1.216-.4A1.062,1.062,0,0,1,182.649,297.051Zm-.4.954v-.488h-.938c-.579,0-.766.227-.766.533,0,.346.278.563.755.563A.957.957,0,0,0,182.246,298.005Z" transform="translate(-176.484 -294.687)" fill="#263238"/>
            <path id="Path_20" data-name="Path 20" d="M185.289,298.562l.182-.318a1.809,1.809,0,0,0,1.063.335c.568,0,.8-.193.8-.489,0-.778-1.937-.164-1.937-1.346,0-.489.421-.852,1.182-.852a2.018,2.018,0,0,1,1.056.278l-.176.323a1.533,1.533,0,0,0-.88-.255c-.54,0-.779.21-.779.494,0,.807,1.937.2,1.937,1.346,0,.517-.454.853-1.233.853A2,2,0,0,1,185.289,298.562Z" transform="translate(-178.442 -294.687)" fill="#263238"/>
            <path id="Path_21" data-name="Path 21" d="M189.773,298.562l.182-.318a1.81,1.81,0,0,0,1.063.335c.569,0,.8-.193.8-.489,0-.778-1.938-.164-1.938-1.346,0-.489.421-.852,1.182-.852a2.017,2.017,0,0,1,1.056.278l-.176.323a1.533,1.533,0,0,0-.88-.255c-.54,0-.778.21-.778.494,0,.807,1.937.2,1.937,1.346,0,.517-.455.853-1.233.853A2,2,0,0,1,189.773,298.562Z" transform="translate(-180.148 -294.687)" fill="#263238"/>
            <path id="Path_22" data-name="Path 22" d="M198.9,295.929l-1.131,2.988h-.38l-.943-2.448-.944,2.448h-.38L194,295.929h.386l.938,2.539.96-2.539h.346l.955,2.539.949-2.539Z" transform="translate(-181.756 -294.701)" fill="#263238"/>
            <path id="Path_23" data-name="Path 23" d="M202.273,297.409a1.52,1.52,0,1,1,1.523,1.523A1.47,1.47,0,0,1,202.273,297.409Zm2.631,0a1.112,1.112,0,1,0-1.108,1.165A1.09,1.09,0,0,0,204.9,297.409Z" transform="translate(-184.904 -294.687)" fill="#263238"/>
            <path id="Path_24" data-name="Path 24" d="M210.015,295.892v.392c-.034,0-.068,0-.1,0a.966.966,0,0,0-1.005,1.1V298.9h-.4v-2.988h.386v.585A1.127,1.127,0,0,1,210.015,295.892Z" transform="translate(-187.277 -294.687)" fill="#263238"/>
            <path id="Path_25" data-name="Path 25" d="M214.611,293.947v4.216h-.386v-.591a1.3,1.3,0,0,1-1.154.62,1.52,1.52,0,0,1,0-3.039,1.3,1.3,0,0,1,1.136.591v-1.8Zm-.4,2.722a1.112,1.112,0,1,0-1.108,1.165A1.093,1.093,0,0,0,214.214,296.669Z" transform="translate(-188.446 -293.947)" fill="#263238"/>
          </g>
        </g>
        <rect id="Rectangle_70" data-name="Rectangle 70" width="81.059" height="13.88" transform="translate(19.427 111.008)" opacity="0.2"/>
        <g id="Group_20" data-name="Group 20" transform="translate(37.27 102.593)" opacity="0.5">
          <path id="Path_26" data-name="Path 26" d="M197.748,320.638h-1.323l-.285.634h-.261l1.086-2.375h.248l1.086,2.375h-.265Zm-.092-.2-.57-1.276-.57,1.276Z" transform="translate(-195.878 -318.602)"/>
          <path id="Path_27" data-name="Path 27" d="M200.34,318.667h.241v2.518h-.241Z" transform="translate(-197.576 -318.514)"/>
          <path id="Path_28" data-name="Path 28" d="M202.714,319.828v.234c-.02,0-.041,0-.058,0a.578.578,0,0,0-.6.659v.909h-.24v-1.785h.23v.349A.673.673,0,0,1,202.714,319.828Z" transform="translate(-198.137 -318.956)"/>
          <path id="Path_29" data-name="Path 29" d="M205.385,320.809h-1.493a.661.661,0,0,0,.7.621.705.705,0,0,0,.546-.234l.136.156a.944.944,0,0,1-1.626-.618.86.86,0,0,1,.872-.906.851.851,0,0,1,.865.906C205.389,320.754,205.385,320.781,205.385,320.809Zm-1.493-.18h1.266a.634.634,0,0,0-1.266,0Z" transform="translate(-198.835 -318.956)"/>
          <path id="Path_30" data-name="Path 30" d="M208.426,320.52v1.106h-.231v-.278a.67.67,0,0,1-.615.3c-.4,0-.651-.211-.651-.519,0-.275.176-.506.689-.506h.567v-.108c0-.306-.173-.472-.506-.472a.906.906,0,0,0-.594.211l-.109-.18a1.137,1.137,0,0,1,.727-.241A.634.634,0,0,1,208.426,320.52Zm-.241.571V320.8h-.56c-.346,0-.458.136-.458.319,0,.207.167.336.452.336A.572.572,0,0,0,208.185,321.091Z" transform="translate(-200.082 -318.956)"/>
          <path id="Path_31" data-name="Path 31" d="M211.933,318.667v2.518h-.23v-.353a.774.774,0,0,1-.689.37.908.908,0,0,1,0-1.816.78.78,0,0,1,.678.353v-1.072Zm-.237,1.626a.664.664,0,1,0-.662.7A.653.653,0,0,0,211.7,320.293Z" transform="translate(-201.298 -318.514)"/>
          <path id="Path_32" data-name="Path 32" d="M215.374,319.85l-.893,2c-.149.35-.339.462-.594.462a.61.61,0,0,1-.434-.162l.112-.18a.446.446,0,0,0,.326.135c.159,0,.268-.074.37-.3l.078-.173-.8-1.782h.251l.672,1.517.672-1.517Z" transform="translate(-202.565 -318.964)"/>
          <path id="Path_33" data-name="Path 33" d="M219.795,320.52v1.106h-.231v-.278a.67.67,0,0,1-.614.3c-.4,0-.652-.211-.652-.519,0-.275.177-.506.689-.506h.567v-.108c0-.306-.173-.472-.506-.472a.906.906,0,0,0-.594.211l-.109-.18a1.137,1.137,0,0,1,.727-.241A.634.634,0,0,1,219.795,320.52Zm-.241.571V320.8h-.56c-.346,0-.458.136-.458.319,0,.207.167.336.452.336A.572.572,0,0,0,219.554,321.091Z" transform="translate(-204.408 -318.956)"/>
          <path id="Path_34" data-name="Path 34" d="M226.155,320.591v1.035h-.241v-1.011c0-.377-.19-.57-.512-.57a.574.574,0,0,0-.6.645v.936h-.241v-1.011c0-.377-.19-.57-.515-.57a.576.576,0,0,0-.6.645v.936h-.241v-1.785h.231v.326a.722.722,0,0,1,.655-.34.642.642,0,0,1,.635.377.777.777,0,0,1,.706-.377A.673.673,0,0,1,226.155,320.591Z" transform="translate(-206.276 -318.956)"/>
          <path id="Path_35" data-name="Path 35" d="M230.48,320.809h-1.493a.661.661,0,0,0,.7.621.7.7,0,0,0,.546-.234l.136.156a.944.944,0,0,1-1.626-.618.86.86,0,0,1,.872-.906.851.851,0,0,1,.865.906C230.483,320.754,230.48,320.781,230.48,320.809Zm-1.493-.18h1.266a.634.634,0,0,0-1.266,0Z" transform="translate(-208.383 -318.956)"/>
          <path id="Path_36" data-name="Path 36" d="M235.293,320.591v1.035h-.241v-1.011c0-.377-.19-.57-.512-.57a.574.574,0,0,0-.6.645v.936h-.24v-1.011c0-.377-.19-.57-.516-.57a.576.576,0,0,0-.6.645v.936h-.241v-1.785h.231v.326a.721.721,0,0,1,.655-.34.641.641,0,0,1,.634.377.778.778,0,0,1,.706-.377A.674.674,0,0,1,235.293,320.591Z" transform="translate(-209.753 -318.956)"/>
          <path id="Path_37" data-name="Path 37" d="M239.972,320.293a.866.866,0,0,1-.889.91.772.772,0,0,1-.689-.37v.353h-.231v-2.518h.241v1.072a.781.781,0,0,1,.679-.353A.864.864,0,0,1,239.972,320.293Zm-.241,0a.666.666,0,1,0-.665.7A.656.656,0,0,0,239.731,320.293Z" transform="translate(-211.966 -318.514)"/>
          <path id="Path_38" data-name="Path 38" d="M243.324,320.809h-1.493a.66.66,0,0,0,.7.621.7.7,0,0,0,.546-.234l.136.156a.944.944,0,0,1-1.626-.618.86.86,0,0,1,.872-.906.851.851,0,0,1,.865.906C243.327,320.754,243.324,320.781,243.324,320.809Zm-1.493-.18H243.1a.634.634,0,0,0-1.265,0Z" transform="translate(-213.269 -318.956)"/>
          <path id="Path_39" data-name="Path 39" d="M246.09,319.828v.234c-.02,0-.041,0-.058,0a.578.578,0,0,0-.6.659v.909h-.241v-1.785h.231v.349A.673.673,0,0,1,246.09,319.828Z" transform="translate(-214.639 -318.956)"/>
          <path id="Path_40" data-name="Path 40" d="M248.319,319.492c0-.245-.2-.414-.546-.414a.789.789,0,0,0-.648.275l-.18-.136a1.036,1.036,0,0,1,.845-.353c.475,0,.781.227.781.59,0,.581-.621.608-.621,1.093H247.7C247.7,319.987,248.319,319.936,248.319,319.492Zm-.672,1.608a.178.178,0,0,1,.356,0,.178.178,0,0,1-.356,0Z" transform="translate(-215.307 -318.589)"/>
          <path id="Path_41" data-name="Path 41" d="M251.872,318.9h.55v1.928h1.191v.447h-1.741Z" transform="translate(-217.182 -318.602)"/>
          <path id="Path_42" data-name="Path 42" d="M254.882,320.68a1,1,0,1,1,1,.94A.94.94,0,0,1,254.882,320.68Zm1.47,0a.468.468,0,1,0-.465.506A.461.461,0,0,0,256.352,320.68Z" transform="translate(-218.327 -318.922)"/>
          <path id="Path_43" data-name="Path 43" d="M260.492,319.767v1.52a.894.894,0,0,1-1.025.991,1.509,1.509,0,0,1-.9-.251l.211-.38a1.09,1.09,0,0,0,.645.207c.374,0,.536-.17.536-.5v-.078a.749.749,0,0,1-.577.227.883.883,0,1,1,0-1.765.734.734,0,0,1,.6.261v-.234Zm-.523.856a.481.481,0,1,0-.478.448A.444.444,0,0,0,259.969,320.623Z" transform="translate(-219.693 -318.922)"/>
          <path id="Path_44" data-name="Path 44" d="M263.976,318.716a.3.3,0,0,1,.329-.3.3.3,0,0,1,.33.286.331.331,0,0,1-.659.01Zm.064.55h.53v1.826h-.53Z" transform="translate(-221.787 -318.42)"/>
          <path id="Path_45" data-name="Path 45" d="M267.6,320.548v1.045h-.53v-.963c0-.3-.136-.431-.37-.431-.255,0-.438.156-.438.492v.9h-.529v-1.826h.506v.214a.8.8,0,0,1,.6-.242A.716.716,0,0,1,267.6,320.548Z" transform="translate(-222.454 -318.922)"/>
        </g>
        <rect id="Rectangle_71" data-name="Rectangle 71" width="81.059" height="13.88" transform="translate(19.427 110.158)" fill="#407bff"/>
        <g id="Group_21" data-name="Group 21" transform="translate(46.314 114.116)">
          <path id="Path_46" data-name="Path 46" d="M213.651,342.4l-1.025-1.46c-.1.007-.2.013-.3.013h-1.174V342.4h-.678v-4.751h1.852c1.235,0,1.983.624,1.983,1.655a1.5,1.5,0,0,1-1.046,1.5l1.127,1.6Zm-.02-3.1c0-.678-.455-1.065-1.323-1.065h-1.154v2.138h1.154C213.176,340.373,213.631,339.979,213.631,339.3Z" transform="translate(-210.475 -337.258)" fill="#fff"/>
          <path id="Path_47" data-name="Path 47" d="M221.325,341.5h-2.919a1.219,1.219,0,0,0,1.3,1.052,1.345,1.345,0,0,0,1.038-.434l.36.42a1.961,1.961,0,0,1-3.354-1.255,1.762,1.762,0,0,1,1.806-1.833,1.734,1.734,0,0,1,1.778,1.853C221.338,341.359,221.331,341.441,221.325,341.5Zm-2.919-.468h2.308a1.161,1.161,0,0,0-2.308,0Z" transform="translate(-213.244 -337.945)" fill="#fff"/>
          <path id="Path_48" data-name="Path 48" d="M228.238,339.486v3.108a1.635,1.635,0,0,1-1.867,1.847,2.661,2.661,0,0,1-1.717-.537l.312-.5a2.195,2.195,0,0,0,1.385.468c.848,0,1.235-.393,1.235-1.208v-.285a1.647,1.647,0,0,1-1.3.556,1.743,1.743,0,1,1,0-3.482,1.643,1.643,0,0,1,1.331.59v-.556Zm-.639,1.7a1.24,1.24,0,1,0-1.235,1.174A1.148,1.148,0,0,0,227.6,341.19Z" transform="translate(-215.797 -337.945)" fill="#fff"/>
          <path id="Path_49" data-name="Path 49" d="M232.379,337.447a.429.429,0,0,1,.441-.427.422.422,0,0,1,.441.414.441.441,0,0,1-.882.013Zm.115,1.113h.652v3.6h-.652Z" transform="translate(-218.809 -337.02)" fill="#fff"/>
          <path id="Path_50" data-name="Path 50" d="M234.891,342.7l.271-.516a2.308,2.308,0,0,0,1.262.374c.6,0,.856-.183.856-.489,0-.808-2.274-.108-2.274-1.541,0-.645.577-1.079,1.5-1.079a2.614,2.614,0,0,1,1.31.326l-.278.515a1.88,1.88,0,0,0-1.038-.284c-.571,0-.849.21-.849.495,0,.849,2.281.156,2.281,1.554,0,.652-.6,1.066-1.554,1.066A2.6,2.6,0,0,1,234.891,342.7Z" transform="translate(-219.764 -337.945)" fill="#fff"/>
          <path id="Path_51" data-name="Path 51" d="M242.822,342.41a1.227,1.227,0,0,1-.787.251,1.027,1.027,0,0,1-1.14-1.127v-1.975h-.611v-.536h.611v-.787h.652v.787h1.032v.536h-1.032v1.948a.53.53,0,0,0,.563.6.818.818,0,0,0,.509-.17Z" transform="translate(-221.816 -337.483)" fill="#fff"/>
          <path id="Path_52" data-name="Path 52" d="M248.492,341.5h-2.919a1.219,1.219,0,0,0,1.3,1.052,1.345,1.345,0,0,0,1.038-.434l.36.42a1.961,1.961,0,0,1-3.354-1.255,1.762,1.762,0,0,1,1.806-1.833,1.734,1.734,0,0,1,1.778,1.853C248.505,341.359,248.5,341.441,248.492,341.5Zm-2.919-.468h2.308a1.161,1.161,0,0,0-2.308,0Z" transform="translate(-223.58 -337.945)" fill="#fff"/>
          <path id="Path_53" data-name="Path 53" d="M254.1,339.452v.631a1.138,1.138,0,0,0-.149-.007,1.073,1.073,0,0,0-1.133,1.215v1.792h-.652v-3.6h.624v.6A1.373,1.373,0,0,1,254.1,339.452Z" transform="translate(-226.338 -337.945)" fill="#fff"/>
        </g>
        <g id="Group_22" data-name="Group 22" transform="translate(45.767 10.325)" opacity="0.6">
          <path id="Path_54" data-name="Path 54" d="M209.593,174.743l.275-.579a2.677,2.677,0,0,0,1.717.6c.9,0,1.285-.349,1.285-.8,0-1.271-3.15-.468-3.15-2.4,0-.8.624-1.486,1.991-1.486a3.059,3.059,0,0,1,1.672.46l-.245.595a2.684,2.684,0,0,0-1.427-.424c-.884,0-1.263.372-1.263.825,0,1.271,3.15.476,3.15,2.385,0,.795-.639,1.479-2.013,1.479A3.087,3.087,0,0,1,209.593,174.743Z" transform="translate(-209.593 -169.713)" fill="#263238"/>
          <path id="Path_55" data-name="Path 55" d="M217.441,169.957a.469.469,0,0,1,.483-.468.465.465,0,1,1-.483.468Zm.126,1.218h.713v3.938h-.713Z" transform="translate(-212.579 -169.489)" fill="#263238"/>
          <path id="Path_56" data-name="Path 56" d="M224.536,172.188v3.4a1.789,1.789,0,0,1-2.043,2.022,2.913,2.913,0,0,1-1.88-.587l.341-.55a2.4,2.4,0,0,0,1.516.513c.929,0,1.352-.431,1.352-1.323v-.312a1.8,1.8,0,0,1-1.419.61,1.908,1.908,0,1,1,0-3.812,1.8,1.8,0,0,1,1.457.647v-.61Zm-.7,1.865a1.358,1.358,0,1,0-1.352,1.285A1.257,1.257,0,0,0,223.838,174.054Z" transform="translate(-213.707 -170.502)" fill="#263238"/>
          <path id="Path_57" data-name="Path 57" d="M233.01,173.86v2.266H232.3v-2.184c0-.773-.387-1.152-1.063-1.152a1.169,1.169,0,0,0-1.248,1.307v2.029h-.713v-3.938h.683v.595a1.687,1.687,0,0,1,1.419-.632A1.526,1.526,0,0,1,233.01,173.86Z" transform="translate(-217.081 -170.502)" fill="#263238"/>
          <path id="Path_58" data-name="Path 58" d="M244.32,172.211v3.938h-.676v-.595a1.6,1.6,0,0,1-1.338.639,1.548,1.548,0,0,1-1.694-1.717v-2.266h.714V174.4c0,.773.387,1.159,1.063,1.159a1.159,1.159,0,0,0,1.219-1.307v-2.036Z" transform="translate(-221.395 -170.525)" fill="#263238"/>
          <path id="Path_59" data-name="Path 59" d="M252.876,174.158a1.914,1.914,0,0,1-1.992,2.013,1.681,1.681,0,0,1-1.374-.639v2.036H248.8v-5.38h.684v.624a1.677,1.677,0,0,1,1.4-.662A1.912,1.912,0,0,1,252.876,174.158Zm-.721,0a1.328,1.328,0,1,0-1.329,1.389A1.3,1.3,0,0,0,252.154,174.158Z" transform="translate(-224.508 -170.502)" fill="#263238"/>
        </g>
        <g id="Group_24" data-name="Group 24" transform="translate(19.427 45.053)">
          <rect id="Rectangle_72" data-name="Rectangle 72" width="81.059" height="13.88" fill="#fff"/>
          <g id="Group_23" data-name="Group 23" transform="translate(4.436 4.677)" opacity="0.4">
            <path id="Path_60" data-name="Path 60" d="M174.237,233.093h.421v3.613h2.227v.364h-2.647Z" transform="translate(-174.237 -233.093)" fill="#263238"/>
            <path id="Path_61" data-name="Path 61" d="M181.621,235.81v1.852h-.387V237.2a1.122,1.122,0,0,1-1.028.494c-.677,0-1.091-.353-1.091-.87,0-.46.3-.846,1.153-.846h.949v-.182c0-.511-.29-.79-.846-.79a1.52,1.52,0,0,0-.994.353l-.182-.3a1.9,1.9,0,0,1,1.216-.4A1.062,1.062,0,0,1,181.621,235.81Zm-.4.955v-.489h-.937c-.58,0-.767.228-.767.535,0,.346.278.562.755.562A.957.957,0,0,0,181.218,236.765Z" transform="translate(-176.093 -233.686)" fill="#263238"/>
            <path id="Path_62" data-name="Path 62" d="M184.261,237.322l.182-.318a1.806,1.806,0,0,0,1.063.335c.568,0,.8-.193.8-.489,0-.778-1.938-.164-1.938-1.346,0-.489.421-.852,1.182-.852a2.025,2.025,0,0,1,1.056.279l-.176.324a1.529,1.529,0,0,0-.88-.256c-.54,0-.779.21-.779.494,0,.806,1.937.2,1.937,1.347,0,.517-.454.852-1.232.852A2,2,0,0,1,184.261,237.322Z" transform="translate(-178.051 -233.686)" fill="#263238"/>
            <path id="Path_63" data-name="Path 63" d="M190.7,237.094a.962.962,0,0,1-.631.21.792.792,0,0,1-.875-.87v-1.807h-.534v-.34h.534v-.654h.4v.654h.909v.34H189.6v1.784a.479.479,0,0,0,.517.545.666.666,0,0,0,.443-.153Z" transform="translate(-179.726 -233.299)" fill="#263238"/>
            <path id="Path_64" data-name="Path 64" d="M199,233.093v3.977h-.346l-2.557-3.227v3.227h-.42v-3.977h.346l2.562,3.227v-3.227Z" transform="translate(-182.395 -233.093)" fill="#263238"/>
            <path id="Path_65" data-name="Path 65" d="M205.1,235.81v1.852h-.387V237.2a1.122,1.122,0,0,1-1.028.494c-.676,0-1.09-.353-1.09-.87,0-.46.3-.846,1.154-.846h.949v-.182c0-.511-.29-.79-.846-.79a1.52,1.52,0,0,0-.994.353l-.182-.3a1.9,1.9,0,0,1,1.216-.4A1.062,1.062,0,0,1,205.1,235.81Zm-.4.955v-.489h-.937c-.58,0-.767.228-.767.535,0,.346.278.562.756.562A.957.957,0,0,0,204.7,236.765Z" transform="translate(-185.026 -233.686)" fill="#263238"/>
            <path id="Path_66" data-name="Path 66" d="M213.339,235.93v1.733h-.4v-1.693c0-.631-.318-.955-.857-.955a.96.96,0,0,0-1,1.079v1.569h-.4v-1.693c0-.631-.318-.955-.864-.955a.963.963,0,0,0-1,1.079v1.569h-.4v-2.988h.387v.545a1.209,1.209,0,0,1,1.1-.568,1.074,1.074,0,0,1,1.063.631,1.3,1.3,0,0,1,1.181-.631A1.128,1.128,0,0,1,213.339,235.93Z" transform="translate(-187.238 -233.686)" fill="#263238"/>
            <path id="Path_67" data-name="Path 67" d="M220.574,236.293h-2.5a1.107,1.107,0,0,0,1.177,1.04,1.176,1.176,0,0,0,.914-.392l.227.261a1.58,1.58,0,0,1-2.722-1.034,1.44,1.44,0,0,1,1.46-1.518,1.425,1.425,0,0,1,1.449,1.518C220.58,236.2,220.574,236.248,220.574,236.293Zm-2.5-.3h2.119a1.062,1.062,0,0,0-2.119,0Z" transform="translate(-190.762 -233.686)" fill="#263238"/>
          </g>
        </g>
        <g id="Group_26" data-name="Group 26" transform="translate(19.427 26.093)">
          <rect id="Rectangle_73" data-name="Rectangle 73" width="81.059" height="13.88" fill="#fff"/>
          <g id="Group_25" data-name="Group 25" transform="translate(4.436 4.438)" opacity="0.4">
            <path id="Path_68" data-name="Path 68" d="M174.658,202.853v1.562h2.056v.364h-2.056v1.688h-.421v-3.977h2.727v.364Z" transform="translate(-174.237 -202.25)" fill="#263238"/>
            <path id="Path_69" data-name="Path 69" d="M179.666,202.388a.291.291,0,0,1,.3-.284.287.287,0,0,1,.3.279.3.3,0,0,1-.591.006Zm.091.943h.4v2.989h-.4Z" transform="translate(-176.303 -202.104)" fill="#263238"/>
            <path id="Path_70" data-name="Path 70" d="M183.785,204.048v.392c-.034,0-.068-.006-.1-.006a.967.967,0,0,0-1.006,1.1v1.523h-.4v-2.989h.386v.585A1.128,1.128,0,0,1,183.785,204.048Z" transform="translate(-177.297 -202.844)" fill="#263238"/>
            <path id="Path_71" data-name="Path 71" d="M185.252,206.718l.182-.318a1.8,1.8,0,0,0,1.063.335c.568,0,.8-.193.8-.489,0-.778-1.937-.164-1.937-1.346,0-.489.42-.852,1.182-.852a2.025,2.025,0,0,1,1.056.279l-.176.323a1.533,1.533,0,0,0-.88-.255c-.54,0-.779.21-.779.494,0,.807,1.937.2,1.937,1.346,0,.517-.454.852-1.233.852A1.992,1.992,0,0,1,185.252,206.718Z" transform="translate(-178.428 -202.844)" fill="#263238"/>
            <path id="Path_72" data-name="Path 72" d="M191.693,206.49a.959.959,0,0,1-.631.211.792.792,0,0,1-.875-.87v-1.807h-.535v-.341h.535v-.654h.4v.654h.909v.341h-.909v1.784a.479.479,0,0,0,.517.545.666.666,0,0,0,.443-.153Z" transform="translate(-180.102 -202.456)" fill="#263238"/>
            <path id="Path_73" data-name="Path 73" d="M199.993,202.489v3.977h-.346l-2.557-3.227v3.227h-.421v-3.977h.347l2.562,3.227v-3.227Z" transform="translate(-182.772 -202.25)" fill="#263238"/>
            <path id="Path_74" data-name="Path 74" d="M206.09,205.207v1.852H205.7v-.466a1.123,1.123,0,0,1-1.028.494c-.676,0-1.091-.353-1.091-.87,0-.46.3-.846,1.154-.846h.948v-.182c0-.512-.289-.79-.846-.79a1.523,1.523,0,0,0-.994.352l-.182-.3a1.9,1.9,0,0,1,1.216-.4A1.062,1.062,0,0,1,206.09,205.207Zm-.4.955v-.489h-.937c-.579,0-.766.227-.766.534,0,.346.278.563.755.563A.956.956,0,0,0,205.686,206.162Z" transform="translate(-185.402 -202.844)" fill="#263238"/>
            <path id="Path_75" data-name="Path 75" d="M214.33,205.327v1.733h-.4v-1.693c0-.631-.318-.955-.858-.955a.961.961,0,0,0-1,1.079v1.569h-.4v-1.693c0-.631-.318-.955-.864-.955a.963.963,0,0,0-1,1.079v1.569h-.4v-2.989h.387v.545a1.209,1.209,0,0,1,1.1-.568,1.074,1.074,0,0,1,1.063.631,1.3,1.3,0,0,1,1.182-.631A1.128,1.128,0,0,1,214.33,205.327Z" transform="translate(-187.614 -202.844)" fill="#263238"/>
            <path id="Path_76" data-name="Path 76" d="M221.565,205.69h-2.5a1.106,1.106,0,0,0,1.176,1.04,1.179,1.179,0,0,0,.915-.392l.227.261a1.58,1.58,0,0,1-2.721-1.034,1.439,1.439,0,0,1,1.46-1.517,1.424,1.424,0,0,1,1.448,1.517C221.571,205.6,221.565,205.645,221.565,205.69Zm-2.5-.3h2.119a1.062,1.062,0,0,0-2.119,0Z" transform="translate(-191.139 -202.844)" fill="#263238"/>
          </g>
        </g>
      </g>
    </g>
    <g id="Plant" transform="translate(54.303 218.408)">
      <g id="Group_37" data-name="Group 37">
        <g id="Group_28" data-name="Group 28" transform="translate(5.232 5.312)">
          <path id="Path_77" data-name="Path 77" d="M129.187,344.617s-4.1-3.419-7.618,0-4.2,24.6-4.2,24.6" transform="translate(-104.192 -333.348)" fill="none" stroke="#407bff" stroke-width="0.945"/>
          <path id="Path_78" data-name="Path 78" d="M112.8,370.181s2.418-24.86-6.685-35.307" transform="translate(-99.908 -330.219)" fill="none" stroke="#407bff" stroke-width="0.945"/>
          <path id="Path_79" data-name="Path 79" d="M118.16,366.4s-1.862-28.3,4.965-34.579" transform="translate(-104.403 -329.057)" fill="none" stroke="#407bff" stroke-width="0.945"/>
          <path id="Path_80" data-name="Path 80" d="M108.988,374.024s-.159-18.7-5.232-21.608-7.659,6.575-7.659,6.575" transform="translate(-96.097 -336.683)" fill="none" stroke="#407bff" stroke-width="0.945"/>
          <path id="Path_81" data-name="Path 81" d="M120.094,374.547s-.828-14.357,3.1-19.488,8.068,2.2,8.068,2.2" transform="translate(-105.199 -337.206)" fill="none" stroke="#407bff" stroke-width="0.945"/>
          <path id="Path_82" data-name="Path 82" d="M116.906,366.625s2.542-33.575-1.665-39.264" transform="translate(-103.381 -327.361)" fill="none" stroke="#407bff" stroke-width="0.945"/>
        </g>
        <g id="Group_29" data-name="Group 29" transform="translate(0 21.718)">
          <path id="Path_83" data-name="Path 83" d="M96.2,355.894s2.53.932,1.777,3.134-8.751,5.825-8.751,5.825-3.35-3.07-.273-8.065S96.13,354.318,96.2,355.894Z" transform="translate(-87.652 -353.842)" fill="#407bff"/>
          <path id="Path_84" data-name="Path 84" d="M96.2,355.894s2.53.932,1.777,3.134-8.751,5.825-8.751,5.825-3.35-3.07-.273-8.065S96.13,354.318,96.2,355.894Z" transform="translate(-87.652 -353.842)" opacity="0.2" style="mix-blend-mode: normal;isolation: isolate"/>
        </g>
        <g id="Group_30" data-name="Group 30" transform="translate(16.694 18.565)">
          <path id="Path_85" data-name="Path 85" d="M117.447,349.767s-2.694-.113-2.847,2.209,5.835,8.744,5.835,8.744,4.274-1.545,3.356-7.338S118.117,348.339,117.447,349.767Z" transform="translate(-114.597 -348.753)" fill="#407bff"/>
          <path id="Path_86" data-name="Path 86" d="M117.447,349.767s-2.694-.113-2.847,2.209,5.835,8.744,5.835,8.744,4.274-1.545,3.356-7.338S118.117,348.339,117.447,349.767Z" transform="translate(-114.597 -348.753)" opacity="0.2" style="mix-blend-mode: normal;isolation: isolate"/>
        </g>
        <g id="Group_31" data-name="Group 31" transform="translate(20.165 5.312)">
          <path id="Path_87" data-name="Path 87" d="M121.859,330.515s-1.8-.193-1.651-1.287,6.981-3.909,11.015.644c0,0-2.583,4.437-6.316,4.494S121.859,330.515,121.859,330.515Z" transform="translate(-120.2 -327.361)" fill="#407bff"/>
          <path id="Path_88" data-name="Path 88" d="M121.859,330.515s-1.8-.193-1.651-1.287,6.981-3.909,11.015.644c0,0-2.583,4.437-6.316,4.494S121.859,330.515,121.859,330.515Z" transform="translate(-120.2 -327.361)" opacity="0.2" style="mix-blend-mode: normal;isolation: isolate"/>
        </g>
        <g id="Group_32" data-name="Group 32" transform="translate(10.87)">
          <path id="Path_89" data-name="Path 89" d="M112.8,324.6s1.626.786,2.082-.219-3.857-7.01-9.688-5.28c0,0-.155,5.132,2.983,7.156S112.8,324.6,112.8,324.6Z" transform="translate(-105.197 -318.787)" fill="#407bff"/>
          <path id="Path_90" data-name="Path 90" d="M112.8,324.6s1.626.786,2.082-.219-3.857-7.01-9.688-5.28c0,0-.155,5.132,2.983,7.156S112.8,324.6,112.8,324.6Z" transform="translate(-105.197 -318.787)" opacity="0.2" style="mix-blend-mode: normal;isolation: isolate"/>
        </g>
        <g id="Group_33" data-name="Group 33" transform="translate(26.14 21.224)">
          <path id="Path_91" data-name="Path 91" d="M130.685,354.705s-1.239-1,.1-1.489,7.9-.35,7.969,6.151c0,0-7.644,1.271-8.59-1.206S130.685,354.705,130.685,354.705Z" transform="translate(-129.844 -353.044)" fill="#407bff"/>
          <path id="Path_92" data-name="Path 92" d="M130.685,354.705s-1.239-1,.1-1.489,7.9-.35,7.969,6.151c0,0-7.644,1.271-8.59-1.206S130.685,354.705,130.685,354.705Z" transform="translate(-129.844 -353.044)" opacity="0.2" style="mix-blend-mode: normal;isolation: isolate"/>
        </g>
        <g id="Group_34" data-name="Group 34" transform="translate(3.325 6.642)">
          <path id="Path_93" data-name="Path 93" d="M101.087,331.169s1.24-1-.1-1.489-7.9-.349-7.969,6.152c0,0,7.644,1.27,8.591-1.206S101.087,331.169,101.087,331.169Z" transform="translate(-93.019 -329.508)" fill="#407bff"/>
          <path id="Path_94" data-name="Path 94" d="M101.087,331.169s1.24-1-.1-1.489-7.9-.349-7.969,6.152c0,0,7.644,1.27,8.591-1.206S101.087,331.169,101.087,331.169Z" transform="translate(-93.019 -329.508)" opacity="0.2" style="mix-blend-mode: normal;isolation: isolate"/>
        </g>
        <g id="Group_35" data-name="Group 35" transform="translate(12.131 12.69)">
          <path id="Path_95" data-name="Path 95" d="M110.536,340.12s.109-1.216-.873-.739-4.4,4.168-.857,7.67c0,0,4.774-3.536,3.914-5.377S110.536,340.12,110.536,340.12Z" transform="translate(-107.232 -339.27)" fill="#407bff"/>
          <path id="Path_96" data-name="Path 96" d="M110.536,340.12s.109-1.216-.873-.739-4.4,4.168-.857,7.67c0,0,4.774-3.536,3.914-5.377S110.536,340.12,110.536,340.12Z" transform="translate(-107.232 -339.27)" opacity="0.2" style="mix-blend-mode: normal;isolation: isolate"/>
        </g>
        <g id="Group_36" data-name="Group 36" transform="translate(27.037 14.175)">
          <path id="Path_97" data-name="Path 97" d="M132.344,342.766s-.741-.971.344-1.092,5.948,1.178,4.816,6.032c0,0-5.924-.445-6.178-2.462S132.344,342.766,132.344,342.766Z" transform="translate(-131.292 -341.667)" fill="#407bff"/>
          <path id="Path_98" data-name="Path 98" d="M132.344,342.766s-.741-.971.344-1.092,5.948,1.178,4.816,6.032c0,0-5.924-.445-6.178-2.462S132.344,342.766,132.344,342.766Z" transform="translate(-131.292 -341.667)" opacity="0.2" style="mix-blend-mode: normal;isolation: isolate"/>
        </g>
        <path id="Path_99" data-name="Path 99" d="M100.6,405.286H119.75l2.546-18.625H98.051Z" transform="translate(-91.608 -344.61)" fill="#263238"/>
        <path id="Path_100" data-name="Path 100" d="M100.6,405.286H119.75l2.546-18.625H98.051Z" transform="translate(-91.608 -344.61)" fill="#fff" opacity="0.2" style="mix-blend-mode: normal;isolation: isolate"/>
        <path id="Path_101" data-name="Path 101" d="M123.075,384.224v1.769a2.144,2.144,0,0,1-2.144,2.144h-25a2.144,2.144,0,0,1-2.144-2.144v-1.769Z" transform="translate(-89.987 -343.683)" fill="#263238"/>
      </g>
    </g>
    <g id="Speech_bubble" data-name="Speech bubble" transform="translate(197.682 82.431)">
      <g id="Group_42" data-name="Group 42">
        <g id="Group_38" data-name="Group 38">
          <path id="Path_102" data-name="Path 102" d="M384.325,99.306h-17.8a5.48,5.48,0,0,0-5.48,5.48v15.49a5.48,5.48,0,0,0,5.48,5.48h5.2l-1.256,4.891,4.943-4.891h8.916a5.48,5.48,0,0,0,5.48-5.48v-15.49A5.48,5.48,0,0,0,384.325,99.306Z" transform="translate(-361.047 -99.306)" fill="#407bff"/>
          <path id="Path_103" data-name="Path 103" d="M384.325,99.306h-17.8a5.48,5.48,0,0,0-5.48,5.48v15.49a5.48,5.48,0,0,0,5.48,5.48h5.2l-1.256,4.891,4.943-4.891h8.916a5.48,5.48,0,0,0,5.48-5.48v-15.49A5.48,5.48,0,0,0,384.325,99.306Z" transform="translate(-361.047 -99.306)" fill="#fff" opacity="0.7"/>
        </g>
        <g id="Group_41" data-name="Group 41" transform="translate(1.887 0.666)">
          <g id="Group_39" data-name="Group 39" transform="translate(0 0)" style="mix-blend-mode: normal;isolation: isolate">
            <circle id="Ellipse_1" data-name="Ellipse 1" cx="8.833" cy="8.833" r="8.833" transform="translate(0 12.492) rotate(-45)" fill="#407bff"/>
          </g>
          <g id="Group_40" data-name="Group 40" transform="translate(7.288 8.546)">
            <path id="Path_104" data-name="Path 104" d="M380.133,122.068a.813.813,0,0,1-.619-.286l-3.466-4.084a.812.812,0,0,1,1.238-1.05L380.133,120l4.7-5.539a.812.812,0,1,1,1.238,1.05l-5.321,6.268A.812.812,0,0,1,380.133,122.068Z" transform="translate(-375.856 -114.176)" fill="#fff"/>
          </g>
        </g>
      </g>
    </g>
  </g>
</svg>
