<svg xmlns="http://www.w3.org/2000/svg" width="455.823" height="322.992" viewBox="0 0 455.823 322.992">
  <g id="Group_174" data-name="Group 174" transform="translate(-96.509 -182.595)">
    <g id="Background_Complete" data-name="Background Complete" transform="translate(96.509 182.595)">
      <g id="Group_23" data-name="Group 23" transform="translate(166.158 28.423)">
        <g id="Group_20" data-name="Group 20" transform="translate(0 0.293)">
          <g id="Group_11" data-name="Group 11">
            <g id="Group_4" data-name="Group 4">
              <g id="Group_1" data-name="Group 1" transform="translate(13.395 0.46)">
                <path id="Path_1" data-name="Path 1" d="M380.272,175.561l-54.165,25.7,98.718,22.918-37.517-47A5.8,5.8,0,0,0,380.272,175.561Z" transform="translate(-326.107 -174.992)" fill="#e0e0e0"/>
              </g>
              <g id="Group_2" data-name="Group 2" transform="translate(0 26.726)">
                <path id="Rectangle_1" data-name="Rectangle 1" d="M.37,0H101.325a.37.37,0,0,1,.37.37V58.343a.886.886,0,0,1-.886.886H.886A.886.886,0,0,1,0,58.343V.37A.37.37,0,0,1,.37,0Z" transform="translate(13.394) rotate(13.07)" fill="#e0e0e0"/>
              </g>
              <g id="Group_3" data-name="Group 3" transform="translate(18.62)">
                <path id="Path_2" data-name="Path 2" d="M417.116,224.218,370.784,239.8l-40.76-33.853,7.19-27.1a5.529,5.529,0,0,1,6.617-4.049l75.038,17.421a5.529,5.529,0,0,1,4.137,6.637Z" transform="translate(-330.024 -174.648)" fill="#fff"/>
              </g>
            </g>
            <g id="Group_5" data-name="Group 5" transform="translate(0.881 60.303)">
              <path id="Path_3" data-name="Path 3" d="M372.293,220.119l-55.449,19.346h0a4.526,4.526,0,0,0,3.384,5.431l90.354,20.964a4.524,4.524,0,0,0,5.431-3.384l.079-.339-38.784-40.8A4.757,4.757,0,0,0,372.293,220.119Z" transform="translate(-316.727 -219.853)" fill="#e0e0e0"/>
            </g>
            <g id="Group_6" data-name="Group 6" transform="translate(32.496 13.251)">
              <rect id="Rectangle_2" data-name="Rectangle 2" width="30.14" height="3.079" transform="translate(0.696 0) rotate(13.063)" fill="#e0e0e0"/>
            </g>
            <g id="Group_7" data-name="Group 7" transform="translate(30.643 20.847)">
              <rect id="Rectangle_3" data-name="Rectangle 3" width="66.87" height="3.476" transform="matrix(0.974, 0.226, -0.226, 0.974, 0.786, 0)" fill="#f5f5f5"/>
            </g>
            <g id="Group_8" data-name="Group 8" transform="translate(28.723 29.123)">
              <rect id="Rectangle_4" data-name="Rectangle 4" width="66.87" height="3.476" transform="matrix(0.974, 0.226, -0.226, 0.974, 0.786, 0)" fill="#f5f5f5"/>
            </g>
            <g id="Group_9" data-name="Group 9" transform="translate(27.59 37.87)">
              <path id="Path_4" data-name="Path 4" d="M400.064,219.747l-2.734.888-55-12.07-5.584-4.719.111-.81L401.788,218.1l-.26,1.122Z" transform="translate(-336.749 -203.036)" fill="#f5f5f5"/>
            </g>
            <g id="Group_10" data-name="Group 10" transform="translate(41.505 50.238)">
              <path id="Path_5" data-name="Path 5" d="M377.718,222.962l-24.635-5.716-5.9-4.938L384,220.851Z" transform="translate(-347.179 -212.308)" fill="#f5f5f5"/>
            </g>
          </g>
          <g id="Group_13" data-name="Group 13" transform="translate(0.605 61.269)">
            <g id="Group_12" data-name="Group 12">
              <path id="Path_6" data-name="Path 6" d="M370.339,220.582a13.655,13.655,0,0,1-2.07.848l-5.731,2.07c-4.85,1.72-11.566,4.049-19,6.582s-14.174,4.79-19.064,6.39l-5.8,1.861a13.709,13.709,0,0,1-2.156.591,13.872,13.872,0,0,1,2.073-.848L324.325,236c4.85-1.718,11.564-4.049,19-6.581s14.166-4.788,19.056-6.387l5.8-1.861A13.753,13.753,0,0,1,370.339,220.582Z" transform="translate(-316.52 -220.576)" fill="#ebebeb"/>
            </g>
          </g>
          <g id="Group_15" data-name="Group 15" transform="translate(63.325 63.82)">
            <g id="Group_14" data-name="Group 14">
              <path id="Path_7" data-name="Path 7" d="M400.457,261.253c-.139.132-8.516-8.439-18.709-19.141s-18.348-19.49-18.209-19.622,8.515,8.436,18.712,19.143S400.6,261.121,400.457,261.253Z" transform="translate(-363.537 -222.489)" fill="#ebebeb"/>
            </g>
          </g>
          <g id="Group_17" data-name="Group 17" transform="translate(63.726 48.806)">
            <g id="Group_16" data-name="Group 16">
              <path id="Path_8" data-name="Path 8" d="M408.036,211.241a9.317,9.317,0,0,1-1.677.758c-1.1.446-2.691,1.066-4.669,1.813-3.955,1.494-9.447,3.488-15.55,5.579s-11.668,3.881-15.71,5.12c-2.022.62-3.663,1.106-4.8,1.423a9.461,9.461,0,0,1-1.79.427,9.289,9.289,0,0,1,1.709-.684l4.732-1.633,15.637-5.311,15.609-5.383,4.742-1.6A9.267,9.267,0,0,1,408.036,211.241Z" transform="translate(-363.837 -211.234)" fill="#ebebeb"/>
            </g>
          </g>
          <g id="Group_19" data-name="Group 19" transform="translate(13.393 26.724)">
            <g id="Group_18" data-name="Group 18">
              <path id="Path_9" data-name="Path 9" d="M367.137,229.232a12.331,12.331,0,0,1-1.667-1.3l-4.413-3.681L346.4,212.227c-5.736-4.688-10.887-8.988-14.535-12.2-1.825-1.6-3.286-2.917-4.271-3.851a12.2,12.2,0,0,1-1.489-1.5,12.327,12.327,0,0,1,1.667,1.3l4.413,3.681,14.655,12.031c5.735,4.685,10.884,8.986,14.533,12.193,1.826,1.6,3.286,2.917,4.273,3.851A12.206,12.206,0,0,1,367.137,229.232Z" transform="translate(-326.106 -194.681)" fill="#ebebeb"/>
            </g>
          </g>
        </g>
        <g id="Group_22" data-name="Group 22" transform="translate(18.617 0)">
          <g id="Group_21" data-name="Group 21">
            <path id="Path_10" data-name="Path 10" d="M417.117,224.291a1.517,1.517,0,0,1,.052-.38c.057-.287.129-.651.22-1.1.22-1.017.526-2.431.915-4.227.835-3.714,2.024-9,3.488-15.514.185-.818.376-1.657.571-2.512a19.643,19.643,0,0,0,.506-2.595,5.254,5.254,0,0,0-2.325-4.632,7.022,7.022,0,0,0-2.712-.978l-3.028-.7-6.322-1.453-28.137-6.5-28.131-6.559-6.315-1.481a27.218,27.218,0,0,0-2.989-.624,5.175,5.175,0,0,0-2.755.575,5.235,5.235,0,0,0-2.013,1.841,8.339,8.339,0,0,0-.935,2.537q-.714,2.651-1.373,5.087c-1.756,6.442-3.182,11.67-4.183,15.342-.5,1.77-.89,3.163-1.171,4.162-.132.443-.239.8-.323,1.078a1.558,1.558,0,0,1-.132.362,1.583,1.583,0,0,1,.064-.379c.067-.285.151-.646.255-1.1.251-1.008.6-2.412,1.046-4.2.95-3.686,2.3-8.934,3.97-15.4q.634-2.437,1.329-5.1a8.844,8.844,0,0,1,.983-2.7,5.82,5.82,0,0,1,5.276-2.712,26.785,26.785,0,0,1,3.091.623l6.322,1.453,28.143,6.5,28.125,6.558,6.314,1.481,3.025.711a7.6,7.6,0,0,1,2.9,1.078,5.807,5.807,0,0,1,2.539,5.14,19.765,19.765,0,0,1-.539,2.681q-.3,1.281-.595,2.507c-1.554,6.493-2.816,11.763-3.7,15.465-.443,1.785-.791,3.19-1.041,4.2-.119.447-.213.806-.288,1.089A1.546,1.546,0,0,1,417.117,224.291Z" transform="translate(-330.022 -174.428)" fill="#e0e0e0"/>
          </g>
        </g>
      </g>
      <g id="Group_31" data-name="Group 31" transform="translate(0 72.174)">
        <g id="Group_24" data-name="Group 24" transform="translate(0 0)">
          <path id="Path_11" data-name="Path 11" d="M299.509,96.96l92.38-17.178,13.8,62.428-95.939,16.2Z" transform="translate(-299.509 -79.782)" fill="#ebebeb"/>
        </g>
        <g id="Group_26" data-name="Group 26">
          <g id="Group_25" data-name="Group 25">
            <path id="Path_12" data-name="Path 12" d="M391.889,79.782a1.062,1.062,0,0,1-.159.261l-.522.724-2.058,2.749c-1.849,2.42-4.464,5.839-7.685,10.053l-25.7,33.2-.177.231-.259-.136c-.566-.3-1.177-.622-1.789-.946l-38.274-20.35L303.7,99.332,300.578,97.6l-.806-.464a1.1,1.1,0,0,1-.263-.18,1.084,1.084,0,0,1,.3.117c.227.108.5.241.838.4l3.187,1.611,11.664,6.043c9.866,5.185,23.406,12.3,38.368,20.169l1.789.946-.436.095,25.869-33.07c3.294-4.158,5.967-7.533,7.857-9.921q1.365-1.685,2.16-2.669l.574-.683C391.808,79.849,391.88,79.775,391.889,79.782Z" transform="translate(-299.509 -79.782)" fill="#e0e0e0"/>
          </g>
        </g>
        <g id="Group_28" data-name="Group 28" transform="translate(10.239 36.931)">
          <g id="Group_27" data-name="Group 27">
            <path id="Path_13" data-name="Path 13" d="M307.188,149.168c-.161-.1,5.78-9.525,13.268-21.038s13.692-20.766,13.852-20.662-5.779,9.523-13.269,21.041S307.348,149.272,307.188,149.168Z" transform="translate(-307.185 -107.466)" fill="#e0e0e0"/>
          </g>
        </g>
        <g id="Group_30" data-name="Group 30" transform="translate(68.013 32.333)">
          <g id="Group_29" data-name="Group 29">
            <path id="Path_14" data-name="Path 14" d="M388.661,134.115c-.119.151-8.759-6.465-19.3-14.774s-18.988-15.169-18.869-15.32,8.758,6.463,19.3,14.774S388.78,133.964,388.661,134.115Z" transform="translate(-350.493 -104.019)" fill="#e0e0e0"/>
          </g>
        </g>
      </g>
      <g id="Group_39" data-name="Group 39" transform="translate(361.671 0)">
        <g id="Group_32" data-name="Group 32" transform="translate(0.001 0.001)">
          <path id="Path_15" data-name="Path 15" d="M413.229,125.021l61.262,14.844-8.689,42-63.173-16.417Z" transform="translate(-402.629 -125.021)" fill="#f5f5f5"/>
        </g>
        <g id="Group_34" data-name="Group 34" transform="translate(10.6 0)">
          <g id="Group_33" data-name="Group 33">
            <path id="Path_16" data-name="Path 16" d="M471.838,139.866a3.718,3.718,0,0,1-.678.436c-.52.3-1.185.672-2,1.137l-7.448,4.075-24.828,13.3-.257.137-.18-.231c-.264-.339-.55-.7-.835-1.07l-17.815-22.982c-2.212-2.909-4.022-5.288-5.336-7.014l-1.422-1.929a3.751,3.751,0,0,1-.459-.7,3.826,3.826,0,0,1,.568.616l1.526,1.848,5.511,6.878,17.974,22.858c.287.366.571.731.836,1.07l-.436-.093,24.927-13.11,7.55-3.883,2.064-1.023A3.489,3.489,0,0,1,471.838,139.866Z" transform="translate(-410.574 -125.02)" fill="#e0e0e0"/>
          </g>
        </g>
        <g id="Group_36" data-name="Group 36" transform="translate(0 22.343)">
          <g id="Group_35" data-name="Group 35">
            <path id="Path_17" data-name="Path 17" d="M402.629,159.855c-.1-.161,6.091-4.339,13.835-9.331s14.108-8.91,14.212-8.75-6.09,4.339-13.836,9.333S402.733,160.017,402.629,159.855Z" transform="translate(-402.628 -141.769)" fill="#e0e0e0"/>
          </g>
        </g>
        <g id="Group_38" data-name="Group 38" transform="translate(48.065 27.947)">
          <g id="Group_37" data-name="Group 37">
            <path id="Path_18" data-name="Path 18" d="M453.768,174.869c-.171.088-3.688-6.308-7.859-14.287s-7.413-14.522-7.244-14.611,3.688,6.307,7.86,14.288S453.937,174.78,453.768,174.869Z" transform="translate(-438.659 -145.97)" fill="#e0e0e0"/>
          </g>
        </g>
      </g>
    </g>
    <g id="Plant" transform="translate(426.991 326.71)">
      <g id="Group_61" data-name="Group 61">
        <g id="Group_44" data-name="Group 44">
          <g id="Group_43" data-name="Group 43">
            <g id="Group_42" data-name="Group 42">
              <g id="Group_41" data-name="Group 41">
                <path id="Path_20" data-name="Path 20" d="M369,444.073s.506.167,1.478.527,2.431.864,4.375,1.414a51.848,51.848,0,0,0,17.493,1.78,70.68,70.68,0,0,0,12.585-2.037,79.442,79.442,0,0,0,14.318-4.989,87.528,87.528,0,0,0,29.181-22.3,26.979,26.979,0,0,0,5.337-8.911,13.942,13.942,0,0,0-.5-10.53,10.344,10.344,0,0,0-3.723-4.006,13.39,13.39,0,0,0-5.323-1.85,21.178,21.178,0,0,0-11.46,1.869,40.644,40.644,0,0,1-5.8,2.056,11.224,11.224,0,0,1-6.29-.159,6.69,6.69,0,0,1-4.538-4.419,7.838,7.838,0,0,1,1.253-6.343,11.963,11.963,0,0,1,5.086-4.179,48.556,48.556,0,0,1,6.239-2.252,83.812,83.812,0,0,0,24.065-12.311,27.4,27.4,0,0,0,5.156-4.616,9.833,9.833,0,0,0,2.628-6.18,6.1,6.1,0,0,0-.97-3.2A7.619,7.619,0,0,0,457.1,351.1a15.675,15.675,0,0,0-6.773-1.9,39.822,39.822,0,0,1-7.3-.994,8.176,8.176,0,0,1-5.657-4.8,4.385,4.385,0,0,1,.479-3.854A9.614,9.614,0,0,1,440.724,337c2.086-1.361,4.131-2.787,6.123-4.307a98.291,98.291,0,0,0,11.287-10.084c3.468-3.7,6.993-7.54,9.167-12.181a15.255,15.255,0,0,0,1.565-7.374,11.262,11.262,0,0,0-2.888-6.882,14.984,14.984,0,0,0-13.892-4.564c-5.033.914-9.478,3.871-12.957,7.494-7.037,7.4-10.5,17.17-16.267,25.268a41.616,41.616,0,0,1-4.784,5.693,13.324,13.324,0,0,1-2.941,2.328,3.822,3.822,0,0,1-3.809.137,4.748,4.748,0,0,1-2-3.231,13.392,13.392,0,0,1-.028-3.693,10.173,10.173,0,0,0-.139-3.466,6.253,6.253,0,0,0-1.681-2.908,8.657,8.657,0,0,0-6.184-2.441,9.813,9.813,0,0,0-6.114,2.625,15.389,15.389,0,0,0-3.875,5.515,25.1,25.1,0,0,0-1.642,6.546c-.283,2.237-.37,4.486-.444,6.727s-.148,4.469-.221,6.682q-.218,6.637-.432,13.094c-.08,2.154-.121,4.279-.233,6.415a20.665,20.665,0,0,1-1.2,6.267,7.368,7.368,0,0,1-4.362,4.49,9.1,9.1,0,0,1-6.174-.4,24.554,24.554,0,0,1-9.518-7.2,26.211,26.211,0,0,1-3.176-4.905,50.541,50.541,0,0,0-2.627-5,7.92,7.92,0,0,0-4.047-3.4,7.287,7.287,0,0,0-5.137.366,10.332,10.332,0,0,0-4.061,3.167,11.853,11.853,0,0,0-2.086,4.618c-.739,3.318-.6,6.71-.874,9.972-.224,3.258-.332,6.435-.375,9.526A120.259,120.259,0,0,0,345.75,399.3a85.321,85.321,0,0,0,3.231,14.818c.618,2.254,1.529,4.3,2.254,6.3.416.978.878,1.909,1.3,2.829a29.116,29.116,0,0,0,1.313,2.648,56.225,56.225,0,0,0,10.535,14.09,19.884,19.884,0,0,0,1.969,1.8l1.47,1.251c.787.674,1.181,1.034,1.181,1.034s-.422-.321-1.226-.978l-1.494-1.227a19.45,19.45,0,0,1-2-1.776,55.524,55.524,0,0,1-10.676-14.064,29.4,29.4,0,0,1-1.331-2.651c-.426-.923-.894-1.857-1.318-2.837-.738-2.005-1.662-4.058-2.292-6.318a85.3,85.3,0,0,1-3.3-14.865,120.182,120.182,0,0,1-1.114-17.469c.035-3.1.133-6.289.351-9.555.271-3.244.111-6.63.862-10.049a12.323,12.323,0,0,1,2.165-4.816,10.85,10.85,0,0,1,4.257-3.334,7.8,7.8,0,0,1,5.5-.391,8.444,8.444,0,0,1,4.33,3.6,50.5,50.5,0,0,1,2.667,5.049,25.689,25.689,0,0,0,3.119,4.8,24.036,24.036,0,0,0,9.293,7.018,8.536,8.536,0,0,0,5.778.385,6.768,6.768,0,0,0,4-4.157c1.474-3.849,1.151-8.207,1.378-12.482q.206-6.455.418-13.094.106-3.32.213-6.683c.073-2.242.157-4.512.443-6.786a25.692,25.692,0,0,1,1.682-6.718,16.019,16.019,0,0,1,4.038-5.751,10.461,10.461,0,0,1,6.53-2.795,9.3,9.3,0,0,1,6.671,2.632,6.923,6.923,0,0,1,1.856,3.21,10.828,10.828,0,0,1,.16,3.682,12.812,12.812,0,0,0,.019,3.51,4.1,4.1,0,0,0,1.686,2.785,3.158,3.158,0,0,0,3.151-.156,12.788,12.788,0,0,0,2.781-2.216,41,41,0,0,0,4.7-5.6,144.3,144.3,0,0,0,7.613-12.833,60.944,60.944,0,0,1,8.71-12.522,25.172,25.172,0,0,1,13.333-7.7,15.674,15.674,0,0,1,14.534,4.785,11.971,11.971,0,0,1,3.063,7.3,15.94,15.94,0,0,1-1.629,7.708c-2.248,4.785-5.811,8.651-9.3,12.369a98.815,98.815,0,0,1-11.37,10.152c-2,1.53-4.071,2.971-6.163,4.333a9.026,9.026,0,0,0-2.68,2.356,3.7,3.7,0,0,0-.4,3.262,7.519,7.519,0,0,0,5.2,4.37,39.411,39.411,0,0,0,7.173.974,16.31,16.31,0,0,1,7.053,2,8.314,8.314,0,0,1,2.708,2.541,6.763,6.763,0,0,1,1.073,3.552,10.464,10.464,0,0,1-2.784,6.611,28.03,28.03,0,0,1-5.276,4.721A84.469,84.469,0,0,1,428.9,380.336a48.081,48.081,0,0,0-6.162,2.213,11.347,11.347,0,0,0-4.844,3.957,7.235,7.235,0,0,0-1.183,5.844,6.091,6.091,0,0,0,4.147,4.022,10.653,10.653,0,0,0,5.966.151,40.45,40.45,0,0,0,5.716-2.02,21.716,21.716,0,0,1,11.754-1.886,13.922,13.922,0,0,1,5.533,1.938,10.884,10.884,0,0,1,3.911,4.223,14.465,14.465,0,0,1,.514,10.935,27.467,27.467,0,0,1-5.452,9.07,87.756,87.756,0,0,1-29.393,22.338,79.509,79.509,0,0,1-14.4,4.957,70.476,70.476,0,0,1-12.649,1.985,51.275,51.275,0,0,1-17.547-1.914c-1.942-.574-3.4-1.087-4.362-1.482S369,444.073,369,444.073Z" transform="translate(-344.248 -290.628)" fill="#263238"/>
              </g>
            </g>
          </g>
        </g>
        <g id="Group_60" data-name="Group 60" transform="translate(7.355 4.34)">
          <g id="Group_47" data-name="Group 47" transform="translate(24.851)">
            <g id="Group_46" data-name="Group 46">
              <g id="Group_45" data-name="Group 45">
                <path id="Path_21" data-name="Path 21" d="M368.39,426.7a393.1,393.1,0,0,1,17.222-41.67q2.571-5.413,5.076-10.691c1.674-3.5,3.334-6.981,5.168-10.28a196.155,196.155,0,0,1,11.622-18.356c3.979-5.66,7.961-10.885,11.72-15.744s7.372-9.311,10.827-13.233a155.493,155.493,0,0,1,17.662-17.277c2.237-1.87,4.019-3.264,5.241-4.191.587-.442,1.049-.787,1.4-1.047a3.167,3.167,0,0,1,.491-.333,3.026,3.026,0,0,1-.44.4c-.335.275-.78.642-1.346,1.109-1.187.97-2.937,2.4-5.141,4.306a164.529,164.529,0,0,0-17.437,17.417c-3.418,3.935-6.983,8.4-10.725,13.267s-7.69,10.106-11.643,15.762a198.428,198.428,0,0,0-11.536,18.309c-1.818,3.284-3.46,6.731-5.136,10.245s-3.358,7.079-5.069,10.687a402.582,402.582,0,0,0-17.249,41.563" transform="translate(-368.39 -293.881)" fill="#263238"/>
              </g>
            </g>
          </g>
          <g id="Group_50" data-name="Group 50" transform="translate(47.997 21.704)">
            <g id="Group_49" data-name="Group 49">
              <g id="Group_48" data-name="Group 48">
                <path id="Path_22" data-name="Path 22" d="M390.291,358.607a8.9,8.9,0,0,1-.355-1.885c-.184-1.221-.391-2.993-.614-5.188-.451-4.386-.867-10.467-1.3-17.17s-.934-12.764-1.45-17.131c-.252-2.185-.474-3.951-.642-5.171a8.793,8.793,0,0,1-.172-1.912,8.774,8.774,0,0,1,.48,1.858c.264,1.2.574,2.964.9,5.147.663,4.363,1.257,10.438,1.689,17.152.411,6.617.782,12.6,1.065,17.176.14,2.065.261,3.806.358,5.2A8.738,8.738,0,0,1,390.291,358.607Z" transform="translate(-385.741 -310.151)" fill="#263238"/>
              </g>
            </g>
          </g>
          <g id="Group_53" data-name="Group 53" transform="translate(52.547 61.665)">
            <g id="Group_52" data-name="Group 52">
              <g id="Group_51" data-name="Group 51">
                <path id="Path_23" data-name="Path 23" d="M445.9,340.255a12.209,12.209,0,0,1-2.258.181c-1.45.073-3.55.167-6.139.365-5.181.358-12.322,1.1-20.163,2.268-6.957,1.046-13.713,2.284-19.964,3.687-2.541.551-4.585,1.053-6,1.391a12.169,12.169,0,0,1-2.22.454,12.2,12.2,0,0,1,2.138-.762c1.393-.431,3.422-1.019,5.952-1.645,5.053-1.286,12.111-2.749,19.978-3.935a198.857,198.857,0,0,1,20.247-2.033c2.6-.127,4.712-.133,6.168-.107A11.93,11.93,0,0,1,445.9,340.255Z" transform="translate(-389.152 -340.107)" fill="#263238"/>
              </g>
            </g>
          </g>
          <g id="Group_56" data-name="Group 56" transform="translate(0 58.762)">
            <g id="Group_55" data-name="Group 55">
              <g id="Group_54" data-name="Group 54">
                <path id="Path_24" data-name="Path 24" d="M375.344,410.982a2.926,2.926,0,0,1-.359-.7c-.24-.562-.532-1.246-.886-2.076-.759-1.8-1.792-4.448-3.023-7.726-2.468-6.559-5.592-15.728-8.9-25.89s-6.347-19.351-8.675-25.952c-1.142-3.21-2.082-5.85-2.78-7.812l-.744-2.129a2.874,2.874,0,0,1-.208-.764,2.993,2.993,0,0,1,.359.7c.24.56.531,1.243.884,2.073.76,1.806,1.793,4.448,3.024,7.728,2.468,6.559,5.592,15.726,8.9,25.894s7.674,20.82,10,27.423c1.143,3.207.754,4.374,1.453,6.335.3.851.543,1.555.744,2.13A2.906,2.906,0,0,1,375.344,410.982Z" transform="translate(-349.761 -337.931)" fill="#263238"/>
              </g>
            </g>
          </g>
          <g id="Group_59" data-name="Group 59" transform="translate(25.583 110.575)">
            <g id="Group_58" data-name="Group 58">
              <g id="Group_57" data-name="Group 57">
                <path id="Path_25" data-name="Path 25" d="M444.736,376.78a3,3,0,0,1-.755.277l-2.2.644-8.117,2.288c-6.854,1.933-16.289,4.712-26.711,7.8-9.758,2.889-18.827,5.5-26.79,7.572-3.448.9-6.244,1.6-8.187,2.037-.9.2-1.638.363-2.24.5a2.93,2.93,0,0,1-.8.117,3.164,3.164,0,0,1,.755-.279c.591-.172,1.319-.384,2.2-.643l8.116-2.288c6.854-1.932,16.291-4.712,26.715-7.8s19.891-5.779,26.787-7.57c3.448-.9,6.244-1.594,8.188-2.037l2.24-.5A2.966,2.966,0,0,1,444.736,376.78Z" transform="translate(-368.939 -376.772)" fill="#263238"/>
              </g>
            </g>
          </g>
        </g>
      </g>
    </g>
    <g id="Character" transform="translate(106.016 319.516)">
      <g id="Group_123" data-name="Group 123">
        <g id="Group_116" data-name="Group 116" transform="translate(0 47.822)">
          <g id="Group_111" data-name="Group 111">
            <g id="Group_108" data-name="Group 108">
              <g id="Group_103" data-name="Group 103" transform="translate(116.868 0)">
                <path id="Path_47" data-name="Path 47" d="M191.243,457.039H428.87V355.517a34.433,34.433,0,0,0-34.434-34.433H225.676a34.432,34.432,0,0,0-34.433,34.433Z" transform="translate(-191.243 -321.084)" fill="#e0e0e0"/>
              </g>
              <g id="Group_104" data-name="Group 104" transform="translate(116.868)">
                <path id="Rectangle_5" data-name="Rectangle 5" d="M23.088,0H72.043A10.455,10.455,0,0,1,82.5,10.455V134.621a1.334,1.334,0,0,1-1.334,1.334H1.334A1.334,1.334,0,0,1,0,134.621V23.088A23.088,23.088,0,0,1,23.088,0Z" fill="#455a64"/>
              </g>
              <g id="Group_105" data-name="Group 105" transform="translate(115.538 0)">
                <path id="Path_48" data-name="Path 48" d="M209.1,457.039V355.37a34.286,34.286,0,0,1,34.286-34.286H218.939s-28.693,3.814-28.693,39.726.924,96.229.924,96.229Z" transform="translate(-190.246 -321.084)" fill="#263238"/>
              </g>
              <g id="Group_106" data-name="Group 106" transform="translate(0 126.297)">
                <rect id="Rectangle_6" data-name="Rectangle 6" width="199.366" height="11.315" fill="#263238"/>
              </g>
              <g id="Group_107" data-name="Group 107" transform="translate(199.366 126.297)">
                <rect id="Rectangle_7" data-name="Rectangle 7" width="162.876" height="11.315" fill="#455a64"/>
              </g>
            </g>
            <g id="Group_110" data-name="Group 110" transform="translate(159.447 0.025)">
              <g id="Group_109" data-name="Group 109">
                <path id="Path_49" data-name="Path 49" d="M263.08,453.032a1.8,1.8,0,0,1-.032-.407c-.007-.307-.016-.7-.027-1.19-.008-1.1-.019-2.627-.032-4.577,0-4.023.005-9.759.009-16.828.076-14.251.18-33.859.295-55.517.059-5.421.173-10.709-.152-15.794a57.3,57.3,0,0,0-2.563-14.387,31.9,31.9,0,0,0-15.3-18.672,33.869,33.869,0,0,0-15.991-4.283,22.1,22.1,0,0,0-2.627.073,14.891,14.891,0,0,0-1.918.187l-1.179.153a1.8,1.8,0,0,1-.407.029,1.7,1.7,0,0,1,.394-.1l1.171-.223a13.673,13.673,0,0,1,1.922-.253,21.02,21.02,0,0,1,2.645-.139,33.5,33.5,0,0,1,16.225,4.123,32.266,32.266,0,0,1,15.668,18.9,57.6,57.6,0,0,1,2.633,14.546c.337,5.122.227,10.43.168,15.849-.195,21.657-.371,41.264-.5,55.514-.1,7.068-.175,12.8-.229,16.826-.043,1.948-.075,3.479-.1,4.574l-.043,1.189A1.743,1.743,0,0,1,263.08,453.032Z" transform="translate(-223.162 -321.103)" fill="#263238"/>
              </g>
            </g>
          </g>
          <g id="Group_113" data-name="Group 113" transform="translate(195.391 125.783)">
            <g id="Group_112" data-name="Group 112">
              <path id="Path_50" data-name="Path 50" d="M415.844,415.609c0,.192-37.1.411-82.865.487s-82.873-.016-82.873-.207,37.1-.411,82.872-.487S415.844,415.418,415.844,415.609Z" transform="translate(-250.106 -415.375)" fill="#263238"/>
            </g>
          </g>
          <g id="Group_115" data-name="Group 115" transform="translate(196.59 137.422)">
            <g id="Group_114" data-name="Group 114">
              <path id="Path_51" data-name="Path 51" d="M415.542,424.738c0,.191-36.837.247-82.266.123s-82.271-.38-82.271-.571,36.829-.248,82.274-.124C378.707,424.29,415.542,424.546,415.542,424.738Z" transform="translate(-251.005 -424.099)" fill="#263238"/>
            </g>
          </g>
        </g>
        <g id="Group_120" data-name="Group 120" transform="translate(232.694 133.454)">
          <g id="Group_118" data-name="Group 118">
            <g id="Group_117" data-name="Group 117">
              <path id="Path_52" data-name="Path 52" d="M385.061,413.03a4.834,4.834,0,0,1-.02-.486c-.005-.34-.013-.8-.023-1.394-.012-1.249-.028-3.047-.051-5.373-.027-4.693-.065-11.508-.116-20.121l.209.209L278.423,386c.153-.155-.351.347.341-.347v6.99q0,3.478,0,6.9,0,6.851-.005,13.48l-.34-.34,76.042.155,22.424.1,6.051.044,1.577.023c.356.007.55.021.55.021a3.988,3.988,0,0,1-.507.023l-1.534.021-5.978.045-22.346.1c-19.1.037-45.8.092-76.279.153h-.34v-.342q0-6.621-.005-13.48,0-3.426,0-6.9v-6.99c.7-.7.2-.192.353-.347l106.638.137h.211v.209c-.049,8.666-.089,15.522-.116,20.245-.021,2.307-.039,4.089-.051,5.327-.009.579-.016,1.026-.021,1.357A3.264,3.264,0,0,1,385.061,413.03Z" transform="translate(-278.07 -385.276)" fill="#263238"/>
            </g>
          </g>
          <g id="Group_119" data-name="Group 119" transform="translate(34.132 7.429)">
            <path id="Path_53" data-name="Path 53" d="M316.293,390.845v12.169H315.06V393.28l-4.781,8.187h-.608l-4.78-8.135v9.682h-1.235V390.845h1.06L310,399.868l5.232-9.023Z" transform="translate(-303.656 -390.845)" fill="#263238"/>
            <path id="Path_54" data-name="Path 54" d="M324.218,399.764h-6.779l-1.461,3.25H314.64l5.563-12.169h1.269l5.563,12.169h-1.355Zm-.47-1.045-2.92-6.535-2.921,6.535Z" transform="translate(-299.987 -390.845)" fill="#263238"/>
            <path id="Path_55" data-name="Path 55" d="M325.441,390.845h1.287v12.169h-1.287Z" transform="translate(-296.38 -390.845)" fill="#263238"/>
            <path id="Path_56" data-name="Path 56" d="M329.376,390.845h1.286V401.9h6.814v1.113h-8.1Z" transform="translate(-295.066 -390.845)" fill="#263238"/>
          </g>
        </g>
        <g id="Group_121" data-name="Group 121" transform="translate(280.805)">
          <path id="Path_57" data-name="Path 57" d="M359.288,305.224V285.235H321.919v80.237a15.836,15.836,0,1,0,15.353-.431V305.224Z" transform="translate(-314.135 -285.235)" fill="#005380"/>
        </g>
        <g id="Group_122" data-name="Group 122" transform="translate(290.973 87.49)">
          <circle id="Ellipse_1" data-name="Ellipse 1" cx="6.116" cy="6.116" r="6.116" fill="#263238"/>
        </g>
      </g>
      <g id="Group_131" data-name="Group 131" transform="translate(181.117 104.94)">
        <g id="Group_126" data-name="Group 126" transform="translate(0.004)">
          <path id="Path_59" data-name="Path 59" d="M239.409,364.142l18.207-.241-.706,61.855-16.9.674Z" transform="translate(-239.409 -363.901)" fill="#ebebeb"/>
        </g>
        <g id="Group_128" data-name="Group 128" transform="translate(0.597 44.544)">
          <g id="Group_127" data-name="Group 127">
            <path id="Path_60" data-name="Path 60" d="M239.858,415.278c-.14-.131,3.475-4.262,8.075-9.227s8.444-8.884,8.586-8.755-3.474,4.261-8.076,9.227S240,415.407,239.858,415.278Z" transform="translate(-239.854 -397.293)" fill="#263238"/>
          </g>
        </g>
        <g id="Group_130" data-name="Group 130" transform="translate(0 0.584)">
          <g id="Group_129" data-name="Group 129">
            <path id="Path_61" data-name="Path 61" d="M257.618,384.586c-.143.128-4.334-4.3-9.362-9.889s-8.988-10.226-8.846-10.356,4.334,4.3,9.362,9.89S257.76,384.458,257.618,384.586Z" transform="translate(-239.406 -364.339)" fill="#263238"/>
          </g>
        </g>
      </g>
      <g id="Group_173" data-name="Group 173" transform="translate(82.21 87.059)">
        <g id="Group_167" data-name="Group 167">
          <g id="Group_160" data-name="Group 160" transform="translate(0 0.001)">
            <path id="Path_76" data-name="Path 76" d="M165.263,367.676l92.38-17.178,13.8,62.428-95.938,16.2Z" transform="translate(-165.263 -350.497)" fill="#e0e0e0"/>
          </g>
          <g id="Group_162" data-name="Group 162">
            <g id="Group_161" data-name="Group 161">
              <path id="Path_77" data-name="Path 77" d="M257.643,350.5a1.02,1.02,0,0,1-.16.261l-.52.724-2.058,2.749-7.685,10.053-25.7,33.2-.179.229-.257-.136-1.79-.946-38.272-20.35-11.562-6.236-3.127-1.728-.8-.464a.16.16,0,1,1,.033-.063l.838.4q1.171.59,3.187,1.611c2.809,1.455,6.781,3.511,11.664,6.042l38.368,20.17c.612.323,1.223.646,1.789.946l-.436.093,25.869-33.07,7.857-9.92q1.365-1.687,2.158-2.671l.575-.683C257.561,350.564,257.634,350.49,257.643,350.5Z" transform="translate(-165.263 -350.497)" fill="#263238"/>
            </g>
          </g>
          <g id="Group_164" data-name="Group 164" transform="translate(10.239 36.931)">
            <g id="Group_163" data-name="Group 163">
              <path id="Path_78" data-name="Path 78" d="M172.942,419.883c-.161-.1,5.78-9.525,13.268-21.038s13.691-20.766,13.852-20.662-5.779,9.523-13.269,21.041S173.1,419.988,172.942,419.883Z" transform="translate(-172.939 -378.181)" fill="#263238"/>
            </g>
          </g>
          <g id="Group_166" data-name="Group 166" transform="translate(68.013 32.332)">
            <g id="Group_165" data-name="Group 165">
              <path id="Path_79" data-name="Path 79" d="M254.415,404.83c-.119.151-8.76-6.465-19.3-14.773s-18.988-15.17-18.869-15.321,8.758,6.463,19.3,14.775S254.534,404.681,254.415,404.83Z" transform="translate(-216.247 -374.734)" fill="#263238"/>
            </g>
          </g>
        </g>
      </g>
    </g>
  </g>
</svg>
