<svg xmlns="http://www.w3.org/2000/svg" width="328.439" height="210.059" viewBox="0 0 328.439 210.059">
  <g id="Group_38410" data-name="Group 38410" transform="translate(-184.864 -145)">
    <path id="Path_1" data-name="Path 1" d="M241.052,354.681s-39.861-38.689-14.5-84.207,59.418-22.627,57.77-75.607,78.329-57.531,103.787-42.169,25.3,33.863,77.858,27.742,62.594,44.908,48.921,70.915c-19.4,36.9,53.84,30.814,7.691,103.327Z" transform="translate(-29.03)" fill="#ebf2f7"/>
    <g id="Group_1" data-name="Group 1" transform="translate(386.27 216.167)">
      <path id="Path_2" data-name="Path 2" d="M1779.87,806.265s8.47-35.9,37.042-39.845c0,0,5.559-.683,7.41,5.439s-9.2,6.166-16.034,8.628S1785.528,793.388,1779.87,806.265Z" transform="translate(-1779.075 -758.789)" fill="#005380" opacity="0.2"/>
      <path id="Path_3" data-name="Path 3" d="M1773.744,747.137s-2.971-29.735,17.88-40.288a5.707,5.707,0,0,1,7.111,2.214c3.031,4.2-5.426,7.148-10.011,10.835S1774.685,735.78,1773.744,747.137Z" transform="translate(-1773.598 -706.379)" fill="#005380" opacity="0.2"/>
    </g>
    <rect id="Rectangle_2" data-name="Rectangle 2" width="328.439" height="0.902" rx="0.451" transform="translate(184.864 354.156)" fill="#2e3552"/>
    <path id="Path_4" data-name="Path 4" d="M553.4,1354.784c-4.411-10.051,11.59-18.688,11.59-18.688s21.085,6.825,24.112,4.953-16.888-9.355-16.888-9.355c4.914-4.808,23.755-9.214,23.755-9.214s12.709,17.539,15.183,14.979S599.1,1322.5,599.1,1322.5c6.4-2.606,16.062-.467,16.062-.467,13.909,4.953,6.831,22.557,6.831,22.557a35.216,35.216,0,0,0,13.545,9.78h0a25.529,25.529,0,0,1,4.334,2.019l-1.406,1.132q-.628-.427-1.261-.784a.01.01,0,0,0-.008,0l-.018-.01c-.271-.14-.659-.337-1.135-.575h0c-1.107-.495-1.9-.882-2.442-1.183l0,0c-3.413-1.6-8.037-3.549-9.855-3.274a3.494,3.494,0,0,0-.218-.887l.218.887c1.747,7.1-9.594,17.647-17.406,21.672s-6.413-.22-5.274-6.2,9.353-11.26,10.619-14.263-2.97-1.576-7.162,2.368-2.827,10.213-9.493,16.716-23.105-2.646-23.105-2.646c6.231-2.468,12.955-12.419,11.914-14.415s-14.139,8.837-16.617,9.983S557.808,1364.835,553.4,1354.784Z" transform="translate(-321.142 -1027.102)" fill="#005380" opacity="0.2"/>
    <path id="Path_5" data-name="Path 5" d="M1627.269,1375.213c6.435-7.593-5.234-19.24-5.234-19.24s-20.09.473-22.237-1.937,17.1-3.758,17.1-3.758c-3.025-5.45-18.259-14.156-18.259-14.156s-15.585,11.952-17.072,9.088,14.34-9.879,14.34-9.879c-4.889-3.923-13.838-4.564-13.838-4.564-13.369.7-11.775,17.834-11.775,17.834a31.932,31.932,0,0,1-14.3,4.993h0a23.117,23.117,0,0,0-4.289.632l.929,1.348c.438-.139.871-.258,1.3-.355a.01.01,0,0,1,.008,0l.019,0c.272-.051.659-.123,1.135-.206h0c1.09-.144,1.877-.276,2.428-.4h0c3.381-.51,7.9-1,9.412-.294a3.175,3.175,0,0,1,.419-.715l-.419.715c-3.355,5.714,3.769,17.819,9.516,23.339s5.63,1.469,6.188-4.02-5.214-12.206-5.536-15.144,2.989-.6,5.612,3.912-.186,9.607,3.923,16.984,20.765,3.681,20.765,3.681c-4.777-3.758-8.044-14.145-6.623-15.611s10,11.34,11.856,12.977S1620.834,1382.806,1627.269,1375.213Z" transform="translate(-1193.559 -1035.446)" fill="#005380" opacity="0.2"/>
    <path id="Path_6" data-name="Path 6" d="M859,483.793c6.633-11.13,25.9-1.678,25.9-1.678s7.9,24.938,11.773,26.563-2.591-22.64-2.591-22.64c7.988,1.425,25.14,16.507,25.14,16.507s-8.137,24.236-3.982,24.858,6.11-21.827,6.11-21.827c6.894,4.365,11.461,15.113,11.461,15.113,4.778,16.759-16.989,22.029-16.989,22.029a41.564,41.564,0,0,0-.109,19.72h0a30.175,30.175,0,0,1,1.033,5.549l-2.052-.575c-.013-.6-.049-1.18-.111-1.748a.013.013,0,0,0,0-.01c0-.008,0-.016,0-.024-.052-.357-.128-.864-.225-1.484v0s0,0,0,0c-.283-1.4-.453-2.428-.538-3.158a.023.023,0,0,1,0-.006c-.8-4.378-2.1-10.155-3.611-11.714a4.122,4.122,0,0,0,.7-.818l-.7.818c-5.62,6.544-23.533,2.882-32.756-1.865s-4.185-6.312,2.337-9.316,17.231,1.267,20.984.424-.522-3.934-7.186-5.258-11.751,4.286-22.57,2.34-13.3-24.014-13.3-24.014c6.644,4.295,20.814,3.933,22.018,1.564s-18.185-7.525-20.985-9.121S852.363,494.922,859,483.793Z" transform="translate(-585.383 -291.109)" fill="#005380" opacity="0.2"/>
    <g id="Ellipse_116" data-name="Ellipse 116" transform="translate(279.907 195.438)" fill="#ffeae5" stroke="#1ca345" stroke-width="6">
      <circle cx="68.205" cy="68.205" r="68.205" stroke="none"/>
      <circle cx="68.205" cy="68.205" r="65.205" fill="none"/>
    </g>
    <rect id="Rectangle_469" data-name="Rectangle 469" width="15.372" height="35.953" transform="translate(312.718 280.924) rotate(-60)" fill="#1ca345"/>
    <rect id="Rectangle_470" data-name="Rectangle 470" width="15.373" height="71.736" transform="translate(367.286 228.855) rotate(30)" fill="#1ca345"/>
  </g>
</svg>
