<svg xmlns="http://www.w3.org/2000/svg" width="242.798" height="230.117" viewBox="0 0 242.798 230.117">
  <g id="Group_88" data-name="Group 88" transform="translate(-40.686 -55.51)">
    <g id="Background_Complete" data-name="Background Complete" transform="translate(41.987 55.509)">
      <g id="Group_1" data-name="Group 1">
        <path id="Path_1" data-name="Path 1" d="M73.418,299.782l-7.39.157L62.278,300c-1.253.026-2.513.021-3.77.031l-.25,0v-.253l-.03-6.3V293.2h.283l7.455.035c2.485,0,4.97.064,7.455.092l.155,0,0,.152c-.01,1.069-.048,2.132-.074,3.184Zm0,0-.08-3.184c-.025-1.049-.063-2.086-.073-3.117l.153.154c-2.485.029-4.97.089-7.455.092l-7.455.035.281-.281-.03,6.3-.251-.251c1.229.01,2.454,0,3.686.031l3.7.063Z" transform="translate(-49.907 -159.677)" fill="#ebebeb"/>
        <path id="Path_2" data-name="Path 2" d="M58.647,313.891l-7.39.157-3.751.063c-1.253.026-2.513.021-3.77.031l-.249,0,0-.253-.03-6.3,0-.283h.283l7.455.035c2.485,0,4.97.064,7.456.092l.155,0v.152c-.011,1.069-.048,2.132-.074,3.183Zm0,0-.08-3.183c-.025-1.049-.063-2.086-.074-3.117l.154.154c-2.485.029-4.97.089-7.456.092l-7.455.035.282-.281-.03,6.3-.251-.251c1.229.01,2.454,0,3.686.031l3.7.063Z" transform="translate(-43.453 -165.842)" fill="#ebebeb"/>
        <path id="Path_3" data-name="Path 3" d="M88.19,313.891l-7.391.157-3.751.063c-1.253.026-2.513.021-3.769.031l-.25,0v-.253l-.03-6.3v-.283h.283l7.455.035c2.485,0,4.97.064,7.455.092l.155,0,0,.152c-.011,1.069-.048,2.132-.074,3.183Zm0,0-.08-3.183c-.025-1.049-.063-2.086-.074-3.117l.154.154c-2.485.029-4.97.089-7.455.092l-7.455.035.281-.281-.03,6.3-.251-.251c1.229.01,2.454,0,3.685.031l3.705.063Z" transform="translate(-56.361 -165.842)" fill="#ebebeb"/>
        <path id="Path_4" data-name="Path 4" d="M429.484,313.891l-7.39.157-3.751.063c-1.253.026-2.513.021-3.769.031l-.25,0v-.253l-.03-6.3v-.283h.283l7.455.035c2.485,0,4.97.064,7.455.092l.155,0,0,.152c-.011,1.069-.048,2.132-.074,3.183Zm0,0-.08-3.183c-.025-1.049-.063-2.086-.074-3.117l.154.154c-2.485.029-4.97.089-7.455.092l-7.455.035.281-.281-.03,6.3-.251-.251c1.228.01,2.453,0,3.685.031l3.7.063Z" transform="translate(-205.477 -165.842)" fill="#ebebeb"/>
        <path id="Path_5" data-name="Path 5" d="M429.484,62.657l-7.39.157-3.751.063c-1.253.026-2.513.021-3.769.031l-.25,0v-.253l-.03-6.3v-.283h.283l7.455.035c2.485,0,4.97.063,7.455.092l.155,0,0,.152c-.011,1.069-.048,2.132-.074,3.183Zm0,0-.08-3.183c-.025-1.049-.063-2.086-.074-3.117l.154.153c-2.485.029-4.97.09-7.455.092l-7.455.035.281-.281-.03,6.3-.251-.251c1.228.01,2.453,0,3.685.031l3.7.063Z" transform="translate(-205.477 -56.074)" fill="#ebebeb"/>
        <path id="Path_6" data-name="Path 6" d="M444.256,76.767l-7.391.157-3.751.063c-1.253.026-2.513.021-3.77.031l-.249,0,0-.253-.03-6.3,0-.282h.283l7.455.035c2.485,0,4.97.063,7.456.092l.155,0v.151c-.011,1.069-.048,2.132-.074,3.184Zm0,0-.08-3.184c-.025-1.048-.063-2.086-.074-3.117l.154.154c-2.485.029-4.97.09-7.456.092l-7.455.035.282-.282-.03,6.3-.251-.251c1.229.01,2.454,0,3.686.031l3.7.063Z" transform="translate(-211.931 -62.239)" fill="#ebebeb"/>
        <path id="Path_7" data-name="Path 7" d="M58.647,62.669l-7.39.157-3.751.063c-1.253.026-2.513.021-3.77.031l-.249,0,0-.253-.03-6.3,0-.283h.283l7.455.035c2.485,0,4.97.063,7.456.092l.155,0v.152c-.011,1.069-.048,2.132-.074,3.183Zm0,0-.08-3.183c-.025-1.049-.063-2.086-.074-3.117l.154.153c-2.485.029-4.97.09-7.456.092l-7.455.035.282-.281-.03,6.3-.251-.251c1.229.01,2.454,0,3.686.031l3.7.063Z" transform="translate(-43.453 -56.079)" fill="#ebebeb"/>
        <path id="Path_8" data-name="Path 8" d="M213.666,142.636l7.39-.157,3.751-.063c1.253-.026,2.513-.021,3.77-.031l.25,0v.253l.03,6.3v.283h-.283l-7.455-.035c-2.485,0-4.97-.064-7.455-.092l-.155,0,0-.152c.01-1.069.048-2.132.074-3.184Zm0,0,.08,3.184c.025,1.049.063,2.086.073,3.117l-.153-.154c2.485-.029,4.97-.089,7.455-.092l7.455-.035-.281.281.03-6.3.251.251c-1.229-.01-2.454,0-3.686-.031l-3.7-.063Z" transform="translate(-117.754 -93.784)" fill="#ebebeb"/>
        <path id="Path_9" data-name="Path 9" d="M228.438,128.526l7.391-.157,3.751-.063c1.253-.026,2.513-.021,3.77-.031l.249,0,0,.253.03,6.3,0,.283h-.283l-7.455-.035c-2.485,0-4.97-.064-7.456-.092l-.155,0v-.152c.011-1.069.048-2.132.074-3.183Zm0,0,.08,3.183c.025,1.049.064,2.086.074,3.117l-.154-.153c2.485-.029,4.97-.09,7.456-.092l7.455-.035-.281.281.03-6.3.251.251c-1.229-.01-2.454,0-3.686-.031l-3.7-.063Z" transform="translate(-124.208 -87.619)" fill="#ebebeb"/>
      </g>
      <g id="Group_6" data-name="Group 6" transform="translate(76.323 13.518)">
        <g id="Group_3" data-name="Group 3" transform="translate(120.521 87.466)">
          <path id="Path_10" data-name="Path 10" d="M410.613,235.414c-23.421,0-23.46,33.3,0,33.3C434.032,268.718,434.071,235.414,410.613,235.414Z" transform="translate(-393.033 -235.414)" fill="#ebebeb"/>
          <path id="Path_11" data-name="Path 11" d="M427.173,257.385c-1.249,5.73-6,10.7-14.245,10.7-19.466,0-19.437-27.642,0-27.642.127,0,.255,0,.382.007-18.292.336-18.2,26.513.359,26.513C421.24,266.962,425.751,262.58,427.173,257.385Z" transform="translate(-395.351 -237.611)" fill="#dbdbdb"/>
          <g id="Group_2" data-name="Group 2" transform="translate(11.131 6.475)">
            <path id="Path_12" data-name="Path 12" d="M419.388,246.914a.592.592,0,0,1,.608.556v.927a8.714,8.714,0,0,1,4.51,1.623c.227.163.355.3.355.534a.626.626,0,0,1-.659.579.652.652,0,0,1-.457-.162,7.573,7.573,0,0,0-3.8-1.506v6.491c3.851.742,5.473,2.064,5.473,4.336,0,2.458-2.255,4.2-5.423,4.29v1.808a.611.611,0,0,1-1.216,0v-1.832a9.977,9.977,0,0,1-5.7-2.249.591.591,0,0,1-.279-.486.635.635,0,0,1,.634-.579.675.675,0,0,1,.457.162,8.531,8.531,0,0,0,4.941,2.11v-6.608c-3.8-.765-5.372-2.041-5.372-4.359,0-2.341,2.229-4.126,5.321-4.2v-.881A.592.592,0,0,1,419.388,246.914Zm-.557,8.81v-6.329c-2.458.047-4.08,1.391-4.08,3.06C414.752,254.032,415.563,255.006,418.831,255.724Zm1.114,1.414v6.4c2.534-.047,4.181-1.391,4.181-3.153C424.126,258.784,423.24,257.81,419.946,257.139Z" transform="translate(-412.8 -246.914)" fill="#dbdbdb"/>
          </g>
        </g>
        <g id="Group_5" data-name="Group 5">
          <path id="Path_13" data-name="Path 13" d="M196.075,80.807c17.05,3.059,12.547,28.316-4.531,25.252C174.495,103,179,77.743,196.075,80.807Z" transform="translate(-179.78 -80.286)" fill="#dbdbdb"/>
          <path id="Path_14" data-name="Path 14" d="M193.691,80.315c16.249,2.915,11.744,28.172-4.531,25.252C172.912,102.651,177.416,77.394,193.691,80.315Z" transform="translate(-178.997 -80.08)" fill="#ebebeb"/>
          <path id="Path_15" data-name="Path 15" d="M182.767,95.35a9.8,9.8,0,0,0,8.427,9.886c13.506,2.424,17.246-18.539,3.761-20.959-.088-.016-.176-.032-.265-.043,12.645,2.532,9.021,22.369-3.857,20.058A9.376,9.376,0,0,1,182.767,95.35Z" transform="translate(-180.644 -81.895)" fill="#dbdbdb"/>
          <g id="Group_4" data-name="Group 4" transform="translate(6.707 4.215)">
            <path id="Path_16" data-name="Path 16" d="M197.583,87.573a.435.435,0,0,1,.343.5l-.131.7a5.829,5.829,0,0,1,2.9,1.811.5.5,0,0,1,.171.45.458.458,0,0,1-.538.354.436.436,0,0,1-.293-.182,5.082,5.082,0,0,0-2.421-1.631l-.916,4.916c2.564,1.059,3.5,2.269,3.181,3.989-.346,1.861-2.154,2.887-4.362,2.549l-.255,1.369a.428.428,0,1,1-.842-.157l.258-1.387a6.71,6.71,0,0,1-3.633-2.439.45.45,0,0,1,.4-.762.45.45,0,0,1,.293.182,5.77,5.77,0,0,0,3.126,2.235l.932-5c-2.526-1.07-3.434-2.238-3.107-3.994.33-1.773,2.127-2.838,4.279-2.491l.124-.667A.434.434,0,0,1,197.583,87.573Zm-1.628,6.6.893-4.794c-1.71-.282-3.023.527-3.259,1.791C193.366,92.365,193.791,93.207,195.955,94.173Zm.573,1.215-.9,4.846c1.762.292,3.094-.514,3.342-1.849C199.192,97.174,198.715,96.322,196.527,95.388Z" transform="translate(-190.907 -87.566)" fill="#dbdbdb"/>
          </g>
        </g>
      </g>
      <g id="Group_11" data-name="Group 11" transform="translate(1.15 46.125)">
        <g id="Group_8" data-name="Group 8" transform="translate(0 54.479)">
          <rect id="Rectangle_1" data-name="Rectangle 1" width="116.996" height="56.352" transform="translate(4.944 0) rotate(5.033)" fill="#ebebeb"/>
          <path id="Path_17" data-name="Path 17" d="M166.98,245l-3.529-.31-109.48-9.637-3.537-.311-.31,3.529-4.317,49.071L45.5,290.88l3.529.31,109.487,9.638,3.522.31h.008L166.988,245Zm-8.157,52.3L49.336,287.654l4.324-49.07,109.479,9.645Z" transform="translate(-45.496 -234.742)" fill="#dbdbdb"/>
          <ellipse id="Ellipse_1" data-name="Ellipse 1" cx="19.11" cy="16.387" rx="19.11" ry="16.387" transform="translate(42.683 51.483) rotate(-84.968)" fill="#dbdbdb"/>
          <path id="Path_18" data-name="Path 18" d="M98.414,284.777a4.391,4.391,0,1,1-3.989-4.759A4.391,4.391,0,0,1,98.414,284.777Z" transform="translate(-64.787 -254.515)" fill="#dbdbdb"/>
          <path id="Path_19" data-name="Path 19" d="M210.435,294.642a4.391,4.391,0,1,1-3.988-4.759A4.391,4.391,0,0,1,210.435,294.642Z" transform="translate(-113.731 -258.825)" fill="#dbdbdb"/>
          <path id="Path_20" data-name="Path 20" d="M60.129,323.344l-7.811-.688.687-7.8A7.834,7.834,0,0,1,60.129,323.344Z" transform="translate(-48.476 -269.743)" fill="#dbdbdb"/>
          <path id="Path_21" data-name="Path 21" d="M241.386,331.945l-.688,7.811-7.8-.687A7.834,7.834,0,0,1,241.386,331.945Z" transform="translate(-127.373 -277.197)" fill="#dbdbdb"/>
          <path id="Path_22" data-name="Path 22" d="M240.531,257.462l7.811.688-.687,7.8A7.835,7.835,0,0,1,240.531,257.462Z" transform="translate(-130.696 -244.667)" fill="#dbdbdb"/>
          <path id="Path_23" data-name="Path 23" d="M58.772,249.364l.688-7.811,7.8.687A7.835,7.835,0,0,1,58.772,249.364Z" transform="translate(-51.296 -237.717)" fill="#dbdbdb"/>
          <g id="Group_7" data-name="Group 7" transform="translate(51.74 19.526)">
            <path id="Path_24" data-name="Path 24" d="M147.779,269.419a.8.8,0,0,1,.719.856l-.116,1.314a10.744,10.744,0,0,1,5.64,2.811.917.917,0,0,1,.393.8.844.844,0,0,1-.926.746.806.806,0,0,1-.57-.282,9.4,9.4,0,0,0-4.736-2.568l-.809,9.191c4.9,1.491,6.832,3.546,6.55,6.763-.307,3.479-3.444,5.685-7.559,5.454l-.226,2.56a.791.791,0,0,1-1.576-.139l.229-2.594a12.378,12.378,0,0,1-7.106-3.835.83.83,0,0,1,.593-1.469.833.833,0,0,1,.57.282,10.642,10.642,0,0,0,6.138,3.551l.824-9.355c-4.828-1.517-6.7-3.5-6.415-6.784.292-3.315,3.4-5.588,7.416-5.335l.11-1.247A.8.8,0,0,1,147.779,269.419Zm-1.821,12.409.789-8.962c-3.19-.214-5.459,1.505-5.666,3.868C140.884,278.967,141.813,280.438,145.957,281.828Zm1.268,2.13-.8,9.06c3.288.224,5.59-1.492,5.809-3.987C152.436,286.766,151.409,285.286,147.226,283.958Z" transform="translate(-137.381 -269.416)" fill="#ebebeb"/>
          </g>
        </g>
        <g id="Group_10" data-name="Group 10" transform="translate(85.285 0)">
          <rect id="Rectangle_2" data-name="Rectangle 2" width="116.996" height="56.352" transform="translate(0.8 0) rotate(0.814)" fill="#ebebeb"/>
          <path id="Path_25" data-name="Path 25" d="M314.737,139.651l-3.542-.05L201.3,138.044l-3.55-.05-.05,3.542-.695,49.255-.05,3.55,3.542.05,109.9,1.557,3.534.05h.008l.8-56.347Zm-4.287,52.755-109.9-1.565.7-49.255,109.892,1.564Z" transform="translate(-196.956 -137.991)" fill="#dbdbdb"/>
          <ellipse id="Ellipse_2" data-name="Ellipse 2" cx="19.11" cy="16.387" rx="19.11" ry="16.387" transform="matrix(0.014, -1, 1, 0.014, 42.225, 48.567)" fill="#dbdbdb"/>
          <path id="Path_26" data-name="Path 26" d="M246.319,184.384a4.391,4.391,0,1,1-4.328-4.453A4.391,4.391,0,0,1,246.319,184.384Z" transform="translate(-214.687 -156.314)" fill="#dbdbdb"/>
          <path id="Path_27" data-name="Path 27" d="M358.763,185.981a4.391,4.391,0,1,1-4.328-4.453A4.391,4.391,0,0,1,358.763,185.981Z" transform="translate(-263.815 -157.012)" fill="#dbdbdb"/>
          <path id="Path_28" data-name="Path 28" d="M211.179,225.883l-7.84-.112.111-7.831A7.834,7.834,0,0,1,211.179,225.883Z" transform="translate(-199.745 -172.921)" fill="#dbdbdb"/>
          <path id="Path_29" data-name="Path 29" d="M392.54,220.7l-.111,7.84-7.831-.112A7.834,7.834,0,0,1,392.54,220.7Z" transform="translate(-278.939 -174.128)" fill="#dbdbdb"/>
          <path id="Path_30" data-name="Path 30" d="M385.823,146.945l7.84.111-.111,7.831A7.834,7.834,0,0,1,385.823,146.945Z" transform="translate(-279.474 -141.902)" fill="#dbdbdb"/>
          <path id="Path_31" data-name="Path 31" d="M204.383,152.2l.111-7.84,7.831.111A7.835,7.835,0,0,1,204.383,152.2Z" transform="translate(-200.201 -140.774)" fill="#dbdbdb"/>
          <g id="Group_9" data-name="Group 9" transform="translate(50.407 15.267)">
            <path id="Path_32" data-name="Path 32" d="M295.343,165.1a.8.8,0,0,1,.779.8l-.019,1.318a10.743,10.743,0,0,1,5.832,2.389.916.916,0,0,1,.45.765.844.844,0,0,1-.868.812.806.806,0,0,1-.59-.239,9.4,9.4,0,0,0-4.912-2.212l-.131,9.225c4.993,1.126,7.075,3.033,7.03,6.263-.05,3.492-3.017,5.923-7.138,6l-.037,2.57a.791.791,0,0,1-1.581-.023l.037-2.6a12.374,12.374,0,0,1-7.368-3.3.829.829,0,0,1,.483-1.508.832.832,0,0,1,.59.239,10.64,10.64,0,0,0,6.383,3.089l.133-9.39c-4.926-1.158-6.944-3-6.9-6.294.047-3.328,2.983-5.823,7-5.866l.018-1.252A.8.8,0,0,1,295.343,165.1Zm-.9,12.51.128-9c-3.2.021-5.333,1.9-5.367,4.275C289.17,175.133,290.2,176.532,294.441,177.613Zm1.421,2.031-.13,9.094c3.3-.02,5.465-1.9,5.5-4.4C301.265,182.061,300.131,180.66,295.862,179.644Z" transform="translate(-286.476 -165.103)" fill="#ebebeb"/>
          </g>
        </g>
      </g>
    </g>
    <g id="Shadow" transform="translate(40.686 249.973)">
      <ellipse id="Ellipse_3" data-name="Ellipse 3" cx="117.604" cy="12.327" rx="117.604" ry="12.327" transform="translate(0 11)" fill="#f5f5f5"/>
    </g>
    <g id="Floor" transform="translate(40.097 237.744)">
      <path id="Path_34" data-name="Path 34" d="M40.1,379.99l29.548-.137,29.548-.05,59.1-.094,59.1.094,29.548.049,29.548.138-29.548.138-29.548.049-59.1.094-59.1-.094-29.548-.05Z" transform="translate(-33.097 -359.709)" fill="#263238"/>
    </g>
    <g id="Wallet" transform="translate(113.668 98.285)">
      <g id="Group_80" data-name="Group 80" transform="translate(0)">
        <g id="Group_76" data-name="Group 76" transform="translate(0.174)">
          <g id="Group_60" data-name="Group 60" transform="translate(3.018)">
            <rect id="Rectangle_3" data-name="Rectangle 3" width="120.861" height="58.214" transform="translate(0.004 14.029) rotate(-6.665)" fill="#35aa19"/>
            <rect id="Rectangle_4" data-name="Rectangle 4" width="120.861" height="58.214" transform="translate(0.004 14.029) rotate(-6.665)" fill="#4beb60" opacity="0.1"/>
            <path id="Path_102" data-name="Path 102" d="M296.465,132.042l-3.635.425L180.064,145.648l-3.643.426.425,3.635,5.91,50.543.426,3.643,3.635-.425,112.775-13.182,3.627-.425h.008l-6.754-57.822Zm2.7,54.611L186.392,199.827l-5.9-50.544,112.768-13.173Z" transform="translate(-176.421 -132.041)" opacity="0.1"/>
            <ellipse id="Ellipse_4" data-name="Ellipse 4" cx="16.929" cy="19.742" rx="16.929" ry="19.742" transform="translate(44.381 18.988) rotate(-6.665)" opacity="0.1"/>
            <path id="Path_103" data-name="Path 103" d="M232.2,197.542a4.536,4.536,0,1,1-5.032-3.979A4.535,4.535,0,0,1,232.2,197.542Z" transform="translate(-196.841 -158.907)" opacity="0.1"/>
            <path id="Path_104" data-name="Path 104" d="M347.585,184.059a4.536,4.536,0,1,1-5.031-3.979A4.535,4.535,0,0,1,347.585,184.059Z" transform="translate(-247.255 -153.016)" opacity="0.1"/>
            <path id="Path_105" data-name="Path 105" d="M201.447,245.206l-8.045.94-.939-8.036A8.093,8.093,0,0,1,201.447,245.206Z" transform="translate(-183.43 -178.36)" opacity="0.1"/>
            <path id="Path_106" data-name="Path 106" d="M387.186,214.743l.94,8.045-8.036.939A8.093,8.093,0,0,1,387.186,214.743Z" transform="translate(-265.383 -168.175)" opacity="0.1"/>
            <path id="Path_107" data-name="Path 107" d="M369.626,140.2l8.045-.94.939,8.036A8.094,8.094,0,0,1,369.626,140.2Z" transform="translate(-260.835 -135.193)" opacity="0.1"/>
            <path id="Path_108" data-name="Path 108" d="M184.58,169.967l-.94-8.045,8.036-.939A8.093,8.093,0,0,1,184.58,169.967Z" transform="translate(-179.575 -144.686)" opacity="0.1"/>
            <g id="Group_59" data-name="Group 59" transform="translate(54.959 21.8)">
              <path id="Path_109" data-name="Path 109" d="M281.015,170.761a.828.828,0,0,1,.906.716l.158,1.353a11.1,11.1,0,0,1,6.295,1.663.947.947,0,0,1,.564.723.873.873,0,0,1-.78.948.832.832,0,0,1-.636-.166,9.706,9.706,0,0,0-5.329-1.605l1.106,9.467c5.266.482,7.655,2.156,8.042,5.47.418,3.583-2.293,6.472-6.5,7.1l.308,2.638a.817.817,0,0,1-1.622.19l-.313-2.672a12.783,12.783,0,0,1-7.991-2.391.857.857,0,0,1,.292-1.61.858.858,0,0,1,.636.165,10.988,10.988,0,0,0,6.952,2.306l-1.126-9.636c-5.2-.523-7.516-2.137-7.91-5.519-.4-3.415,2.272-6.366,6.385-6.95l-.15-1.284A.829.829,0,0,1,281.015,170.761Zm.757,12.935-1.079-9.231c-3.272.452-5.206,2.666-4.922,5.1C276.04,181.864,277.288,183.158,281.773,183.7Zm1.729,1.889,1.09,9.332c3.373-.463,5.343-2.68,5.042-5.25C289.361,187.334,288.011,186.051,283.5,185.585Z" transform="translate(-274.024 -170.756)" fill="#ffc727"/>
            </g>
          </g>
          <g id="Group_62" data-name="Group 62" transform="translate(117.375 95.669)">
            <rect id="Rectangle_5" data-name="Rectangle 5" width="44.609" height="22.634" fill="#407bff"/>
            <g id="Group_61" data-name="Group 61" transform="translate(28.485 5.231)">
              <circle id="Ellipse_5" data-name="Ellipse 5" cx="5.062" cy="5.062" r="5.062" transform="matrix(0.229, -0.973, 0.973, 0.229, 0, 9.855)" fill="#ebebeb"/>
              <circle id="Ellipse_6" data-name="Ellipse 6" cx="2.769" cy="2.769" r="2.769" transform="translate(3.318 3.318)" fill="#dbdbdb"/>
            </g>
          </g>
          <g id="Group_63" data-name="Group 63" transform="translate(0 55.681)">
            <rect id="Rectangle_6" data-name="Rectangle 6" width="135.018" height="100.81" fill="#b3caff"/>
            <rect id="Rectangle_7" data-name="Rectangle 7" width="135.018" height="100.81" fill="#407bff" opacity="0.1"/>
          </g>
          <g id="Group_68" data-name="Group 68" transform="translate(1.742 0.189)">
            <g id="Group_66" data-name="Group 66">
              <path id="Path_110" data-name="Path 110" d="M283.152,136.981l13.47,60.871a6.309,6.309,0,0,1-4.792,7.525l-96.545,21.365a6.309,6.309,0,0,1-7.52-4.8L174.3,161.069a5.871,5.871,0,0,1,4.464-7l97.392-21.552A5.871,5.871,0,0,1,283.152,136.981Z" transform="translate(-174.155 -132.377)" fill="#408157"/>
              <g id="Group_65" data-name="Group 65" transform="translate(10.332 12.014)">
                <rect id="Rectangle_8" data-name="Rectangle 8" width="20.928" height="14.463" rx="4.202" transform="translate(0 19.374) rotate(-12.478)" fill="#ffc727"/>
                <path id="Path_111" data-name="Path 111" d="M339.357,161.553l-9.245,2.046a3.967,3.967,0,0,1-4.73-3.016h0a3.967,3.967,0,0,1,3.016-4.729l9.245-2.046a3.967,3.967,0,0,1,4.73,3.015h0A3.967,3.967,0,0,1,339.357,161.553Z" transform="translate(-250.519 -153.713)" fill="#fff"/>
                <g id="Group_64" data-name="Group 64" transform="translate(4.141 25.736)">
                  <path id="Path_112" data-name="Path 112" d="M200.941,235.875l-.729.677a.212.212,0,0,1-.095.056.209.209,0,0,1-.2-.062.2.2,0,0,1,.014-.3l.99-.948a.219.219,0,0,1,.3.015.252.252,0,0,1,.059.147l1.2,5.445a.2.2,0,0,1-.158.248.212.212,0,0,1-.249-.158Z" transform="translate(-199.859 -215.075)" fill="#f8f8f8"/>
                  <path id="Path_113" data-name="Path 113" d="M206.3,239.786l2.216-3.111a1.575,1.575,0,0,0,.257-1.247,1.565,1.565,0,0,0-1.859-1.179,1.58,1.58,0,0,0-.947.618l-.23.326a.209.209,0,0,1-.345-.234l.228-.335a2.034,2.034,0,0,1,1.2-.79,1.994,1.994,0,0,1,2.358,1.5,2,2,0,0,1-.316,1.58l-1.9,2.667,2.8-.62a.213.213,0,0,1,.092.415l-3.3.731-.034.007a.2.2,0,0,1-.166-.026A.228.228,0,0,1,206.3,239.786Z" transform="translate(-202.259 -214.434)" fill="#f8f8f8"/>
                  <path id="Path_114" data-name="Path 114" d="M217.784,231.58l-1.185,1.914a2.036,2.036,0,0,1,2.036,1.611,2.027,2.027,0,0,1-.278,1.554,2.065,2.065,0,0,1-1.292.908,2.026,2.026,0,0,1-1.545-.28.215.215,0,0,1,.231-.362,1.629,1.629,0,0,0,1.219.21,1.65,1.65,0,0,0,1.025-.707,1.619,1.619,0,0,0,.217-1.229,1.628,1.628,0,0,0-1.934-1.233.227.227,0,0,1-.188-.048l-.008,0a.219.219,0,0,1-.067-.3l1.138-1.842-2.27.5a.217.217,0,0,1-.093-.423l2.769-.613a.215.215,0,0,1,.259.164.178.178,0,0,1-.005.1A.193.193,0,0,1,217.784,231.58Z" transform="translate(-206.308 -213.319)" fill="#f8f8f8"/>
                  <path id="Path_115" data-name="Path 115" d="M228.075,233.921l-3.21.711-.008,0-.017,0a.182.182,0,0,1-.136-.015.2.2,0,0,1-.09-.282l2.485-5.027.007-.011a.2.2,0,0,1,.282-.089.27.27,0,0,1,.09.086c0,.017.014.024.016.032l.005.025.9,4.065.4-.088a.208.208,0,1,1,.09.406l-.4.088.225,1.016a.213.213,0,0,1-.415.092Zm-.09-.407-.768-3.471-2.035,4.092Z" transform="translate(-210.663 -212.425)" fill="#f8f8f8"/>
                  <path id="Path_116" data-name="Path 116" d="M243.52,231.1a.21.21,0,0,1-.066-.3.22.22,0,0,1,.3-.067,1.631,1.631,0,0,0,1.22.21,1.629,1.629,0,0,0,1.233-1.934,1.619,1.619,0,0,0-2.948-.52.21.21,0,0,1-.3.065.138.138,0,0,1-.066-.056l0-.008a.032.032,0,0,1-.014-.024.168.168,0,0,1-.024-.066.383.383,0,0,0,0-.043l-.241-2.452a.185.185,0,0,1,.051-.171.2.2,0,0,1,.124-.081l2.76-.611a.215.215,0,0,1,.259.165.21.21,0,0,1-.165.258l-2.583.572.178,1.808a2.053,2.053,0,0,1,.948-.494,2.043,2.043,0,0,1,2.443,1.565,2.031,2.031,0,0,1-.269,1.552,2.107,2.107,0,0,1-1.293.9A2.056,2.056,0,0,1,243.52,231.1Z" transform="translate(-218.539 -210.612)" fill="#f8f8f8"/>
                  <path id="Path_117" data-name="Path 117" d="M252.513,225.034a2.462,2.462,0,0,1,1.789-1.746.211.211,0,0,1,.255.148.228.228,0,0,1-.155.266,2.054,2.054,0,0,0-1.489,1.458,3.972,3.972,0,0,0-.162,1.279,2,2,0,1,1-.191,1.463,3.066,3.066,0,0,1-.1-.386A5,5,0,0,1,252.513,225.034Zm.456,2.742a.416.416,0,0,0,.042.106.139.139,0,0,1,0,.061,1.617,1.617,0,1,0-.053-.2Z" transform="translate(-222.784 -209.844)" fill="#f8f8f8"/>
                  <path id="Path_118" data-name="Path 118" d="M262.555,227.151l1.042-5.685-2.863.633a.208.208,0,1,1-.09-.406l3.133-.693a.229.229,0,0,1,.129-.02.239.239,0,0,1,.139.1.208.208,0,0,1,.032.064.178.178,0,0,1-.01.118l-1.087,5.961a.217.217,0,0,1-.158.168.157.157,0,0,1-.088,0A.23.23,0,0,1,262.555,227.151Z" transform="translate(-226.346 -208.838)" fill="#f8f8f8"/>
                  <path id="Path_119" data-name="Path 119" d="M271.507,219.6a1.261,1.261,0,0,1,1.221,2.066,1.964,1.964,0,1,1-1.465.324,1.28,1.28,0,0,1-.712-.89A1.253,1.253,0,0,1,271.507,219.6Zm1.222,5.521a1.553,1.553,0,1,0-1.851-1.18A1.545,1.545,0,0,0,272.729,225.122Zm-.765-3.455a.864.864,0,0,0,.644-1.022.846.846,0,0,0-1.651.366A.856.856,0,0,0,271.964,221.667Z" transform="translate(-230.69 -208.223)" fill="#f8f8f8"/>
                  <path id="Path_120" data-name="Path 120" d="M289.837,215.446a2,2,0,0,1,2.33,1.3c.012.015.014.023.026.038.044.159.09.326.13.5a5.034,5.034,0,0,1-.044,2.488,2.51,2.51,0,0,1-1.79,1.747l-.008,0a.206.206,0,0,1-.255-.148.22.22,0,0,1,.155-.265,2.057,2.057,0,0,0,1.489-1.458,3.841,3.841,0,0,0,.162-1.279,2.006,2.006,0,1,1-2.194-2.926Zm1.981,1.6a1.583,1.583,0,1,0-1.209,1.885A1.573,1.573,0,0,0,291.818,217.05Z" transform="translate(-238.485 -206.399)" fill="#f8f8f8"/>
                  <path id="Path_121" data-name="Path 121" d="M298.3,216.7a3.863,3.863,0,0,1,.108-2.2,1.72,1.72,0,0,1,2.964-.656,3.952,3.952,0,0,1,1.035,1.947,3.9,3.9,0,0,1-.119,2.194,1.713,1.713,0,0,1-2.964.656A3.817,3.817,0,0,1,298.3,216.7Zm.415-.092a3.442,3.442,0,0,0,.906,1.727,1.291,1.291,0,0,0,2.269-.5,3.66,3.66,0,0,0-.813-3.675,1.291,1.291,0,0,0-2.269.5A3.444,3.444,0,0,0,298.713,216.613Z" transform="translate(-242.821 -205.462)" fill="#f8f8f8"/>
                  <path id="Path_122" data-name="Path 122" d="M308.772,212.014l-.729.677a.208.208,0,0,1-.095.056.21.21,0,0,1-.2-.062.2.2,0,0,1,.014-.3l.99-.947a.219.219,0,0,1,.3.015.254.254,0,0,1,.059.147l1.2,5.445a.2.2,0,0,1-.158.248.211.211,0,0,1-.248-.158Z" transform="translate(-246.972 -204.649)" fill="#f8f8f8"/>
                  <path id="Path_123" data-name="Path 123" d="M314.132,215.924l2.216-3.111a1.572,1.572,0,0,0,.257-1.247,1.564,1.564,0,0,0-1.859-1.179,1.577,1.577,0,0,0-.947.618l-.23.326a.209.209,0,1,1-.345-.235l.228-.334a2.037,2.037,0,0,1,1.2-.791,1.994,1.994,0,0,1,2.358,1.5,2,2,0,0,1-.316,1.58l-1.9,2.667,2.8-.62a.213.213,0,0,1,.092.415l-3.3.73-.034.008a.2.2,0,0,1-.166-.025A.228.228,0,0,1,314.132,215.924Z" transform="translate(-249.372 -204.009)" fill="#f8f8f8"/>
                  <path id="Path_124" data-name="Path 124" d="M334.633,205.723l-1.185,1.914a2.061,2.061,0,0,1,.466,4.072,2.02,2.02,0,0,1-1.545-.28.214.214,0,1,1,.23-.362,1.627,1.627,0,0,0,2.461-1.726,1.629,1.629,0,0,0-1.935-1.233.225.225,0,0,1-.187-.047l-.008,0a.219.219,0,0,1-.068-.3L334,205.917l-2.27.5a.217.217,0,0,1-.093-.423l2.769-.613a.214.214,0,0,1,.258.164.173.173,0,0,1-.005.1A.185.185,0,0,1,334.633,205.723Z" transform="translate(-257.36 -202.022)" fill="#f8f8f8"/>
                  <path id="Path_125" data-name="Path 125" d="M344.923,208.063l-3.21.71-.008,0-.017,0a.181.181,0,0,1-.136-.014.2.2,0,0,1-.089-.282l2.485-5.027.007-.01a.2.2,0,0,1,.282-.09.273.273,0,0,1,.09.087c0,.017.014.024.016.032l.006.025.9,4.065.4-.088a.208.208,0,1,1,.09.407l-.4.088.225,1.016a.213.213,0,0,1-.415.092Zm-.09-.406-.768-3.472-2.035,4.091Z" transform="translate(-261.716 -201.127)" fill="#f8f8f8"/>
                  <path id="Path_126" data-name="Path 126" d="M351.351,207.237a.21.21,0,0,1-.066-.3.22.22,0,0,1,.3-.067,1.63,1.63,0,0,0,1.219.21,1.629,1.629,0,0,0,1.233-1.934,1.619,1.619,0,0,0-2.948-.52.209.209,0,0,1-.3.065.14.14,0,0,1-.066-.056l0-.009a.03.03,0,0,1-.014-.023.159.159,0,0,1-.023-.066c0-.008,0-.027,0-.044l-.241-2.452a.186.186,0,0,1,.051-.172.2.2,0,0,1,.124-.081l2.761-.611a.215.215,0,0,1,.258.165.211.211,0,0,1-.165.259l-2.583.571.178,1.808a2.05,2.05,0,0,1,.948-.494,2.043,2.043,0,0,1,2.443,1.565,2.031,2.031,0,0,1-.269,1.552,2.107,2.107,0,0,1-1.293.9A2.053,2.053,0,0,1,351.351,207.237Z" transform="translate(-265.652 -200.186)" fill="#f8f8f8"/>
                  <path id="Path_127" data-name="Path 127" d="M360.344,201.172a2.463,2.463,0,0,1,1.79-1.746.211.211,0,0,1,.255.148.227.227,0,0,1-.155.265,2.054,2.054,0,0,0-1.489,1.458,3.969,3.969,0,0,0-.162,1.279,2,2,0,1,1-.191,1.463,3.062,3.062,0,0,1-.1-.385A5,5,0,0,1,360.344,201.172Zm.456,2.742a.446.446,0,0,0,.042.106.132.132,0,0,1,0,.061,1.615,1.615,0,1,0-.054-.2Z" transform="translate(-269.897 -199.418)" fill="#f8f8f8"/>
                </g>
                <rect id="Rectangle_9" data-name="Rectangle 9" width="52.945" height="2.602" transform="translate(9.403 61.865) rotate(-12.478)" fill="#a6a6a6"/>
                <rect id="Rectangle_10" data-name="Rectangle 10" width="37.483" height="2.602" transform="matrix(0.976, -0.216, 0.216, 0.976, 10.651, 67.507)" fill="#a6a6a6"/>
                <rect id="Rectangle_11" data-name="Rectangle 11" width="26.406" height="2.602" transform="matrix(0.976, -0.216, 0.216, 0.976, 44.668, 9.489)" fill="#a6a6a6"/>
              </g>
            </g>
            <g id="Group_67" data-name="Group 67" transform="translate(6.833 67.906)">
              <rect id="Rectangle_12" data-name="Rectangle 12" width="117.867" height="34.501" fill="#ffc727"/>
              <rect id="Rectangle_13" data-name="Rectangle 13" width="117.867" height="34.501" opacity="0.3"/>
            </g>
          </g>
          <g id="Group_73" data-name="Group 73" transform="translate(8.576 61.376)">
            <g id="Group_71" data-name="Group 71" transform="translate(3.107)">
              <path id="Path_128" data-name="Path 128" d="M303.3,246.9l.162,62.343a6.309,6.309,0,0,1-6.289,6.328l-98.88.257a6.309,6.309,0,0,1-6.321-6.3l-.162-62.343a5.871,5.871,0,0,1,5.856-5.887l99.748-.258A5.871,5.871,0,0,1,303.3,246.9Z" transform="translate(-191.809 -241.04)" fill="#dbdbdb"/>
              <g id="Group_70" data-name="Group 70" transform="translate(7.511 10.723)">
                <path id="Path_129" data-name="Path 129" d="M352.51,342.135a5.8,5.8,0,1,1-5.818-5.789A5.8,5.8,0,0,1,352.51,342.135Z" transform="translate(-264.461 -293.404)" fill="#a6a6a6"/>
                <path id="Path_130" data-name="Path 130" d="M365.2,342.1a5.8,5.8,0,1,1-5.818-5.789A5.8,5.8,0,0,1,365.2,342.1Z" transform="translate(-270.006 -293.39)" fill="#ffc727"/>
                <rect id="Rectangle_14" data-name="Rectangle 14" width="20.928" height="14.463" rx="4.202" transform="translate(1.871 0.231) rotate(-0.149)" fill="#ffc727"/>
                <path id="Path_131" data-name="Path 131" d="M356.542,268.017l-9.469.024a3.966,3.966,0,0,1-3.977-3.956h0a3.967,3.967,0,0,1,3.956-3.977l9.469-.024a3.966,3.966,0,0,1,3.977,3.956h0A3.967,3.967,0,0,1,356.542,268.017Z" transform="translate(-265.42 -260.084)" fill="#fff"/>
                <g id="Group_69" data-name="Group 69" transform="translate(0 27.033)">
                  <path id="Path_132" data-name="Path 132" d="M206.322,309.146l-.857.506a.2.2,0,0,1-.287-.069.2.2,0,0,1,.077-.286l1.169-.715a.22.22,0,0,1,.287.078.252.252,0,0,1,.026.156l.014,5.577a.2.2,0,0,1-.207.208.211.211,0,0,1-.209-.207Z" transform="translate(-205.148 -308.296)" fill="#f8f8f8"/>
                  <path id="Path_133" data-name="Path 133" d="M210.591,314.195l2.83-2.566a1.576,1.576,0,0,0,.517-1.163,1.566,1.566,0,0,0-1.565-1.548,1.58,1.58,0,0,0-1.057.4l-.294.27a.209.209,0,0,1-.287-.3l.295-.278a2.036,2.036,0,0,1,1.343-.515,2,2,0,0,1,1.983,1.973,2,2,0,0,1-.646,1.476l-2.423,2.2,2.871-.008a.213.213,0,0,1,0,.425l-3.382.008h-.034a.2.2,0,0,1-.157-.06A.228.228,0,0,1,210.591,314.195Z" transform="translate(-207.497 -308.267)" fill="#f8f8f8"/>
                  <path id="Path_134" data-name="Path 134" d="M223.518,308.842l-1.566,1.617a2.059,2.059,0,1,1-1.864,3.474.215.215,0,1,1,.3-.3,1.631,1.631,0,0,0,1.146.465,1.65,1.65,0,0,0,1.152-.471,1.623,1.623,0,0,0,.475-1.155,1.628,1.628,0,0,0-1.627-1.617.227.227,0,0,1-.173-.087h-.008a.219.219,0,0,1,0-.312l1.5-1.556-2.324.006a.217.217,0,1,1,0-.434l2.836-.007a.215.215,0,0,1,.218.216.175.175,0,0,1-.026.1A.19.19,0,0,1,223.518,308.842Z" transform="translate(-211.647 -308.254)" fill="#f8f8f8"/>
                  <path id="Path_135" data-name="Path 135" d="M232.567,313.278l-3.288.009h-.026a.185.185,0,0,1-.13-.043.2.2,0,0,1-.027-.294l3.5-4.38.008-.009a.2.2,0,0,1,.3-.026.262.262,0,0,1,.069.1c0,.017.008.026.009.034v.026l.011,4.163h.408a.208.208,0,1,1,0,.416h-.408l0,1.041a.212.212,0,0,1-.425,0Zm0-.416-.009-3.556-2.862,3.563Z" transform="translate(-215.589 -308.262)" fill="#f8f8f8"/>
                  <path id="Path_136" data-name="Path 136" d="M248.761,313.868a.21.21,0,0,1,0-.3.22.22,0,0,1,.312,0,1.628,1.628,0,0,0,1.146.465,1.627,1.627,0,0,0,1.618-1.626,1.619,1.619,0,0,0-2.77-1.138.21.21,0,0,1-.3,0,.136.136,0,0,1-.052-.069v-.008a.033.033,0,0,1-.008-.026.163.163,0,0,1-.009-.069c0-.009.008-.026.008-.043l.288-2.447a.185.185,0,0,1,.086-.157.2.2,0,0,1,.139-.052l2.827-.008a.215.215,0,0,1,.217.216.209.209,0,0,1-.216.217l-2.645.007-.212,1.8a2.045,2.045,0,0,1,1.031-.28,2.043,2.043,0,0,1,2.052,2.05,2.033,2.033,0,0,1-.595,1.458,2.107,2.107,0,0,1-1.456.6A2.057,2.057,0,0,1,248.761,313.868Z" transform="translate(-224.174 -308.221)" fill="#f8f8f8"/>
                  <path id="Path_137" data-name="Path 137" d="M258.609,309.7a2.462,2.462,0,0,1,2.121-1.323.21.21,0,0,1,.217.2.227.227,0,0,1-.207.227,2.053,2.053,0,0,0-1.766,1.106,3.974,3.974,0,0,0-.431,1.215,2,2,0,1,1-.5,1.389,3.086,3.086,0,0,1-.018-.4A5.007,5.007,0,0,1,258.609,309.7Zm-.14,2.776a.447.447,0,0,0,.017.113.133.133,0,0,1-.008.061,1.617,1.617,0,1,0-.009-.208Z" transform="translate(-228.251 -308.218)" fill="#f8f8f8"/>
                  <path id="Path_138" data-name="Path 138" d="M268.415,314.143l2.232-5.331-2.931.007a.208.208,0,1,1,0-.416l3.209-.008a.234.234,0,0,1,.13.008.239.239,0,0,1,.113.13.2.2,0,0,1,.018.069.178.178,0,0,1-.035.113l-2.336,5.591a.218.218,0,0,1-.19.131.159.159,0,0,1-.087-.017A.23.23,0,0,1,268.415,314.143Z" transform="translate(-232.394 -308.222)" fill="#f8f8f8"/>
                  <path id="Path_139" data-name="Path 139" d="M278.225,308.321a1.261,1.261,0,0,1,.752,2.279,1.965,1.965,0,1,1-1.5,0,1.281,1.281,0,0,1-.506-1.021A1.253,1.253,0,0,1,278.225,308.321Zm.015,5.655a1.553,1.553,0,1,0-1.556-1.548A1.545,1.545,0,0,0,278.24,313.976Zm-.009-3.539a.864.864,0,0,0,.847-.861.846.846,0,0,0-1.691.005A.857.857,0,0,0,278.231,310.437Z" transform="translate(-236.221 -308.193)" fill="#f8f8f8"/>
                  <path id="Path_140" data-name="Path 140" d="M297.357,308.271a2,2,0,0,1,2,1.765c.009.017.009.025.017.043.01.165.019.338.019.52a5.031,5.031,0,0,1-.575,2.422,2.511,2.511,0,0,1-2.122,1.324h-.008a.206.206,0,0,1-.217-.2.22.22,0,0,1,.207-.226,2.059,2.059,0,0,0,1.767-1.106,3.832,3.832,0,0,0,.431-1.215,2.006,2.006,0,1,1-1.519-3.327Zm1.593,1.991a1.583,1.583,0,1,0-1.583,1.583A1.574,1.574,0,0,0,298.95,310.262Z" transform="translate(-244.563 -308.171)" fill="#f8f8f8"/>
                  <path id="Path_141" data-name="Path 141" d="M305.23,311.286a3.865,3.865,0,0,1,.576-2.126,1.72,1.72,0,0,1,3.036-.008,3.947,3.947,0,0,1,.6,2.124,3.9,3.9,0,0,1-.585,2.118,1.713,1.713,0,0,1-3.036.008A3.82,3.82,0,0,1,305.23,311.286Zm.425,0a3.448,3.448,0,0,0,.516,1.881,1.292,1.292,0,0,0,2.324-.006,3.662,3.662,0,0,0-.01-3.764,1.291,1.291,0,0,0-2.324.006A3.443,3.443,0,0,0,305.655,311.285Z" transform="translate(-248.875 -308.159)" fill="#f8f8f8"/>
                  <path id="Path_142" data-name="Path 142" d="M316.761,308.859l-.857.506a.2.2,0,0,1-.287-.069.2.2,0,0,1,.077-.287l1.17-.715a.221.221,0,0,1,.287.078.257.257,0,0,1,.026.156l.015,5.577a.205.205,0,0,1-.207.208.212.212,0,0,1-.209-.207Z" transform="translate(-253.401 -308.171)" fill="#f8f8f8"/>
                  <path id="Path_143" data-name="Path 143" d="M321.03,313.909l2.829-2.566a1.575,1.575,0,0,0,.517-1.163,1.566,1.566,0,0,0-1.565-1.549,1.579,1.579,0,0,0-1.057.4l-.294.27a.209.209,0,0,1-.287-.3l.294-.278a2.033,2.033,0,0,1,1.343-.515,1.994,1.994,0,0,1,1.983,1.973,2,2,0,0,1-.646,1.476l-2.422,2.2,2.871-.007a.212.212,0,0,1,0,.425l-3.383.009h-.034a.2.2,0,0,1-.157-.061A.228.228,0,0,1,321.03,313.909Z" transform="translate(-255.75 -308.142)" fill="#f8f8f8"/>
                  <path id="Path_144" data-name="Path 144" d="M343.192,308.532l-1.565,1.617a2.036,2.036,0,0,1,1.645,2.008,2.028,2.028,0,0,1-.6,1.458,2.061,2.061,0,0,1-1.456.611,2.021,2.021,0,0,1-1.45-.6.214.214,0,1,1,.3-.3,1.632,1.632,0,0,0,1.146.465,1.649,1.649,0,0,0,1.152-.471,1.625,1.625,0,0,0,.475-1.155,1.629,1.629,0,0,0-1.627-1.618.225.225,0,0,1-.173-.086h-.008a.219.219,0,0,1,0-.312l1.505-1.556-2.324.006a.217.217,0,0,1,0-.434l2.836-.007a.214.214,0,0,1,.217.216.175.175,0,0,1-.026.1A.192.192,0,0,1,343.192,308.532Z" transform="translate(-263.934 -308.118)" fill="#f8f8f8"/>
                  <path id="Path_145" data-name="Path 145" d="M352.241,312.968l-3.287.008h-.026a.179.179,0,0,1-.13-.043.2.2,0,0,1-.026-.294l3.5-4.38.009-.009a.2.2,0,0,1,.294-.026.276.276,0,0,1,.07.1c0,.017.008.026.008.035v.026l.011,4.163h.408a.208.208,0,1,1,0,.416h-.408l0,1.041a.213.213,0,0,1-.425,0Zm0-.416L352.231,309l-2.862,3.563Z" transform="translate(-267.876 -308.127)" fill="#f8f8f8"/>
                  <path id="Path_146" data-name="Path 146" d="M359.2,313.581a.209.209,0,0,1,0-.3.22.22,0,0,1,.312,0,1.631,1.631,0,0,0,1.146.466,1.628,1.628,0,0,0,1.618-1.626,1.619,1.619,0,0,0-2.77-1.137.209.209,0,0,1-.3,0,.138.138,0,0,1-.053-.069V310.9a.032.032,0,0,1-.008-.026.163.163,0,0,1-.009-.069.424.424,0,0,0,.008-.043l.289-2.447a.183.183,0,0,1,.086-.157.2.2,0,0,1,.138-.052l2.828-.007a.215.215,0,0,1,.217.216.21.21,0,0,1-.216.217l-2.645.007-.212,1.8a2.041,2.041,0,0,1,1.031-.28,2.042,2.042,0,0,1,2.052,2.05,2.033,2.033,0,0,1-.594,1.458,2.107,2.107,0,0,1-1.456.6A2.054,2.054,0,0,1,359.2,313.581Z" transform="translate(-272.426 -308.096)" fill="#f8f8f8"/>
                  <path id="Path_147" data-name="Path 147" d="M369.048,309.417a2.463,2.463,0,0,1,2.121-1.324.211.211,0,0,1,.218.2.227.227,0,0,1-.208.226,2.055,2.055,0,0,0-1.766,1.106,3.977,3.977,0,0,0-.431,1.215,2,2,0,1,1-.5,1.389,3.077,3.077,0,0,1-.018-.4A5.012,5.012,0,0,1,369.048,309.417Zm-.14,2.776a.413.413,0,0,0,.018.112.129.129,0,0,1-.009.061,1.617,1.617,0,1,0-.009-.208Z" transform="translate(-276.504 -308.093)" fill="#f8f8f8"/>
                </g>
                <rect id="Rectangle_15" data-name="Rectangle 15" width="52.945" height="2.602" transform="matrix(1, -0.003, 0.003, 1, 1.984, 43.75)" fill="#a6a6a6"/>
                <rect id="Rectangle_16" data-name="Rectangle 16" width="37.483" height="2.602" transform="translate(1.999 49.529) rotate(-0.149)" fill="#a6a6a6"/>
                <rect id="Rectangle_17" data-name="Rectangle 17" width="26.406" height="2.602" transform="translate(47.62 0.113) rotate(-0.149)" fill="#a6a6a6"/>
              </g>
            </g>
            <g id="Group_72" data-name="Group 72" transform="translate(0 17.777)">
              <rect id="Rectangle_18" data-name="Rectangle 18" width="117.867" height="57.769" fill="#ffc727"/>
              <rect id="Rectangle_19" data-name="Rectangle 19" width="117.867" height="57.769" fill="#407bff" opacity="0.2"/>
            </g>
          </g>
          <g id="Group_74" data-name="Group 74" transform="translate(8.576 89.418)">
            <rect id="Rectangle_20" data-name="Rectangle 20" width="117.867" height="57.769" fill="#ffc727"/>
            <rect id="Rectangle_21" data-name="Rectangle 21" width="117.867" height="57.769" opacity="0.3"/>
          </g>
          <g id="Group_75" data-name="Group 75" transform="translate(8.576 100.001)">
            <rect id="Rectangle_22" data-name="Rectangle 22" width="117.867" height="47.186" fill="#ffc727"/>
            <rect id="Rectangle_23" data-name="Rectangle 23" width="117.867" height="47.186" fill="#407bff" opacity="0.2"/>
          </g>
        </g>
        <g id="Group_79" data-name="Group 79" transform="translate(0 55.681)">
          <path id="Path_148" data-name="Path 148" d="M293.864,349.221l-122.8-17.484V230.927L175,233.848a13.232,13.232,0,0,0,6.474,2.529l112.39,12.035Z" transform="translate(-170.887 -230.927)" fill="#407bff"/>
          <g id="Group_77" data-name="Group 77" transform="translate(0 4.332)">
            <rect id="Rectangle_24" data-name="Rectangle 24" width="0.563" height="1.126" transform="translate(0 0.444) rotate(-51.972)" fill="#fff"/>
            <path id="Path_149" data-name="Path 149" d="M287.5,257.646l-2.271-.254.063-.56,2.271.254Zm-3.974-.444-2.271-.253.063-.56,2.271.253Zm-3.974-.444-2.271-.254.063-.56,2.271.254Zm-3.974-.444-2.271-.253.062-.56,2.271.254Zm-3.975-.444-2.271-.254.062-.56,2.272.254Zm-3.974-.444-2.271-.254.063-.56,2.271.254Zm-3.974-.444-2.271-.254.063-.56,2.271.255Zm-3.974-.444-2.271-.254.063-.56,2.271.253Zm-3.975-.444-2.27-.255.063-.56,2.27.254Zm-3.974-.445-2.271-.253.063-.56,2.271.253Zm-3.974-.444-2.271-.254.063-.56,2.271.254Zm-3.974-.444-2.271-.253.063-.56,2.271.253Zm-3.974-.444-2.271-.254.063-.56,2.271.254Zm-3.974-.444-2.27-.253.063-.56,2.27.253Zm-3.974-.444-2.271-.254.062-.56,2.271.254Zm-3.974-.444-2.271-.253.063-.56,2.271.253Zm-3.974-.444-2.271-.254.063-.56,2.271.254Zm-3.975-.444-2.27-.253.063-.56,2.27.253Zm-3.974-.444-2.271-.254.062-.56,2.271.255Zm-3.974-.444-2.271-.253.063-.56,2.271.254Zm-3.974-.444-2.271-.255.063-.56,2.271.254Zm-3.975-.445-2.271-.253.063-.56,2.271.253Zm-3.974-.444-2.271-.254.062-.56,2.271.254Zm-3.974-.444-2.271-.253.063-.56,2.271.253Zm-3.974-.444-2.271-.253.063-.56,2.271.253Zm-3.974-.444-2.271-.254.063-.56,2.27.254Zm-3.974-.444-1.353-.151q-.47-.053-.933-.138l.1-.554q.443.081.894.131l1.353.151Zm-3.982-.714a13.6,13.6,0,0,1-2.15-.9l.262-.5a12.92,12.92,0,0,0,2.06.863Zm-3.643-1.813q-.282-.2-.554-.411l-1.267-.991.347-.444,1.268.991q.261.2.532.395Z" transform="translate(-172.489 -239.979)" fill="#fff"/>
            <path id="Path_150" data-name="Path 150" d="M379.466,270.872H378.9V270l-.869-.1.063-.56,1.37.153Z" transform="translate(-261.317 -252.043)" fill="#fff"/>
            <path id="Path_151" data-name="Path 151" d="M380.14,361.13h-.563V358.85h.563Zm0-3.988h-.563v-2.279h.563Zm0-3.988h-.563v-2.279h.563Zm0-3.988h-.563v-2.279h.563Zm0-3.988h-.563V342.9h.563Zm0-3.988h-.563v-2.279h.563Zm0-3.988h-.563v-2.279h.563Zm0-3.988h-.563v-2.279h.563Zm0-3.988h-.563v-2.279h.563Zm0-3.988h-.563v-2.279h.563Zm0-3.988h-.563v-2.279h.563Zm0-3.988h-.563v-2.279h.563Zm0-3.988h-.563v-2.279h.563Zm0-3.988h-.563V307h.563Zm0-3.988h-.563v-2.279h.563Zm0-3.988h-.563v-2.279h.563Zm0-3.988h-.563v-2.279h.563Zm0-3.988h-.563v-2.279h.563Zm0-3.988h-.563v-2.279h.563Zm0-3.988h-.563v-2.279h.563Zm0-3.988h-.563v-2.279h.563Zm0-3.988h-.563V275.1h.563Z" transform="translate(-261.991 -254.558)" fill="#fff"/>
            <path id="Path_152" data-name="Path 152" d="M379.462,432.374l-1.437-.214.082-.556.791.117v-.8h.563Z" transform="translate(-261.313 -322.64)" fill="#fff"/>
            <path id="Path_153" data-name="Path 153" d="M288.055,419.326l-2.242-.333.082-.556,2.242.333Zm-3.924-.583-2.242-.333.082-.556,2.243.332Zm-3.924-.583-2.242-.332.083-.557,2.242.333Zm-3.923-.582-2.242-.333.083-.556,2.242.333ZM272.361,417l-2.242-.333.083-.556,2.242.333Zm-3.924-.583-2.242-.333.082-.556,2.243.333Zm-3.924-.583-2.242-.333.082-.556,2.242.332Zm-3.923-.583-2.242-.333.083-.557,2.242.333Zm-3.924-.583-2.242-.333.083-.557,2.242.333Zm-3.924-.583-2.242-.333.082-.557,2.243.333Zm-3.924-.583-2.242-.333.082-.556,2.242.333Zm-3.923-.583-2.242-.333.083-.556,2.242.333Zm-3.924-.583L238.73,412l.083-.556,2.242.333Zm-3.924-.582-2.242-.333.082-.556,2.243.333Zm-3.924-.583-2.242-.333.082-.557,2.242.333Zm-3.923-.583-2.242-.333.083-.556,2.242.333ZM225.278,410l-2.243-.333.083-.556,2.242.333Zm-3.924-.583-2.242-.333.082-.556,2.242.333Zm-3.924-.582-2.242-.333.083-.556,2.242.333Zm-3.924-.583-2.242-.333.083-.556,2.242.333Zm-3.924-.583-2.242-.333.083-.557,2.242.333Zm-3.924-.583-2.242-.332.083-.557,2.242.333Zm-3.924-.583-2.242-.333.082-.556,2.242.333Zm-3.924-.582-2.242-.333.083-.556,2.242.333Zm-3.924-.583-2.242-.333.083-.556,2.242.333Zm-3.924-.583-2.242-.333.083-.556,2.242.333Zm-3.924-.583-2.242-.333.082-.556,2.242.332Zm-3.924-.583-2.242-.332.083-.557,2.242.333Zm-3.924-.582-2.242-.333.083-.556,2.242.333Z" transform="translate(-173.024 -310.056)" fill="#fff"/>
            <rect id="Rectangle_25" data-name="Rectangle 25" width="0.563" height="1.126" transform="translate(0.132 92.205) rotate(-81.548)" fill="#fff"/>
          </g>
          <g id="Group_78" data-name="Group 78" transform="translate(102.248 61.715)">
            <ellipse id="Ellipse_7" data-name="Ellipse 7" cx="4.896" cy="5.576" rx="4.896" ry="5.576" fill="#ebebeb"/>
            <path id="Path_154" data-name="Path 154" d="M361.543,348.419a2.3,2.3,0,1,1-2.277-2.593A2.45,2.45,0,0,1,361.543,348.419Z" transform="translate(-354.371 -342.843)" fill="#dbdbdb"/>
          </g>
        </g>
      </g>
    </g>
    <g id="Coins" transform="translate(49.396 54.782)">
      <g id="Group_87" data-name="Group 87" transform="translate(0)">
        <g id="Group_82" data-name="Group 82" transform="translate(84.061 178.596)">
          <path id="Path_155" data-name="Path 155" d="M324.931,392.486c23.343,4.189,17.178,38.77-6.2,34.574C295.384,422.871,301.55,388.29,324.931,392.486Z" transform="translate(-302.621 -391.771)" fill="#ffc727"/>
          <path id="Path_156" data-name="Path 156" d="M324.931,392.486c23.343,4.189,17.178,38.77-6.2,34.574C295.384,422.871,301.55,388.29,324.931,392.486Z" transform="translate(-302.621 -391.771)" opacity="0.2"/>
          <path id="Path_157" data-name="Path 157" d="M321.666,391.812c22.248,3.992,16.081,38.573-6.2,34.574C293.216,422.394,299.383,387.813,321.666,391.812Z" transform="translate(-301.547 -391.491)" fill="#ffc727"/>
          <path id="Path_158" data-name="Path 158" d="M321.666,391.812c22.248,3.992,16.081,38.573-6.2,34.574C293.216,422.394,299.383,387.813,321.666,391.812Z" transform="translate(-301.547 -391.491)" opacity="0.1"/>
          <path id="Path_159" data-name="Path 159" d="M306.71,412.4c.119,6.161,3.706,12.131,11.538,13.535,18.491,3.318,23.612-25.383,5.149-28.7-.121-.021-.242-.043-.364-.057,17.313,3.466,12.351,30.626-5.28,27.462A12.836,12.836,0,0,1,306.71,412.4Z" transform="translate(-303.803 -393.976)" opacity="0.1"/>
          <g id="Group_81" data-name="Group 81" transform="translate(8.946 6.829)" opacity="0.1">
            <path id="Path_160" data-name="Path 160" d="M327.428,403.636a.6.6,0,0,1,.427.712l-.237.949a7.981,7.981,0,0,1,3.809,2.714.682.682,0,0,1,.2.629.627.627,0,0,1-.765.439.6.6,0,0,1-.386-.273,6.966,6.966,0,0,0-3.174-2.43l-1.657,6.643c3.417,1.659,4.6,3.39,4.018,5.715-.628,2.515-3.183,3.767-6.173,3.122l-.461,1.851a.587.587,0,1,1-1.139-.284l.467-1.874a9.186,9.186,0,0,1-4.764-3.634.616.616,0,0,1,.6-1.008.622.622,0,0,1,.386.272,7.9,7.9,0,0,0,4.088,3.314l1.687-6.762c-3.364-1.671-4.509-3.343-3.917-5.715.6-2.4,3.141-3.7,6.054-3.051l.225-.9A.6.6,0,0,1,327.428,403.636Zm-2.771,8.886,1.616-6.477c-2.313-.526-4.175.47-4.6,2.179C321.269,409.837,321.78,411.023,324.657,412.522Zm.682,1.707-1.634,6.549c2.385.544,4.27-.447,4.72-2.25C328.835,416.89,328.253,415.687,325.34,414.229Z" transform="translate(-317.434 -403.619)"/>
          </g>
        </g>
        <g id="Group_84" data-name="Group 84" transform="translate(124.936 6)">
          <path id="Path_161" data-name="Path 161" d="M226.808,54.782c-23.42,0-23.459,33.3,0,33.3C250.228,88.086,250.266,54.782,226.808,54.782Z" transform="translate(-209.228 -54.782)" fill="#ffc727"/>
          <path id="Path_162" data-name="Path 162" d="M226.808,54.782c-23.42,0-23.459,33.3,0,33.3C250.228,88.086,250.266,54.782,226.808,54.782Z" transform="translate(-209.228 -54.782)" opacity="0.1"/>
          <path id="Path_163" data-name="Path 163" d="M243.369,76.753c-1.249,5.729-6,10.7-14.244,10.7-19.466,0-19.437-27.642,0-27.642.127,0,.255,0,.382.007-18.292.336-18.2,26.513.359,26.513C237.436,86.33,241.947,81.948,243.369,76.753Z" transform="translate(-211.547 -56.979)" opacity="0.1"/>
          <g id="Group_83" data-name="Group 83" transform="translate(11.131 6.475)" opacity="0.1">
            <path id="Path_164" data-name="Path 164" d="M235.584,66.282a.592.592,0,0,1,.608.556v.927a8.716,8.716,0,0,1,4.51,1.623c.228.163.355.3.355.534a.626.626,0,0,1-.659.579.652.652,0,0,1-.457-.162,7.575,7.575,0,0,0-3.8-1.506v6.491c3.851.742,5.473,2.064,5.473,4.336,0,2.458-2.255,4.2-5.422,4.289v1.809a.611.611,0,0,1-1.216,0V83.925a9.979,9.979,0,0,1-5.7-2.249A.592.592,0,0,1,229,81.19a.636.636,0,0,1,.633-.58.669.669,0,0,1,.456.163,8.533,8.533,0,0,0,4.941,2.11V76.275c-3.8-.765-5.372-2.041-5.372-4.359,0-2.341,2.23-4.127,5.321-4.2v-.881A.592.592,0,0,1,235.584,66.282Zm-.557,8.81V68.763c-2.458.046-4.079,1.391-4.079,3.06C230.948,73.4,231.758,74.374,235.027,75.092Zm1.115,1.414v6.4c2.534-.047,4.181-1.391,4.181-3.153C240.322,78.152,239.436,77.178,236.142,76.507Z" transform="translate(-228.996 -66.282)"/>
          </g>
        </g>
        <g id="Group_86" data-name="Group 86" transform="translate(15 74.742)">
          <path id="Path_165" data-name="Path 165" d="M73.691,158.055c17.05,3.059,12.547,28.316-4.531,25.252C52.111,180.248,56.614,154.991,73.691,158.055Z" transform="translate(-57.396 -157.533)" fill="#ffc727"/>
          <path id="Path_166" data-name="Path 166" d="M73.691,158.055c17.05,3.059,12.547,28.316-4.531,25.252C52.111,180.248,56.614,154.991,73.691,158.055Z" transform="translate(-57.396 -157.533)" opacity="0.2"/>
          <path id="Path_167" data-name="Path 167" d="M71.306,157.562c16.249,2.916,11.745,28.173-4.531,25.252C50.527,179.9,55.031,154.642,71.306,157.562Z" transform="translate(-56.612 -157.327)" fill="#ffc727"/>
          <path id="Path_168" data-name="Path 168" d="M71.306,157.562c16.249,2.916,11.745,28.173-4.531,25.252C50.527,179.9,55.031,154.642,71.306,157.562Z" transform="translate(-56.612 -157.327)" opacity="0.1"/>
          <path id="Path_169" data-name="Path 169" d="M60.382,172.6a9.8,9.8,0,0,0,8.427,9.886c13.506,2.424,17.246-18.539,3.761-20.959-.088-.016-.177-.032-.266-.042,12.645,2.531,9.021,22.369-3.857,20.058A9.376,9.376,0,0,1,60.382,172.6Z" transform="translate(-58.259 -159.143)" opacity="0.1"/>
          <g id="Group_85" data-name="Group 85" transform="translate(6.707 4.216)" opacity="0.1">
            <path id="Path_170" data-name="Path 170" d="M75.2,164.822a.435.435,0,0,1,.343.5l-.131.7a5.821,5.821,0,0,1,2.9,1.811.5.5,0,0,1,.171.45.458.458,0,0,1-.538.354.436.436,0,0,1-.293-.182,5.085,5.085,0,0,0-2.421-1.631l-.916,4.916c2.564,1.059,3.5,2.269,3.181,3.989-.347,1.862-2.155,2.887-4.362,2.549l-.255,1.369a.429.429,0,0,1-.843-.157l.258-1.387a6.71,6.71,0,0,1-3.634-2.439.45.45,0,0,1,.4-.762.452.452,0,0,1,.293.182,5.77,5.77,0,0,0,3.126,2.235l.932-5c-2.526-1.07-3.435-2.238-3.108-3.994.33-1.773,2.127-2.837,4.279-2.491l.124-.668A.434.434,0,0,1,75.2,164.822Zm-1.629,6.6.892-4.794c-1.71-.282-3.023.527-3.258,1.791C70.982,169.613,71.406,170.455,73.57,171.421Zm.573,1.215-.9,4.846c1.762.292,3.093-.514,3.342-1.848C76.807,174.422,76.33,173.57,74.142,172.636Z" transform="translate(-68.522 -164.814)"/>
          </g>
        </g>
      </g>
    </g>
  </g>
</svg>
