<svg xmlns="http://www.w3.org/2000/svg" width="122.516" height="42.412" viewBox="0 0 122.516 42.412">
    <path data-name="Path 11649" d="M312.376 164.853a17.519 17.519 0 0 1 6.111.774 39.22 39.22 0 0 1 10.094 3.947 8.56 8.56 0 0 1 3.277 2.831 1.683 1.683 0 0 1 .264.877 47.683 47.683 0 0 1-.6 8.194 41.508 41.508 0 0 1-2.918 10.546 30.594 30.594 0 0 1-6.506 9.473 29.336 29.336 0 0 1-7.172 5.226c-.3.153-.6.3-.932.462-.337-2.483-.088-4.9-.2-7.31a.771.771 0 0 1 .317-.662q3.433-3.115 6.841-6.259a6.756 6.756 0 0 0 1.266-1.458l-8.415 5.273c.047-1.725-.242-3.3-.165-4.9a1.057 1.057 0 0 1 .4-.849q4.891-4.306 9.743-8.655a1.851 1.851 0 0 0 .508-.631l-10.652 6.878c0-1.8.069-3.446-.032-5.086a1.884 1.884 0 0 1 .678-1.573c1.575-1.608 3.14-3.226 4.614-4.969l-5.372 3.614c-.137-1.573-.272-3.057-.393-4.542-.16-1.972-.31-3.945-.46-5.918a.409.409 0 0 0-.289-.415 9.578 9.578 0 0 1-.007-4.868z" transform="translate(-209.614 -164.772)" style="fill:#005380"/>
    <path data-name="Path 11650" d="M210.169 165.015v4.865c-.276 3.586-.5 7.176-.927 10.849l-5.608-3.765-.166.192c1.291 1.248 4.6 4.485 4.616 4.472 1.247 1.026 1.176 2.209 1.135 3.5-.038 1.172-.008 2.346-.008 3.676l-10.478-6.772a11.422 11.422 0 0 0 2.155 2.167c1.793 1.665 3.652 3.258 5.484 4.88.8.707 1.592 1.422 2.4 2.115a.781.781 0 0 1 .3.669c-.013 1.657-.006 3.315-.006 5.127l-8.655-5.455a6.471 6.471 0 0 0 1.624 1.711c2.222 2.1 4.5 4.134 6.752 6.2a.851.851 0 0 1 .261.787c-.328 2.3-.056 4.611-.163 6.915 0 .026-.009.052-.033.179a12.979 12.979 0 0 1-2.708-1.412 27.629 27.629 0 0 1-7.027-5.93 30.672 30.672 0 0 1-3.666-5.29 34.661 34.661 0 0 1-2.98-7.4 52.578 52.578 0 0 1-1.249-5.739 69.37 69.37 0 0 1-.536-6.934 4.2 4.2 0 0 1 2.165-4 32.868 32.868 0 0 1 8.782-4.046c2.789-.868 5.567-1.738 8.536-1.561z" transform="translate(-107.407 -164.992)" style="fill:#072c4c"/>
    <g data-name="Group 38365">
        <path data-name="Subtraction 16" d="M1.819 11.379c-.256 0-.514-.014-.764-.028h-.03c-.243-.013-.494-.027-.741-.027H.253a.247.247 0 0 1-.2-.07.5.5 0 0 1-.042-.375c0-.032.008-.062.01-.089.032-.4.09-.8.147-1.184l.048-.33c.025-.178.1-.257.234-.257a.971.971 0 0 1 .192.028l.075.015a5.558 5.558 0 0 0 1.009.119.992.992 0 0 0 .957-.429 2.94 2.94 0 0 0 .245-1.469V5.871c.005-1.452.01-2.953-.017-4.429a.885.885 0 0 1 .168-.663.753.753 0 0 1 .564-.16h.182C5.067.653 5.067.653 5.081 1.99v.392a10.609 10.609 0 0 0 .159 2.125A1.279 1.279 0 0 0 6.42 5.66a10.1 10.1 0 0 0 1.125.054c.278 0 .56-.007.834-.014h.044l.427-.01a.447.447 0 0 0 .446-.243 1.267 1.267 0 0 0 .068-.521c0-.384 0-.775.005-1.153.006-.773.013-1.573-.023-2.351A.888.888 0 0 1 9.5.754a.536.536 0 0 1 .408-.141 1.593 1.593 0 0 1 .251.023.439.439 0 0 0 .071.005h.3c.6 0 .878.018 1.022.185s.146.489.146 1.122v.684c0 .51-.008 1.037.008 1.554a1.458 1.458 0 0 0 1.512 1.511c.275.008.576.012.947.012h1.56a4.684 4.684 0 0 1-.362-1.552 3.989 3.989 0 0 1 .228-1.531 3.925 3.925 0 0 1 .865-1.428 3.677 3.677 0 0 1 1.4-.9A4.584 4.584 0 0 1 19.432 0 3.429 3.429 0 0 1 21.9.95a3.306 3.306 0 0 1 .9 2.42c-.008 1.119-.012 1.735.283 2.032s.892.3 2.08.3c1.526 0 1.526 0 1.526-1.515 0-.282 0-.57.008-.847.009-.648.018-1.319-.022-1.975A.761.761 0 0 1 26.8.782c.106-.113.279-.159.6-.159h.133c1.3.014 1.3.014 1.3 1.378v1.416c0 1.2-.007 2.432.013 3.648a.865.865 0 0 1-.146.635.769.769 0 0 1-.563.155h-.014c-2.989-.017-5.452-.025-7.752-.025-2.754 0-5.249.012-7.628.036h-.009a1.453 1.453 0 0 1-.866-.358l-.04-.029-.016-.011a1.214 1.214 0 0 0-.668-.316.567.567 0 0 0-.152.021 2.877 2.877 0 0 0-.647.3 2.13 2.13 0 0 1-1.059.371h-.03a60.087 60.087 0 0 0-1.393-.019c-.452 0-.857.008-1.235.024h-.091a2.092 2.092 0 0 1-1.463-.629 6.182 6.182 0 0 1-.133 1.8 3.263 3.263 0 0 1-.855 1.511 2.929 2.929 0 0 1-2.267.848zm17.44-9.19a1.7 1.7 0 0 0-1.51.958 1.576 1.576 0 0 0 .354 2 2.11 2.11 0 0 0 1.552.606 3.242 3.242 0 0 0 .785-.1c.288-.073.251-.338.215-.594a.883.883 0 0 1-.006-.363c0-.109.006-.21.013-.309a1.519 1.519 0 0 0-.025-.536 6.151 6.151 0 0 1-.1-.389c-.138-.592-.281-1.205-1.143-1.265a.852.852 0 0 0-.135-.008z" transform="translate(8.647 24.477)" style="stroke:transparent;stroke-miterlimit:10;fill:#005380"/>
        <path data-name="Path 11652" d="M394.314 565.155a6.4 6.4 0 0 1-.8-2.367 1.376 1.376 0 0 0-1.948-1.054c-.457.134-1.114.6-1.326.336a5.158 5.158 0 0 1-.614-1.833c-.065-.238.1-.287.323-.354a6.989 6.989 0 0 1 3.788-.357 3.2 3.2 0 0 1 2.1 2.679 5.165 5.165 0 0 0 1.043 2.981c.4.479.118 1.25.108 1.886-.005.337-.343.217-.542.217-3.372.007-6.745-.008-10.117.019-.553 0-.632-.209-.619-.679a59.83 59.83 0 0 0 0-3.113 1.446 1.446 0 0 0-1.456-1.281c-.443.034-.268.363-.286.579-.11 1.343.047 2.682-.151 4.04a4.542 4.542 0 0 1-3.7 4.012 6.967 6.967 0 0 1-6.253-.851c-2.1-1.516-2.256-4.616-.806-6.7a.533.533 0 0 1 .826-.178c.389.26.945.373 1.192.719.272.38-.245.76-.4 1.146a2.534 2.534 0 0 0 1.949 3.666 4.789 4.789 0 0 0 4.371-.845 1.767 1.767 0 0 0 .639-1.523c-.03-1.718.054-3.44-.036-5.154-.049-.942.291-1.154 1.127-1.065.577.062 1.166 0 1.75.013 2.524.039 3.479 1.386 3.565 3.508.063 1.551.024 1.552 1.58 1.552z" transform="translate(-324.294 -534.979)" style="fill:#072c4c"/>
        <path data-name="Subtraction 17" d="M1.213 11.756a.373.373 0 0 1-.413-.271 3.037 3.037 0 0 1 .178-1.818l.044-.147c.015-.05.037-.075.066-.075A.226.226 0 0 1 1.2 9.5h.006a.246.246 0 0 0 .127.06h.958c.224 0 .426.005.63.005h.259A2.013 2.013 0 0 0 4.534 9.2 2.535 2.535 0 0 0 5.2 7.818H4.038c-.265 0-.481 0-.68.009h-.094a2.9 2.9 0 0 1-1.348-.332 3.36 3.36 0 0 1-1.058-.878 3.889 3.889 0 0 1-.735-1.455 3.6 3.6 0 0 1-.052-1.64 5.71 5.71 0 0 1 .784-2.075A3 3 0 0 1 2.641.2 5.62 5.62 0 0 1 4.084 0a3.2 3.2 0 0 1 2.332.87A3.017 3.017 0 0 1 7.114 2a4.7 4.7 0 0 1 .249 1.59c0 .476.012.96.024 1.429a19.5 19.5 0 0 1-.172 3.972 2.935 2.935 0 0 1-1.259 1.966 4.765 4.765 0 0 1-2.085.739 6.445 6.445 0 0 1-.862.052c-.36 0-.726-.021-1.08-.042l-.1-.006h-.044a2.012 2.012 0 0 0-.268.026H1.5a2.125 2.125 0 0 1-.287.03zm2.658-9.608a1.515 1.515 0 0 0-.506.1 1.666 1.666 0 0 0-.983 1.021 1.945 1.945 0 0 0 .131 1.63 2.764 2.764 0 0 0 2.011.828 1.4 1.4 0 0 0 .413-.054c.416-.129.339-.411.278-.638-.033-.121-.061-.226-.019-.295a3.019 3.019 0 0 0-.319-1.881 1.091 1.091 0 0 0-1.006-.711z" transform="translate(.502 24.499)" style="stroke:transparent;stroke-miterlimit:10;fill:#005380"/>
        <path data-name="Path 11654" d="M127.01 457.094c0-1.478-.163-2.97.688-4.332a4.248 4.248 0 0 1 3.981-1.873 4.388 4.388 0 0 1 3.488 2.962c.076.33.139.612-.4.59-.7-.028-1.293.076-1.688-.815a2.216 2.216 0 0 0-2.624-.958 2.509 2.509 0 0 0-1.7 2.457q-.051 1.945 0 3.892a2.346 2.346 0 0 0 2.838 2.391 2.437 2.437 0 0 0 2.064-2.883c-.049-.353-.2-.427-.5-.414s-.584 0-.876 0c-1.06 0-1.138-.1-1.007-1.156.033-.263.069-.424.379-.422 1.1.009 2.206 0 3.308 0 .2 0 .417.006.407.279-.054 1.461.272 2.961-.576 4.333a4.108 4.108 0 0 1-4.6 1.835 3.855 3.855 0 0 1-3.174-3.657c-.044-.735-.008-1.483-.008-2.229z" transform="translate(-126.901 -447.579)" style="fill:#082c4d"/>
        <path data-name="Path 11655" d="M182.941 457.76c0-1.72.023-3.44-.013-5.158-.011-.557.16-.7.7-.695 2.076.03 4.153.046 6.229-.007.693-.018.686.3.7.807.012.541-.054.813-.716.789-1.523-.056-3.05 0-4.574-.028-.5-.01-.688.13-.663.648.039.777.033 1.558 0 2.335-.021.514.173.678.676.667 1.265-.027 2.533.036 3.8-.026.7-.035.675.325.691.819.018.545-.061.828-.722.8-1.23-.056-2.466.018-3.7-.031-.618-.025-.788.186-.746.772a14.024 14.024 0 0 1 0 2.042c-.048.627.206.759.782.744 1.491-.037 2.986.029 4.476-.031.694-.028.692.3.695.811s-.015.821-.7.8a157.74 157.74 0 0 0-6.229-.006c-.552.008-.709-.151-.7-.7.034-1.782.014-3.567.014-5.352z" transform="translate(-171.943 -448.417)" style="fill:#072c4c"/>
        <path data-name="Subtraction 14" d="M3.51 8.737a2.863 2.863 0 0 1-1.733-.5A3.452 3.452 0 0 1 .3 6.481 9.64 9.64 0 0 1 0 4a5.592 5.592 0 0 1 .594-2.419A2.923 2.923 0 0 1 3.521 0a7.5 7.5 0 0 1 .526.019 2.67 2.67 0 0 1 1.438.5A3.152 3.152 0 0 1 6.431 1.7a6.041 6.041 0 0 1 .544 2.821c0 .406-.142.556-.513.556h-.054a24.643 24.643 0 0 0-.872-.013H3.09c-.293 0-.535 0-.76-.013h-.128c-.252 0-.388.04-.456.134s-.065.287.031.571A2.089 2.089 0 0 0 3.782 7.15a2.462 2.462 0 0 0 1.361-.425 1.113 1.113 0 0 1 .6-.225c.345 0 .529.3.692.563.042.068.081.132.122.189a.424.424 0 0 1 .1.356c-.049.177-.281.278-.485.367a1.33 1.33 0 0 0-.2.1 5.159 5.159 0 0 1-2.462.662zm.766-5.063c.189 0 .342.005.483.016h.122a.494.494 0 0 0 .42-.146c.09-.119.088-.315 0-.635a1.786 1.786 0 0 0-1.74-1.4 2.232 2.232 0 0 0-.578.079 1.913 1.913 0 0 0-.961.7A1.286 1.286 0 0 0 1.7 3.339c.01.319.378.353.536.353a.668.668 0 0 0 .123-.008 2.216 2.216 0 0 0 .254.006H3.9c.126-.014.252-.016.376-.016z" transform="translate(28.604 6.787)" style="stroke:transparent;stroke-miterlimit:10;fill:#005380"/>
        <path data-name="Subtraction 15" d="M3.577 8.793c-.079 0-.16 0-.241-.006a3.513 3.513 0 0 1-2.183-.825A3.133 3.133 0 0 1 .12 5.906a8.777 8.777 0 0 1 .124-3.56A3.068 3.068 0 0 1 3.574 0a7.818 7.818 0 0 1 .866.052 2.8 2.8 0 0 1 1.834 1.062 3.594 3.594 0 0 1 .805 2.166c.006.238 0 .471 0 .74v.416a5.131 5.131 0 0 0-.021.642 3.9 3.9 0 0 1-.116 1.188A3.547 3.547 0 0 1 5.721 8.14a3.47 3.47 0 0 1-2.144.653zM3.565 1.6c-.054 0-.109 0-.165.005a1.613 1.613 0 0 0-1.58 1.71 11.63 11.63 0 0 0 0 .647V4.634c0 .268-.006.544 0 .816a1.5 1.5 0 0 0 1.515 1.634c.1.006.175.008.247.008a1.5 1.5 0 0 0 1.724-1.473 13.617 13.617 0 0 0 0-2.519 1.6 1.6 0 0 0-1.74-1.5z" transform="translate(66.221 6.763)" style="stroke:transparent;stroke-miterlimit:10;fill:#005380"/>
        <path data-name="Path 11658" d="M322.48 469.9c.633-.421 1.066-.957 1.824-.981 1.993-.065 3.185.933 3.269 2.949.07 1.683-.008 3.372.025 5.058.018.9-.626.5-1.017.565-.468.082-.78.008-.761-.63.047-1.555.02-3.112.013-4.669a1.544 1.544 0 0 0-1.654-1.7 1.479 1.479 0 0 0-1.706 1.626c-.025 1.491-.045 2.984.01 4.474.026.712-.147.945-.9.938-.716-.006-.842-.244-.83-.892.038-2.237 0-4.474.03-6.712 0-.357-.336-.992.494-.983.623.01 1.399-.223 1.203.957z" transform="translate(-282.907 -462.122)" style="fill:#005380"/>
        <path data-name="Path 11659" d="M331.893 540.257c0-1.876.02-3.753-.012-5.628-.01-.555.156-.7.7-.7 1.449 0 1.449-.03 1.449 1.4 0 3.558-.041 7.117.024 10.674.021 1.118-.68.73-1.2.784-.582.06-1.023.066-.988-.8.08-1.911.027-3.822.027-5.73z" transform="translate(-291.884 -514.471)" style="fill:#005380"/>
        <path data-name="Path 11660" d="M363.058 468.727c1.7-.068 1.718-.072 2.224 1.359.533 1.508 1.037 3.025 1.6 4.679.634-1.828 1.229-3.552 1.832-5.273a1.3 1.3 0 0 1 1.719-.791c.339.141.174.346.1.547-.929 2.493-1.872 4.981-2.774 7.483-.174.482-.466.538-.886.524-.358-.013-.648.009-.814-.447-.971-2.678-1.98-5.344-3.001-8.081z" transform="translate(-317.003 -461.87)" style="fill:#005380"/>
        <path data-name="Path 11661" d="M433.625 470.01a2.9 2.9 0 0 1 3.525-.977c.256.091.876.295.4.685-.387.318-.223 1.467-1.26.914a1.675 1.675 0 0 0-2.618 1.536c-.016 1.492-.043 2.985.014 4.475.026.688-.246.78-.835.781-.616 0-.926-.073-.908-.823.053-2.2 0-4.411.04-6.615.008-.4-.422-1.146.543-1.135.655.007 1.542-.27 1.099 1.159z" transform="translate(-372.437 -462.025)" style="fill:#005480"/>
        <path data-name="Path 11662" d="M410.663 473.175c0-1.166.041-2.333-.015-3.5-.033-.7.35-.672.839-.688.533-.018.817.044.805.71-.042 2.4-.046 4.793 0 7.188.014.717-.352.666-.832.677-.513.012-.848-.015-.816-.7.056-1.224.019-2.456.019-3.687z" transform="translate(-355.324 -462.178)" style="fill:#005380"/>
        <path data-name="Path 11663" d="M236.3 488.54a11.358 11.358 0 0 0-1.743.017c-.99.156-1.033-.387-.992-1.118.022-.393.186-.484.535-.482 1.487.01 2.975.027 4.461-.006.749-.017.491.5.525.861.038.4.063.775-.557.738-.736-.045-1.481-.011-2.229-.01z" transform="translate(-212.717 -476.643)" style="fill:#005380"/>
        <path data-name="Path 11664" d="M402.972 624.13a1.021 1.021 0 0 1 1.118-1.183c.844-.039 1.138.5 1.2 1.162.08.805-.568 1.139-1.2 1.143a1.017 1.017 0 0 1-1.118-1.122z" transform="translate(-349.144 -586.16)" style="fill:#072c4c"/>
        <path data-name="Path 11665" d="M265.006 545.445a1.132 1.132 0 0 1-1.043-1.186c-.018-.8.519-1.1 1.141-1.148a1.055 1.055 0 0 1 1.182 1.1c.03.761-.472 1.13-1.28 1.234z" transform="translate(-237.201 -521.866)" style="fill:#005380"/>
        <path data-name="Path 11666" d="M308.964 545.473a1.156 1.156 0 0 1-.993-1.266 1.069 1.069 0 0 1 1.216-1.065 1.056 1.056 0 0 1 1.106 1.178c-.031.759-.547 1.099-1.329 1.153z" transform="translate(-272.64 -521.894)" style="fill:#005380"/>
        <path data-name="Path 11667" d="M228.384 607.016c.063.791-.308 1.107-1.091 1.092-.733-.014-1.183-.342-1.23-1.05-.053-.8.444-1.1 1.209-1.113s1.17.268 1.112 1.071z" transform="translate(-206.677 -572.47)" style="fill:#005380"/>
        <path data-name="Path 11668" d="M214.379 606.946a1.013 1.013 0 0 1-1.12 1.089c-.748.012-1.239-.272-1.218-1.08.017-.683.29-1.078 1.1-1.091s1.166.313 1.238 1.082z" transform="translate(-195.387 -572.404)" style="fill:#005380"/>
        <path data-name="Path 11669" d="M475.447 605.947c.806-.06 1.095.319 1.094 1.086 0 .793-.349 1.047-1.108 1.072a1.044 1.044 0 0 1-1.195-1.059 1 1 0 0 1 1.209-1.099z" transform="translate(-406.537 -572.459)" style="fill:#072c4c"/>
        <path data-name="Path 11670" d="M388.956 624.042c-.1-.8.435-.983 1.053-1.03a1.09 1.09 0 0 1 1.227 1.044c.085.535-.65 1.268-1.189 1.283a1.188 1.188 0 0 1-1.091-1.297z" transform="translate(-337.848 -586.21)" style="fill:#072c4c"/>
        <path data-name="Path 11671" d="M412.24 452.768c.183.735-.2.821-.832.851-.8.038-.738-.41-.779-.957-.051-.683.255-.756.832-.779.707-.028.939.225.779.885z" transform="translate(-355.307 -448.401)" style="fill:#005380"/>
    </g>
</svg>
