<svg xmlns="http://www.w3.org/2000/svg" width="207.23" height="144.405" viewBox="0 0 207.23 144.405">
    <g data-name="Group 38374">
        <path data-name="Path 11676" d="M-30.2 454.942c-1.019-1.75-1.956-3.36-2.895-4.97l-11.8-20.243c-.336-.576-.651-1.164-1-1.734-.308-.51-.2-.768.412-.766.127 0 .254.005.381.005h29.655c1.344 0 1.358.013.672 1.2q-7.454 12.854-14.92 25.7c-.115.217-.258.425-.505.808z" transform="translate(82.869 -358.984)" style="fill:#2b9c98"/>
        <path data-name="Path 11677" d="M162.738 454.685c-.975-1.664-1.891-3.219-2.8-4.778q-6.167-10.587-12.325-21.179c-.279-.48-.908-1.027-.638-1.486s1.058-.17 1.613-.171q14.649-.021 29.3-.025c.7 0 .936.071.509.8q-7.708 13.225-15.38 26.47c-.047.084-.117.155-.279.369z" transform="translate(-73.258 -358.786)" style="fill:#467c64"/>
        <path data-name="Path 11678" d="M229.357 542.388c-.471.051-.78.115-1.089.115q-14.879 0-29.758-.017c-1.218 0-1.246-.056-.631-1.113q6.143-10.572 12.289-21.141c.861-1.48 1.744-2.947 2.614-4.422.551-.934.618-.94 1.164 0q3.76 6.456 7.512 12.918c2.607 4.495 5.205 8.999 7.899 13.66z" transform="translate(-114.178 -430.087)" style="fill:#189d4c"/>
        <path data-name="Path 11679" d="M599.9 517.871c2.11 3.579 4.233 7.151 6.328 10.739q4.009 6.867 7.982 13.756c.08.137.145.284.236.413.43.605.328.83-.461.829q-15.359-.02-30.718 0c-.094 0-.189-.018-.292-.028-.191-.328.095-.541.22-.758q5.728-9.943 11.48-19.872c1.127-1.947 2.274-3.883 3.411-5.824.468.058.929-.463 1.4-.015l.091.179c-.035.27-.082.55.323.581z" transform="translate(-426.028 -431.559)" style="fill:#19ad7d"/>
        <path data-name="Path 11680" d="M-223.084 630.571h-14.791c-1.232 0-1.278-.081-.635-1.185l9.542-16.37c1.752-3.018 3.471-6.055 5.2-9.084.63-1.1.651-1.112 1.289-.026 2.568 4.373 5.086 8.776 7.632 13.161 2.358 4.061 4.715 8.125 7.1 12.169.1.164.192.329.288.493.386.66.176.847-.556.843-5.026-.022-10.052-.012-15.077-.012z" transform="translate(238.919 -501.283)" style="fill:#189d4c"/>
        <path data-name="Path 11681" d="M387.769 338.125H418.733c1.166 0 1.17.016.575 1.044l-14.855 25.657c-.616 1.064-.625 1.069-1.236.018q-7.449-12.819-14.889-25.642c-.173-.302-.318-.611-.559-1.077z" transform="translate(-268.139 -286.889)" style="fill:#467c64"/>
        <path data-name="Path 11682" d="M-14.468 298.273H-45.228c-.31 0-.747.129-.9-.116-.191-.315.152-.632.326-.931q3.271-5.633 6.533-11.271 4.2-7.25 8.406-14.495c.419-.718.744-.657 1.254.222q3.825 6.59 7.631 13.191 3.69 6.388 7.375 12.78a.659.659 0 0 1 .135.62z" transform="translate(82.972 -232.551)" style="fill:#189d4c"/>
        <path data-name="Path 11683" d="M64.54 259.9h14.981c1.05 0 1.079.051.543.976q-6.9 11.918-13.811 23.834-.6 1.031-1.188 2.065c-.5.875-.525.891-1.052-.011-1.844-3.155-3.665-6.323-5.5-9.484q-4.666-8.038-9.337-16.074c-.064-.11-.13-.219-.191-.33-.543-.983-.543-.983.572-.983H64.54z" transform="translate(6.259 -223.589)" style="fill:#2b9c98"/>
        <path data-name="Path 11684" d="M48.29 129.664c.943-1.635 1.881-3.277 2.833-4.911q5.154-8.845 10.313-17.686c.814-1.4 1.6-2.81 2.4-4.215.26-.456.442-.753.851-.042q6.07 10.575 12.193 21.12c.921 1.592 1.86 3.175 2.794 4.76.192.327.5.7.316 1.033-.135.249-.589.115-.9.115q-14.937.009-29.873.007a1.421 1.421 0 0 1-.927-.181z" transform="translate(6.536 -96.15)" style="fill:#189d4c"/>
        <path data-name="Path 11685" d="M486.717 504.785a2.4 2.4 0 0 1 1.116-.119q14.687-.007 29.373 0c.4 0 .965-.181 1.165.153.24.4-.229.8-.444 1.17-2.6 4.428-5.23 8.836-7.809 13.275-2.332 4.014-4.608 8.061-6.913 12.091-.575 1.005-.6 1-1.2-.036l-11.262-19.43c-1.195-2.058-2.412-4.1-3.608-6.161a1.846 1.846 0 0 1-.418-.943z" transform="translate(-348.198 -421.602)" style="fill:#189d4c"/>
        <path data-name="Path 11686" d="M485.953 375.609c.567-1.007 1.079-1.943 1.615-2.865q6.913-11.914 13.835-23.822c.572-.985.585-.977 1.164.025q7.448 12.869 14.9 25.738c.156.27.3.549.5.925z" transform="translate(-347.58 -295.033)" style="fill:#2b9c98"/>
        <path data-name="Path 11687" d="M-126.746 622.479c-1.243-2.127-2.4-4.091-3.54-6.061q-6.031-10.39-12.057-20.784c-.248-.428-.726-.893.342-.891q15.266.024 30.533.01c.182 0 .365.03.724.061z" transform="translate(161.04 -494.52)" style="fill:#467c64"/>
        <path data-name="Path 11688" d="M293.246 376.308c1.2-2.085 2.386-4.142 3.577-6.194q5.879-10.139 11.76-20.277c.315-.544.451-1.166 1.114-.157 1.413 2.148 2.635 4.4 3.927 6.618q5.495 9.427 10.932 18.886c.2.35.645.754.475 1.08-.216.417-.8.173-1.219.173q-14.59.022-29.179.007a2.939 2.939 0 0 1-1.387-.136z" transform="translate(-191.659 -295.804)" style="fill:#467c64"/>
        <path data-name="Path 11689" d="m309.625 532.372-3.24-5.578q-4.868-8.356-9.738-16.711-1.247-2.141-2.486-4.286c-.523-.91-.484-.98.566-.981q14.262-.006 28.524-.006c.572 0 1.146.025 1.717-.007.734-.042.713.237.407.761q-3.971 6.785-7.92 13.582-3.659 6.3-7.293 12.616a1.116 1.116 0 0 1-.537.61z" transform="translate(-192.133 -421.747)" style="fill:#2b9c98"/>
        <path data-name="Union 11" d="M0 27.559 6.924 15.77a4.627 4.627 0 0 1 1.13-1.918 9.068 9.068 0 0 1 1.534-2.66 39.119 39.119 0 0 1 2.625-4.712c1.144-2.012 2.329-4 3.475-6.011.329-.577.55-.679.748.054Q20.25 7.059 24.061 13.6t7.573 13.11c.139.242.248.5.419.849z" transform="translate(73.411 38.098)" style="stroke:transparent;stroke-miterlimit:10;fill:#189d4c"/>
        <path data-name="Union 10" d="M30.97 27.627c-5.787-.019-11.575-.005-17.362-.005q-6.3 0-12.592-.008c-1.221 0-1.235-.022-.6-1.1q4.076-6.987 8.163-13.968 1.248-2.133 2.5-4.264a2.068 2.068 0 0 1 .65-1.045 1.011 1.011 0 0 1 .038.262 1.011 1.011 0 0 0-.038-.262.081.081 0 0 1 .047-.1 2.679 2.679 0 0 1 .749-1.337 2.149 2.149 0 0 1 .029.333 2.149 2.149 0 0 0-.029-.333v-.006a.734.734 0 0 1 .359-.61.7.7 0 0 1 .02.166.7.7 0 0 0-.02-.166.175.175 0 0 1 .065-.155 8.612 8.612 0 0 1 1.484-2.478.746.746 0 0 1 .343-.643 1.676 1.676 0 0 1 .044.314 1.676 1.676 0 0 0-.044-.314.114.114 0 0 1 .066-.117A5.137 5.137 0 0 1 15.867 0a13.879 13.879 0 0 1 1.723 3.069v.013a.893.893 0 0 0-.042.255.893.893 0 0 1 .042-.255 1.43 1.43 0 0 1 .629 1q4.149 7.114 8.3 14.227c1.646 2.824 3.267 5.663 4.948 8.466.443.738.293.856-.472.856zM14.891 1.789zm-.016 0h-.028zm.049 0a.512.512 0 0 0 .383-.261.512.512 0 0 1-.383.26zm1.544-.181-.005-.008zm-.027-.044-.008-.013zm-1.053-.168c.022-.038.044-.073.065-.106-.022.032-.043.067-.066.105zm.071-.115c.157-.245.281-.36.387-.385-.107.024-.231.139-.388.384zM15.9.89z" transform="translate(55.197 69.641)" style="stroke:transparent;stroke-miterlimit:10;fill:#19ad7d"/>
        <path data-name="Union 9" d="M0 27.577 16.063 0c.852 1.455 1.641 2.779 2.409 4.115 1.341 2.335 2.668 4.677 4 7.016a14.163 14.163 0 0 1 1.888 3.281v.006c0 .049-.008.1-.01.144 0-.047 0-.1.01-.144a9.486 9.486 0 0 1 1.54 2.656 9.286 9.286 0 0 1-.724-.637 9.255 9.255 0 0 0 .724.638v.074-.073a10.729 10.729 0 0 1 1.546 2.643l.008.01a1.953 1.953 0 0 0-.058.457 1.953 1.953 0 0 1 .058-.457c1.1 1.186 1.632 2.721 2.494 4.055.594.919 1.066 1.916 1.594 2.878a1.691 1.691 0 0 1 .36.915zm31.348-.892zm.011 0a.921.921 0 0 0 .147-.015.921.921 0 0 1-.146.014zm.155-.016.032-.006zm-.894-.7-.034-.1zm-6.245-11a2.28 2.28 0 0 1-.021-.325 2.28 2.28 0 0 0 .022.327zm-.049-.558zm0 0zm-.345-.162a1.166 1.166 0 0 1-.088-.106 1.166 1.166 0 0 0 .092.108zm-1.55-2.613c0-.153.037-.341.038-.5.003.164-.034.35-.034.503z" transform="translate(18.217 69.986)" style="stroke:transparent;stroke-miterlimit:10;fill:#189d4c"/>
        <path data-name="Path 11693" d="m704.508 696.9.068.181c.071.869.221 1.694 1.183 2.049l.005.009A4.892 4.892 0 0 0 708 703l4.185 7.137c.293.5.135.677-.409.664-.667-.016-1.334-.005-2 0h-27.837c-.432 0-1.06.195-1.25-.161-.206-.387.252-.844.49-1.242l2-3.338c1.275-.108.757-1.277 1.134-1.916v-.007c.443-.039.581-.384.769-.713a8.584 8.584 0 0 1 1.417-2.24c.608-.54.794-.953.461-1.641l.048.027-.046-.03c.453-.023.57-.4.8-.7.468-.614.676-1.359 1.091-1.991a11.863 11.863 0 0 0 1.48-2.209 28.148 28.148 0 0 1 2.553-4.64c.415-.706 1.234-1.285.945-2.294l.011-.016a3.845 3.845 0 0 0 1.53-2.656c.3-.154.677-.3.738-.647.1-.551.475-.477.839-.5a2.6 2.6 0 0 0 1.53 2.664 2.547 2.547 0 0 0 .564 1.812c1.1 1.123 1.381 2.675 2.365 3.883a17.21 17.21 0 0 1 2.1 3.616c.18.415.2 1.171 1 1.038z" transform="translate(-505.096 -566.656)" style="fill:#189d4c"/>
        <path data-name="Union 8" d="M.055 27.37c-.2-.354.194-.7.417-.989.2-.256.166-.708.609-.766a.088.088 0 0 1 .066-.11 5.259 5.259 0 0 1 .945-1.928c1.144-2.077 2.364-4.117 3.557-6.169.092-.16.167-.349.4-.363-.014-.637.5-1.008.775-1.492 1.828-3.178 3.68-6.343 5.523-9.513a22.664 22.664 0 0 1 2.483-4.111.068.068 0 0 1 .072-.085c-.074-.271.007-.454.3-.516l.1-.269c-.064-.445.312-.64.5-1.06.335.545.79.872.836 1.452l.106.391c.378-.035.261.182.191.375l.218.261c0 .1-.009.206-.014.309 0-.1.01-.207.014-.309a2.812 2.812 0 0 1 1.013 1.639c-.9-.009-1.035-.493-1.034-1.059 0 .567.132 1.051 1.034 1.06a58.316 58.316 0 0 1 3.938 6.8 1.413 1.413 0 0 1 .719 1.215.062.062 0 0 1 .063.078 7.04 7.04 0 0 1 1.434 2.417c-.971-.25-1.437-.949-1.44-2.166 0 1.217.469 1.916 1.44 2.167q1.5 2.513 3 5.03a1.657 1.657 0 0 1 .116.449c.006.205-.01.426.289.441a.143.143 0 0 1 .1.14 6.551 6.551 0 0 1 1.452 2.565.072.072 0 0 1 .071.091 20.473 20.473 0 0 1 2.3 3.735c.2.365-.008.446-.319.451h-.572q-14.815 0-29.631-.012a2.438 2.438 0 0 0-.31.027 2.429 2.429 0 0 1-.316.028.45.45 0 0 1-.445-.204zm30.3.053q-4.668.006-9.337 0 4.672.003 9.341-.001zm-27.273 0a6.38 6.38 0 0 1-.6-.026c.184.013.382.021.604.022zm28.129-.334c0-.193-.215-.329-.335-.476.124.142.338.278.339.471zM1.222 25.473c.755-.349.783-1.211 1.208-1.752-.425.54-.453 1.403-1.208 1.752zm28.643-.346a2.018 2.018 0 0 1-.554-1.421 2.017 2.017 0 0 0 .555 1.421zm-25.4-4.651A10.106 10.106 0 0 1 2.43 23.72a10.1 10.1 0 0 0 2.038-3.244c.357-1.148 1.32-2.068 1.557-3.31-.237 1.242-1.2 2.162-1.557 3.31zm18.308-8.352a.9.9 0 0 1-.686-.978.9.9 0 0 0 .689.978zm-8.643-8.44a5.409 5.409 0 0 0-1.209 2.04 5.405 5.405 0 0 1 1.209-2.039 2.549 2.549 0 0 0 .7-1.578 2.547 2.547 0 0 1-.7 1.577zm2.8-1.467a.231.231 0 0 1-.16-.155.23.23 0 0 0 .162.155zm-1.9-.4a.269.269 0 0 0 .177-.3.269.269 0 0 1-.175.302zm1.57-.362h-.049a.849.849 0 0 1-.4-.117.8.8 0 0 0 .449.117zm-.448-.116zm-.206-.119a.848.848 0 0 0-.65-.161.63.63 0 0 1 .144-.017 1.009 1.009 0 0 1 .506.179zm11.487 18.89c.322 0 .328.2.289.44-.299-.014-.283-.235-.289-.44z" transform="translate(120.11 84.476)" style="fill:#82bd85;stroke:transparent;stroke-miterlimit:10"/>
        <path data-name="Path 11695" d="M389.923 210.333c1.813-3.16 3.614-6.327 5.442-9.479q3.955-6.818 7.941-13.617c.393.051.561-.214.72-.5.455-.832.916-1.662 1.382-2.506a4.824 4.824 0 0 1 1.4 2.036c.457.923.739 2.028 1.864 2.463l.01.014a2.843 2.843 0 0 0 1.543 2.643l-.049.028.052-.022c-.034.406-.213.93.071 1.191 1.287 1.181 1.592 2.977 2.747 4.245a1.974 1.974 0 0 1 .587 1.544c-.026.208-.078.535.164.6 1.055.269 1.1 1.293 1.538 2 1.511 2.443 3.043 4.877 4.312 7.457.231.469.592.8.838 1.24.416.738.234.9-.577.9q-14.5-.033-29-.019c-.339-.004-.715.109-.985-.218z" transform="translate(-269.881 -162.37)" style="fill:#189d4c"/>
        <path data-name="Path 11696" d="M241.945 204.428a34.371 34.371 0 0 0-13.438 4.519 22.382 22.382 0 0 0-3.5 2.612c-.372.35-.508.617-.084 1.007q1.858 1.709 3.7 3.439c.456.428.633.172.782-.274a3.051 3.051 0 0 1 1.826-2.274 1.8 1.8 0 0 1 2.15.513 1.555 1.555 0 0 1 .134 1.948 1.85 1.85 0 0 1-2.109.709c-.324-.047-.689-.545-.978.021-.254.5.044.863.4 1.155.727.6 1.4 1.251 2.482.505a1.583 1.583 0 0 1 1.95.226 1.513 1.513 0 0 1 .512 1.631 1.6 1.6 0 0 1-1.459 1.179 5.688 5.688 0 0 1-4.5-1.418c-.682-.51-1.056-.53-1.616.113a4.028 4.028 0 0 1-2.47 1.331 2.135 2.135 0 0 1-2.43-1.511 1.886 1.886 0 0 1 1.646-2.086 1.534 1.534 0 0 1 1.635.93c.111.237 0 .752.555.442.429-.24.458-.531.208-.942a11.009 11.009 0 0 0-2.122-2.271c-.652-.6-1.382-1.118-2.072-1.679-.257-.209-.49-.417-.822-.108-1.411 1.316-3.083 2.349-4.254 3.926-.167.225-.413.426-.287.755a.767.767 0 0 0 .51.4c.308.114.4-.14.464-.342a1.508 1.508 0 0 1 1.975-1.009A1.812 1.812 0 0 1 222 219.7a1.728 1.728 0 0 1-1.616 1.6 3.27 3.27 0 0 1-3.193-1.183c-.625-.785-1.067-.659-1.752-.131a6.613 6.613 0 0 1-4.027 1.524 1.641 1.641 0 0 1-1.763-1.154 1.714 1.714 0 0 1 2.648-1.936 2.233 2.233 0 0 0 2.7-1.3c.1-.555-.27-.836-.852-.655-1.3.4-1.912.231-2.351-.682a1.619 1.619 0 0 1 .273-1.939 1.588 1.588 0 0 1 1.9-.438 2.953 2.953 0 0 1 1.884 2.115c.215.844.571.828 1.148.259a71.023 71.023 0 0 1 3.2-2.984c.636-.554.539-.906-.057-1.423a29.538 29.538 0 0 0-12.614-6.174c-2.653-.653-5.379-.79-8.059-1.234a28.755 28.755 0 0 1 22.363 5.64 1.237 1.237 0 0 0 1.843-.061 25.383 25.383 0 0 1 10.622-5.107c2.267.129 4.477-.688 6.752-.4.328.036.811-.222.896.391z" transform="translate(-115.783 -178.042)" style="fill:#029a47"/>
        <path data-name="Subtraction 19" d="M46.181 9.9a2.862 2.862 0 0 1-1.852-.678 2.073 2.073 0 0 0-1.452-.486H25.9c-5.7 0-11.586 0-17.377.006h-.004a3.349 3.349 0 0 1-3.095-1.287.391.391 0 0 0-.315-.218.738.738 0 0 0-.317.112h-.006l-.078.04a3.822 3.822 0 0 1-1.7.427 3.272 3.272 0 0 1-2.064-.747 2.8 2.8 0 0 1-.807-3.047 3.39 3.39 0 0 1 .951-1.677A3.767 3.767 0 0 1 2.8 1.47a8.236 8.236 0 0 1 1.941-.186c.2 0 .406 0 .6.006h.035c.2 0 .4.006.595.006.236 0 .441 0 .626-.012h.047a.426.426 0 0 1 .316.1.64.64 0 0 1 .1.462v1.041c0 .9 0 1.83.007 2.745a1.623 1.623 0 0 0 .35 1.2 1.676 1.676 0 0 0 1.211.326h4.881c-.038-.227-.1-.445-.151-.656a2.966 2.966 0 0 1-.143-1.359 3.086 3.086 0 0 1 1.155-1.884 3.5 3.5 0 0 1 2.167-.7 4.358 4.358 0 0 1 .853.086 3.375 3.375 0 0 1 1.235.509 3.058 3.058 0 0 1 .878.9 3 3 0 0 1 .364 2.346c-.084.341-.082.544.008.658s.26.136.49.136h.253c1.8-.061 1.8-.061 1.8-1.946 0-.43 0-.864.008-1.284.01-1.019.02-2.071-.029-3.1A.88.88 0 0 1 22.56.19a1.1 1.1 0 0 1 .8-.19h.027a.966.966 0 0 1 .722.181.827.827 0 0 1 .146.634c-.045.784-.035 1.584-.026 2.43 0 .385.009.781.009 1.2a7.372 7.372 0 0 1 1.6-1.275 5.231 5.231 0 0 1 1.815-.641 5.375 5.375 0 0 1 .838-.068 4.128 4.128 0 0 1 2.776.991 4.206 4.206 0 0 1 1.358 2.708c.084.689.22 1.039.727 1.039a1.738 1.738 0 0 0 .4-.054.879.879 0 0 1 .208-.022 2.692 2.692 0 0 1 .3.023h.015a2.726 2.726 0 0 0 .3.023h.025a1.222 1.222 0 0 0 .832-.278 1.078 1.078 0 0 0 .284-.837c0-.207 0-.418.01-.623a6.924 6.924 0 0 0-.021-1.093 1.149 1.149 0 0 1 .147-.93 1.03 1.03 0 0 1 .811-.249h.16c.418.019.708.066.865.246a.958.958 0 0 1 .135.74 11.837 11.837 0 0 0-.031 1.194 9.187 9.187 0 0 1-.112 1.841h2.9c.857 0 1.549 0 2.177.008h.011c.461 0 .493-.284.524-.559a1.616 1.616 0 0 1 .04-.242 2.964 2.964 0 0 1 1.081-1.616 3.089 3.089 0 0 1 1.867-.6 3.684 3.684 0 0 1 .41.023 3.2 3.2 0 0 1 1.981.921 2.877 2.877 0 0 1 .791 1.949 2.482 2.482 0 0 1-.358 1.428 2.608 2.608 0 0 1-1.1.941 4.228 4.228 0 0 1-1.823.467zm.217-4.47h-.019A1.448 1.448 0 0 0 44.987 7a1.38 1.38 0 0 0 1.36 1.52h.036a1.254 1.254 0 0 0 .736-.233 1.544 1.544 0 0 0 .6-1.278 1.433 1.433 0 0 0-1.3-1.577zM16.54 4.022a1.614 1.614 0 0 0-1.462 1.406c-.01.056-.018.113-.024.17 0 .031-.006.063-.007.094v.136a1.4 1.4 0 0 0 1.4 1.536h.053a1.4 1.4 0 0 0 1.234-.764 1.983 1.983 0 0 0 .237-.831c0-.052.005-.1 0-.155a1.475 1.475 0 0 0-1.344-1.591h-.087zm11.66.038a2.2 2.2 0 0 0-.343.027c-1.872.3-2.874 1.65-3.679 3.069h6.109c.322 0 .4-.183.42-.5V6.59a2.385 2.385 0 0 0-.679-1.712 2.555 2.555 0 0 0-1.8-.82H28.2zM4.5 2.46h-.043a2.421 2.421 0 0 0-1.82.583l-.052.057-.032.037-.014.016-.005.007-.007.008a2.06 2.06 0 0 0-.488 1.325 2.344 2.344 0 0 0 .243 1 1.975 1.975 0 0 0 .3.46 1.349 1.349 0 0 0 .652.421 1.254 1.254 0 0 0 .333.044h.144a1.485 1.485 0 0 0 1.35-1.286 5.423 5.423 0 0 0 .075-.846c0-.126.009-.256.018-.384h-.031v-.953c0-.212 0-.477-.317-.484h-.291z" transform="translate(90.485 119.609)" style="fill:#1f1e1f;stroke:transparent;stroke-miterlimit:10"/>
        <path data-name="Union 6" d="M6.167 29.379a1.167 1.167 0 0 1 .07-.379 6.508 6.508 0 0 0 .818-3.142c.146-2.078.343-4.158.467-6.241.152-2.544.034-5.085-.055-7.629a.759.759 0 0 0-.764-.834c-.359.006-.881.428-.738.834.212.6.005 1.124.1 1.623l-.1.119c.007-.035.03-.094.018-.1-1.131-.807-1.028-2.011-1.1-3.195a16.309 16.309 0 0 1 .297-1.626A3.507 3.507 0 0 1 5.721 7c.193-.361-.214-.473-.179-.756-1.183.704-1.408 2.013-2.029 3.056a9.069 9.069 0 0 0-.505 1.491c-.131.567-.187.666-.236.9a1.633 1.633 0 0 0 0 .849c-.449-.164-.571-.719-.611-.941a5.015 5.015 0 0 1 .954-4.4 8.829 8.829 0 0 0 .535-.772c-.058-.053-.146-.117-.211-.172-.985.322-1.323 1.245-1.779 2.022A3.639 3.639 0 0 1 .071 10.1c-.5-3.3 1.652-4.778 4.251-6.077a3.509 3.509 0 0 0-1.346-.142c-.17.006-.335.012-.5 0A1.04 1.04 0 0 0 2 3.868c-.253.026-.505.052-.639-.153.134.206.386.18.639.154a1.032 1.032 0 0 1 .479.021C1.7 4.275.79 4.46.333 5.371a1.555 1.555 0 0 1 .929-2.1l.227-.15a5.445 5.445 0 0 1 4.183-.363c-.191-.765-.506-.931-1.6-1.194A11.539 11.539 0 0 0 2.66 1.44 5.92 5.92 0 0 1 4.13.5C5.371.3 6.563.415 7.258 1.831L8.23 0c.165.668.715 1 .8 1.788A3.343 3.343 0 0 1 12.857.613c.487.158.946.37 1.042.973-1.179-.057-2.34-.122-3.169 1.041a6.6 6.6 0 0 1 4.674.859.249.249 0 0 0-.006.051.244.244 0 0 1 .006-.05c1.012.378.839 1.244.83 2.067a5.294 5.294 0 0 0-1.6-1.481c.18-.111.329-.027.482.058a.477.477 0 0 0 .51.058.229.229 0 0 0 .029-.108.233.233 0 0 1-.029.107.477.477 0 0 1-.51-.058c-.153-.085-.3-.17-.482-.058-.046 0-.093 0-.14.007a.461.461 0 0 1-.458-.135c-.378-.011-.757-.02-1.136-.034-.791-.027-.177.3-.129.49a.345.345 0 0 1 .368.233c2.523 1.281 3.945 3.737 3.1 5.541-1.588-1.494-2.022-3.981-4.347-4.88a4.6 4.6 0 0 0 1.3 1.656c1.419 1.405 1.47 3.076 1.037 4.858-.039.163-.064.415-.313.387a.435.435 0 0 1-.41-.439c-.037-.42-.111-1.079-.755-1.15-.052-.006 0-.078.03-.163.521-1.415-.513-2.361-1.049-3.447-.22-.446-.6-.733-1.1-.4.8.9.7 2.055.8 3.155l.019-.005A6.074 6.074 0 0 1 11.3 12.4c-.156.564-.752.8-.706 1.427a2.466 2.466 0 0 1-.427-1.7c.03-.437-.047-.877-.512-.9s-.716.259-.725.84A79.632 79.632 0 0 0 9.211 23.3a16.5 16.5 0 0 1 .126 2.912 3.606 3.606 0 0 0 .463 1.979c.19.36.377.722.62 1.187zM4.306 5.526a.584.584 0 0 0-.059-.126l-.066.07.066-.07a.584.584 0 0 1 .059.126zM12.1 3.932c0-.416.434-.258.667-.242a2.006 2.006 0 0 0 .376-.025.82.82 0 0 1 .857.225.82.82 0 0 0-.859-.225 2.011 2.011 0 0 1-.376.025c-.1-.007-.248-.042-.375-.042-.157 0-.29.052-.29.284zm1.926-.011-.012-.016zm-.017-.021zM1.36 3.715z" transform="translate(98.533)" style="fill:#029a47"/>
        <path data-name="Path 11699" d="M38.487 706.064h-4.481c-.354 0-.652-.009-.86.4a5.308 5.308 0 0 1-6.256 2.527c-2.426-.674-3.783-2.561-3.864-5.354 0-.127.006-.255 0-.381-.036-.541-.051-1.008.748-.952.6.042 1.051-.039 1.046.857-.008 1.61.4 3.09 2.042 3.881a3.286 3.286 0 0 0 4.922-2.749c.123-1.963.1-3.938.08-5.907-.009-.713.267-.827.891-.827.644 0 .979.073.95.864-.064 1.777-.014 3.558-.025 5.338 0 .467.027.75.655.742 2.572-.036 5.145-.027 7.717.01.905.013 1.28-.339 1.223-1.244-.045-.728.016-1.462-.015-2.192-.033-.79.541-.538.924-.549.4-.012.945-.212.923.557-.027.984.032 1.972-.018 2.955a1.856 1.856 0 0 1-2.12 2.017c-1.495.023-2.989.006-4.482.007z" transform="translate(26.99 -577.711)" style="fill:#1f1e1f"/>
        <path data-name="Path 11700" d="M526.35 710.47c-1.4 0-2.8.016-4.2-.006a2.852 2.852 0 0 1-2.553-1.213c-.248-.384-.458-.295-.778-.13a3.325 3.325 0 0 1-3.688-.266 2.793 2.793 0 0 1-.874-3.114 3.317 3.317 0 0 1 2.58-2.524 17.763 17.763 0 0 1 3.894-.2c.51-.022.455.31.455.63 0 1.24-.01 2.48 0 3.72.014 1.165.4 1.525 1.559 1.527q3.431.007 6.863.023c1.134 0 1.3-.161 1.307-1.331v-1.526c0-1.125.365-1.391 1.482-1.133.352.082.358.292.357.555 0 1.017.035 2.037-.021 3.051-.073 1.316-.731 1.911-2.095 1.934-1.426.023-2.857.004-4.288.003zm-7.071-4.845h-.038v-.951c0-.228-.013-.472-.322-.481a2.635 2.635 0 0 0-2.276.707 2.072 2.072 0 0 0-.274 2.242 1.442 1.442 0 0 0 2.807-.287 11.006 11.006 0 0 0 .103-1.229z" transform="translate(-370.377 -582.121)" style="fill:#1f1e1f"/>
        <path data-name="Path 11701" d="M153.141 704.861c-1.558 0-3.115.01-4.673 0-1.453-.012-2.254-.628-2.332-2.075-.112-2.06-.083-4.131-.037-6.2.019-.861.776-.358 1.19-.458s.723-.015.711.563c-.032 1.589-.014 3.179-.01 4.768 0 1.438.389 1.83 1.789 1.831 2.066 0 4.133-.021 6.2.016.709.013.8-.23.61-.842a2.473 2.473 0 0 0-3.977-1.229c-.849.757-1.116-.086-1.491-.41-.537-.463.152-.711.375-.92 2.176-2.039 5.95-.829 6.871 2.189a7.937 7.937 0 0 1 .311 2.061c.022.635-.219.725-.768.714-1.589-.033-3.179-.012-4.768-.012z" transform="translate(-72.568 -576.508)" style="fill:#1f1e1f"/>
        <path data-name="Path 11702" d="M235.454 782.869c.742-2.181 1.392-4.093 2.043-6a1.427 1.427 0 0 1 1.811-.747c.278.132.209.367.21.572 0 2.512-.019 5.024.013 7.535.007.568-.242.6-.68.6-.468 0-.763-.032-.747-.645a28.2 28.2 0 0 0-.2-4.663c-.522 1.539-1.061 3.073-1.555 4.622-.157.49-.361.72-.923.7a.788.788 0 0 1-.879-.625 35.245 35.245 0 0 0-1.775-4.658c0 1.454-.037 2.91.016 4.362.025.681-.105.958-.863.922-.65-.031-.6-.366-.6-.8.008-2.353 0-4.706.011-7.058 0-.333-.2-.882.418-.861.558.019 1.284-.383 1.583.55.592 1.841 1.235 3.666 1.858 5.5.044.134.105.275.259.694z" transform="translate(-141.539 -641.191)" style="fill:#1f1e1f"/>
        <path data-name="Subtraction 18" d="M8.473 9.9A3.014 3.014 0 0 1 6.5 9.227a1.717 1.717 0 0 0-1.2-.469h-.073c-.342.011-.7.016-1.138.016H2.555a2.616 2.616 0 0 1-1.893-.6 2.649 2.649 0 0 1-.649-1.906C-.005 5.633 0 4.988 0 4.363v-.862h.016v-.872A41.29 41.29 0 0 0 .009.639.7.7 0 0 1 .14.117.443.443 0 0 1 .479 0a2.457 2.457 0 0 1 .25.022A2.367 2.367 0 0 0 .978.04a.74.74 0 0 0 .1-.007A2.583 2.583 0 0 1 1.433 0 .48.48 0 0 1 1.8.122a.7.7 0 0 1 .139.524C1.9 1.971 1.912 3.32 1.921 4.624v.016c0 .286 0 .582.006.873A1.793 1.793 0 0 0 2.3 6.825a1.757 1.757 0 0 0 1.3.364h.069c.059 0 .118 0 .184-.006s.143-.006.218-.006a1.593 1.593 0 0 1 .264.019 2.272 2.272 0 0 0 .365.034.768.768 0 0 0 .589-.212 1.375 1.375 0 0 0 .311-.737 2.7 2.7 0 0 1 2.669-2.059c.109-.008.217-.012.323-.012a2.95 2.95 0 0 1 2.684 1.458 2.74 2.74 0 0 1 .4 1.574 2.594 2.594 0 0 1-.544 1.47A3.408 3.408 0 0 1 8.473 9.9zm.143-4.45a1.463 1.463 0 0 0-1.427 1.565v.021a1.373 1.373 0 0 0 1.373 1.507h.023a1.27 1.27 0 0 0 1.144-.687 1.728 1.728 0 0 0 .2-.828A1.441 1.441 0 0 0 8.653 5.45h-.037z" transform="translate(163.785 119.586)" style="fill:#1f1e1f;stroke:transparent;stroke-miterlimit:10"/>
        <path data-name="Path 11704" d="M168.674 779.177c0 1.71-.028 3.421.015 5.129.015.594-.15.756-.737.751s-.756-.172-.748-.76c.035-2.353.01-4.706.03-7.059 0-.33-.233-.859.379-.9.537-.034 1.108-.192 1.5.484.925 1.593 1.924 3.143 2.9 4.708a2.368 2.368 0 0 0 .7.775v-1.729c0-1.145.026-2.291-.011-3.434-.019-.581.094-.849.766-.85s.685.345.684.835c-.008 2.321.015 4.643-.013 6.964 0 .312.274.875-.323.919-.515.038-1.1.248-1.5-.446-.929-1.591-1.947-3.129-2.932-4.687-.165-.26-.343-.512-.515-.768z" transform="translate(-89.669 -641.415)" style="fill:#1f1e1f"/>
        <path data-name="Path 11705" d="M331.681 779.19c0 1.7-.024 3.409.014 5.112.012.566-.105.781-.72.772-.572-.008-.771-.143-.762-.744.034-2.352 0-4.7.028-7.056 0-.326-.229-.872.367-.915.525-.038 1.1-.223 1.5.46 1.094 1.86 2.263 3.676 3.406 5.517.35-.155.194-.448.2-.661.017-1.557.033-3.115 0-4.672-.013-.573.216-.686.728-.687s.732.141.726.7c-.025 2.352 0 4.7-.027 7.055 0 .318.3.878-.282.948-.546.066-1.149.233-1.566-.5-.867-1.514-1.843-2.967-2.776-4.443-.2-.32-.412-.634-.618-.951z" transform="translate(-221.558 -641.426)" style="fill:#1f1e1f"/>
        <path data-name="Path 11706" d="M53.215 783.721c-1.912 1.306-3.874 1.344-5.243.194a5.3 5.3 0 0 1-1.041-5.977 4.2 4.2 0 0 1 4.731-2.2 3.152 3.152 0 0 1 2.416 2.076c.1.26.437.664-.019.786-.356.1-.854.253-1.2-.235a2.547 2.547 0 0 0-3.046-1.284 2.91 2.91 0 0 0-1.923 2.788c-.11 2 .681 3.276 2.222 3.591a2.534 2.534 0 0 0 2.871-1.507c.184-.567.188-1.017-.635-.914-.344.043-.7-.015-1.048.012-.489.038-.754-.057-.757-.653 0-.566.192-.708.717-.685.825.035 1.654.043 2.478 0 .564-.032.7.184.681.706-.034 1.048.023 2.1-.029 3.145-.016.326.34.854-.345.984-.614.111-.769-.287-.83-.827z" transform="translate(8.031 -640.884)" style="fill:#1f1e1f"/>
        <path data-name="Subtraction 23" d="M.657 8.818a.549.549 0 0 1-.488-.252A1.361 1.361 0 0 1 0 7.832V4.307h.011V3.286c0-.82.009-1.669-.013-2.5A.835.835 0 0 1 .149.149.65.65 0 0 1 .638 0H.73c.694.033 1.4.041 2.085.049h.029c.617.01 1.256.017 1.882.043a1.8 1.8 0 0 1 1.813 1.149 2.562 2.562 0 0 1-.251 2.7l-.037.043c-.251.289-.416.48-.024.851a1.842 1.842 0 0 1 .391 1.338v.2a4.541 4.541 0 0 0 .2 1.494 1.574 1.574 0 0 0 .111.218c.093.163.189.332.134.451-.032.069-.112.114-.243.137-.071.013-.149.032-.232.052a2.452 2.452 0 0 1-.56.091c-.376 0-.59-.2-.674-.628A11.232 11.232 0 0 1 5.2 6.394 1.167 1.167 0 0 0 3.905 5.11h-.051c-.4-.017-.748-.032-1.031-.032-.634 0-1.013.067-1.2.42a5.167 5.167 0 0 0-.2 1.915v.055a1.906 1.906 0 0 0 .041.348c.062.352.126.715-.317.893a1.352 1.352 0 0 1-.49.109zm1.48-7.561a.7.7 0 0 0-.525.179 1.139 1.139 0 0 0-.191.845v.034l.006.148c.058 1.383.058 1.383 1.475 1.4l.391-.019H3.3c.3-.014.612-.028.92-.055a1.114 1.114 0 0 0 1.11-1.26 1.118 1.118 0 0 0-1.172-1.21 5.254 5.254 0 0 0-.422-.015H3.035c-.1 0-.2 0-.281-.007a3.557 3.557 0 0 1-.3-.027h-.035a2.247 2.247 0 0 0-.259-.018h-.023z" transform="translate(38.068 134.896)" style="fill:#1f1e1f;stroke:transparent;stroke-miterlimit:10"/>
        <path data-name="Subtraction 22" d="M4.224 9.164a4.574 4.574 0 0 1-1.6-.292A3.886 3.886 0 0 1 .7 7.31 4.554 4.554 0 0 1 0 4.844 6.462 6.462 0 0 1 .466 2.28 3.528 3.528 0 0 1 2.129.54 4.508 4.508 0 0 1 4.215 0a4.306 4.306 0 0 1 2.27.674 3.64 3.64 0 0 1 1.147 1.141 4.845 4.845 0 0 1 .652 1.578 5.515 5.515 0 0 1 .106 1.776 5.1 5.1 0 0 1-.49 1.736 4 4 0 0 1-1.52 1.666 4.165 4.165 0 0 1-2.156.593zm-.069-7.807a2.682 2.682 0 0 0-2.648 2.265l-.032.145-.007.033a4.52 4.52 0 0 0-.081.859 2.994 2.994 0 0 0 2.074 3.08 3.343 3.343 0 0 0 .525.095c.1.009.194.014.287.014a2.475 2.475 0 0 0 2.167-1.21 3.826 3.826 0 0 0 .521-2.012c0-1.823-.857-3.032-2.306-3.235h-.033a3.5 3.5 0 0 0-.447-.03h-.02z" transform="translate(67.495 134.742)" style="fill:#1f1e1f;stroke:transparent;stroke-miterlimit:10"/>
        <path data-name="Path 11709" d="M6.19 780.763c0-1.241.015-2.482-.008-3.722-.009-.491.159-.671.659-.664q2.433.034 4.867 0c.5-.008.667.155.669.653 0 .48-.109.676-.638.656-1.112-.043-2.227.016-3.339-.026-.566-.022-.766.116-.765.725 0 1.612-.031 1.611 1.6 1.6.732 0 1.464.012 2.195-.009.47-.013.768.038.776.647s-.251.672-.741.659c-1.017-.026-2.037.017-3.053-.019-.548-.02-.781.092-.782.72-.006 1.817-.038 1.817 1.779 1.816.859 0 1.719.025 2.576-.009.569-.023.59.3.607.724.019.453-.145.6-.6.594a142.772 142.772 0 0 0-5.153.008c-.595.014-.667-.24-.656-.733.027-1.208.009-2.417.009-3.626z" transform="translate(40.606 -641.482)" style="fill:#1f1e1f"/>
        <path data-name="Path 11710" d="M-194.937 780.81c0 1.209-.034 2.419.014 3.626.024.606-.252.647-.734.652-.505.006-.757-.088-.727-.672.045-.856-.013-1.717.015-2.575.015-.458-.141-.615-.6-.6-.922.028-1.846.03-2.767 0-.484-.017-.593.19-.581.621.025.89-.013 1.782.024 2.672.026.609-.346.549-.74.546s-.748.063-.742-.546q.036-3.769 0-7.539c-.007-.619.313-.646.775-.649.445 0 .728.066.7.616-.036.762.019 1.528-.019 2.29-.027.525.122.79.683.711a2.466 2.466 0 0 1 .286 0c.949-.022 2.178.308 2.769-.162.628-.5.179-1.783.2-2.723.01-.518.128-.732.69-.734s.789.145.769.75c-.044 1.233-.015 2.475-.015 3.716z" transform="translate(208.866 -641.451)" style="fill:#1f1e1f"/>
        <path data-name="Path 11711" d="M284.943 779.778c0-.921.028-1.843-.011-2.762-.023-.549.181-.713.71-.715s.722.126.711.687c-.034 1.65-.019 3.3-.009 4.952.009 1.411.672 2.1 1.995 2.111s1.96-.671 1.965-2.116c.006-1.619.025-3.239-.009-4.857-.012-.567.132-.775.733-.784.643-.01.72.285.714.809-.02 1.746.024 3.493-.016 5.238-.044 1.914-1.328 2.99-3.435 2.955-2.133-.035-3.332-1.123-3.347-3.042-.006-.825-.001-1.654-.001-2.476z" transform="translate(-184.932 -641.415)" style="fill:#1f1e1f"/>
        <path data-name="Path 11712" d="M388.655 240.69c.27.327.646.214.981.214l29 .019c.811 0 .993-.161.577-.9-.246-.437-.607-.771-.838-1.24-1.269-2.58-2.8-5.014-4.312-7.457-.44-.712-.483-1.736-1.538-2-.242-.062-.19-.389-.164-.6a1.974 1.974 0 0 0-.587-1.544c-1.155-1.268-1.46-3.063-2.747-4.245-.284-.261-.105-.785-.071-1.191 1.375 1.973 2.464 4.118 3.681 6.185 2.428 4.123 4.807 8.275 7.208 12.413.589 1.015.555 1.1-.569 1.1q-15.017 0-30.034-.017c-.374-.001-1.386.301-.587-.737z" transform="translate(-268.613 -192.727)" style="fill:#319e6b"/>
        <path data-name="Path 11713" d="M394.919 780.454a4.4 4.4 0 0 0 .348 1.766 2.145 2.145 0 0 0 1.97 1.427 2.03 2.03 0 0 0 1.967-1.256c.126-.256.211-.533.346-.783.307-.564.872-.386 1.273-.281.463.121.111.556.038.8a3.664 3.664 0 0 1-3.817 2.8 3.764 3.764 0 0 1-3.448-3.373 6.527 6.527 0 0 1 .242-3.192 3.541 3.541 0 0 1 3.366-2.488 3.3 3.3 0 0 1 3.38 2.137c.117.263.535.707.073.86-.394.131-1.025.309-1.339-.329a2.113 2.113 0 0 0-1.515-1.318c-1.4-.263-2.465.56-2.789 2.187a9.586 9.586 0 0 0-.095 1.043z" transform="translate(-272.778 -641.073)" style="fill:#1f1e1f"/>
        <path data-name="Subtraction 20" d="M.777 8.77a2.094 2.094 0 0 1-.213-.012c-.49-.051-.57-.241-.564-.647.012-.894.01-1.8.008-2.683V4.395h.004V3.338c0-.873.006-1.775-.01-2.662A.7.7 0 0 1 .144.15.633.633 0 0 1 .616.008h.046c.194 0 .4.007.623.007.294 0 .579 0 .894-.008h.03C2.464 0 2.781 0 3.081 0c.351 0 .643.005.917.017a2.68 2.68 0 0 1 1 .23A2.343 2.343 0 0 1 5.767.8a2.426 2.426 0 0 1 .49.822 2.871 2.871 0 0 1 .161 1.023 2.559 2.559 0 0 1-.7 1.764 2.584 2.584 0 0 1-1.74.772h-.035a.527.527 0 0 0-.057 0 1.811 1.811 0 0 1-.239.014 5.391 5.391 0 0 1-.638-.053h-.017a5.215 5.215 0 0 0-.615-.042.881.881 0 0 0-.814.354 2.792 2.792 0 0 0-.144 1.732c.022.209.043.406.052.6a1.126 1.126 0 0 1-.165.817.7.7 0 0 1-.529.167zm1.03-7.464h-.022c-.091 0-.3.036-.3.256 0 .2-.012.406-.023.606-.011.211-.023.428-.023.64a3 3 0 0 0 .119.923.305.305 0 0 0 .077.129.426.426 0 0 0 .313.1h.073c.089 0 .181-.018.271-.031H2.3a2.551 2.551 0 0 1 .33-.032H2.724a.521.521 0 0 1 .064.013h.944a1.114 1.114 0 0 0 1.2-1.092 2.067 2.067 0 0 0 .016-.251A1.08 1.08 0 0 0 4 1.386l-.1-.016a7.949 7.949 0 0 0-1.131-.065H1.82z" transform="translate(133.298 134.888)" style="fill:#1f1e1f;stroke:transparent;stroke-miterlimit:10"/>
        <path data-name="Subtraction 24" d="M.685 8.758a2.347 2.347 0 0 1-.277-.018c-.2-.023-.329-.055-.382-.14s-.033-.182.035-.369A803.808 803.808 0 0 0 2.867.457.629.629 0 0 1 3.553 0c.075 0 .151 0 .235.01h.372a.526.526 0 0 1 .579.39c.713 2.059 1.446 4.145 2.155 6.163l.06.172.669 1.9a3.151 3.151 0 0 1-.765.115 1.059 1.059 0 0 1-.738-.245 1.5 1.5 0 0 1-.42-.864c-.016-.081-.029-.169-.043-.261a3 3 0 0 0-.157-.69.6.6 0 0 0-.45-.4 7.446 7.446 0 0 0-1.311-.121 5.226 5.226 0 0 0-1.327.159c-.43.113-.534.674-.626 1.169a7.022 7.022 0 0 1-.082.4c-.158.603-.462.861-1.019.861zm3.2-6.493-.207.023-.265.72-.222.6c-.274.745-.375 1.109-.246 1.294.076.109.232.156.521.156A8.219 8.219 0 0 0 4.291 5c.3-.032.406-.1.406-.256a.808.808 0 0 0-.063-.269A40.666 40.666 0 0 1 4.1 2.911c-.062-.189-.139-.425-.213-.646z" transform="translate(15.302 134.895)" style="fill:#1f1e1f;stroke:transparent;stroke-miterlimit:10"/>
        <path data-name="Subtraction 21" d="M6.757 8.738a.66.66 0 0 1-.614-.249 3.216 3.216 0 0 1-.343-.971c-.248-.965-.67-1.324-1.558-1.324-.085 0-.177 0-.274.01-.4.028-.7.035-.919.04-.73.016-.73.016-.947.672-.062.186-.138.416-.253.717l-.036.067c-.308.8-.391 1.018-.954 1.018-.214 0-.5-.032-.859-.072l.826-2.268L3.01.36A.487.487 0 0 1 3.529 0c.065 0 .131.005.2.011h.02c.063 0 .128.01.189.01h.126c.056 0 .114-.006.17-.006a.547.547 0 0 1 .6.41 725.317 725.317 0 0 0 2.158 6.188l.717 2.037h-.024a8.632 8.632 0 0 1-.928.088zM3.97 2.271h-.045l-.158.008-.177.472-.058.155a211.63 211.63 0 0 0-.587 1.572.858.858 0 0 0-.065.276c0 .139.085.21.257.217.112 0 .232.012.337.019.167.011.341.023.507.023a1.6 1.6 0 0 0 .728-.136.165.165 0 0 0 .085-.166 1.783 1.783 0 0 0-.185-.566 3.507 3.507 0 0 1-.148-.372c-.1-.352-.224-.705-.339-1.048v-.002l-.151-.453z" transform="translate(140.065 134.891)" style="fill:#1f1e1f;stroke:transparent;stroke-miterlimit:10"/>
        <path data-name="Path 11717" d="M636.016 779.905c.616-1.05 1.217-1.918 1.652-2.862a1.649 1.649 0 0 1 2.262-.934c-.588.963-1.088 1.945-1.74 2.813a6.5 6.5 0 0 0-1.463 5.028c.074.5.011.831-.667.8-.546-.029-.848-.108-.754-.731a6.537 6.537 0 0 0-1.553-5.19 10.957 10.957 0 0 1-1.1-1.777c-.159-.309-.785-.727-.3-.965a1.143 1.143 0 0 1 1.592.335c.645 1.116 1.319 2.222 2.071 3.483z" transform="translate(-465.885 -641.099)" style="fill:#1f1e1f"/>
        <path data-name="Path 11718" d="M595.168 781.405c0-1.049-.016-2.1.008-3.146.01-.449-.134-.634-.6-.608-.507.029-1.018-.02-1.525.011-.473.029-.692-.094-.672-.624.018-.478.15-.678.661-.672 1.875.02 3.75.014 5.624-.008.5-.006.647.191.662.675.017.528-.2.636-.67.636-.661 0-1.517-.295-1.934.132-.451.462-.143 1.331-.155 2.02a152.125 152.125 0 0 0 0 4.481c0 .481.03.815-.665.815s-.761-.3-.744-.852c.03-.952.009-1.906.01-2.86z" transform="translate(-433.692 -641.467)" style="fill:#1f1e1f"/>
        <path data-name="Path 11719" d="M540.573 780.676v-3.333c0-.512-.177-1.067.74-1.061.883.006.675.547.677 1.01.01 1.873.033 3.746-.013 5.618-.017.686.216.868.864.831.886-.052 1.778.013 2.665-.025.547-.023.6.25.632.693.037.532-.185.637-.656.629a124.915 124.915 0 0 0-4.285 0c-.505.01-.656-.158-.644-.652.029-1.237.01-2.475.01-3.713z" transform="translate(-391.759 -641.405)" style="fill:#1f1e1f"/>
        <path data-name="Path 11720" d="M-95.4 780.758c0-1.238.027-2.477-.011-3.713-.018-.585.242-.664.739-.675.54-.012.71.155.7.7-.028 2 .012 4-.024 6-.011.594.163.768.749.737.918-.049 1.841.016 2.76-.019.612-.023.627.317.652.78.029.532-.257.542-.644.539-1.428-.011-2.857-.024-4.285 0-.49.009-.666-.123-.652-.638.041-1.235.016-2.469.016-3.711z" transform="translate(122.806 -641.476)" style="fill:#1f1e1f"/>
        <path data-name="Path 11721" d="M687.244 700.814c0 1.241-.009 2.481 0 3.722.009 1-.741.506-1.168.581s-.867.13-.852-.614q.071-3.672.014-7.346c-.016-1.02.682-.661 1.179-.731.584-.082.87.086.841.763-.051 1.206-.013 2.416-.014 3.625z" transform="translate(-508.812 -576.778)" style="fill:#1f1e1f"/>
        <path data-name="Path 11722" d="M440.276 780.783c0-1.236.025-2.472-.011-3.707-.019-.632.274-.7.808-.711.6-.016.669.255.666.742-.014 2.44-.02 4.88.006 7.319.006.551-.178.693-.707.688s-.806-.08-.777-.72c.054-1.201.015-2.407.015-3.611z" transform="translate(-310.609 -641.472)" style="fill:#1f1e1f"/>
        <path data-name="Path 11723" d="M-110.253 780.758c0 1.236-.029 2.472.013 3.707.02.6-.256.656-.74.651s-.751-.044-.743-.651c.033-2.471.025-4.943 0-7.414 0-.567.233-.678.744-.677s.748.109.733.678c-.031 1.233-.007 2.47-.007 3.706z" transform="translate(136.004 -641.478)" style="fill:#1f1e1f"/>
        <path data-name="Path 11724" d="M99.746 780.727c0 1.2-.038 2.409.016 3.61.027.617-.195.743-.754.731-.5-.011-.736-.091-.729-.67q.046-3.658.008-7.316c-.006-.576.175-.762.757-.773.639-.012.722.282.71.808-.026 1.202-.008 2.406-.008 3.61z" transform="translate(-33.91 -641.426)" style="fill:#1f1e1f"/>
        <path data-name="Path 11725" d="M377.28 780.7c0-1.209.025-2.419-.011-3.626-.017-.572.224-.7.737-.691.494 0 .751.086.744.674-.03 2.481-.036 4.963 0 7.444.009.65-.338.605-.774.617s-.716-.037-.7-.6c.036-1.272.011-2.545.011-3.818z" transform="translate(-259.643 -641.487)" style="fill:#1f1e1f"/>
        <path data-name="Path 11726" d="M578.28 780.638c0-1.172.016-2.344-.007-3.515-.01-.522.078-.82.715-.815.586 0 .76.19.754.767-.027 2.438-.03 4.878 0 7.316.008.575-.205.667-.71.677-.555.012-.8-.1-.773-.725.047-1.234.014-2.47.014-3.705z" transform="translate(-422.266 -641.426)" style="fill:#1f1e1f"/>
        <path data-name="Path 11728" d="M720.642 703.863c.289 1.009-.53 1.588-.945 2.294a28.155 28.155 0 0 0-2.559 4.629 11.861 11.861 0 0 1-1.48 2.209c-.415.632-.624 1.377-1.092 1.991-.227.3-.344.675-.8.7a36.79 36.79 0 0 1 2.378-4.286c1.346-2.394 2.749-4.756 4.126-7.133.097-.167.161-.35.372-.404z" transform="translate(-531.907 -582.811)" style="fill:#319e6b"/>
        <path data-name="Path 11729" d="M389.563 204.053c-.085-.613-.568-.355-.9-.4-2.275-.286-4.485.531-6.752.4a20.61 20.61 0 0 1 6.163-.9 23.775 23.775 0 0 1 5.646.448 21.359 21.359 0 0 1-4.157.452z" transform="translate(-263.401 -177.666)" style="fill:#319e6b"/>
        <path data-name="Path 11731" d="M780.128 708.23c-.8.129-.82-.628-1-1.024a17.206 17.206 0 0 0-2.1-3.616c-.984-1.208-1.269-2.76-2.365-3.883a2.547 2.547 0 0 1-.564-1.812 15.2 15.2 0 0 1 1.806 2.963c1.446 2.435 2.821 4.912 4.223 7.372z" transform="translate(-580.716 -577.982)" style="fill:#319e6b"/>
        <path data-name="Path 11733" d="M465.4 185.373c-1.125-.435-1.408-1.54-1.864-2.463a4.824 4.824 0 0 0-1.4-2.036c-.466.844-.927 1.673-1.382 2.506-.159.291-.327.555-.72.5.651-1.179 1.305-2.357 1.952-3.538.222-.405.442-.294.614.012a53.051 53.051 0 0 1 2.8 5.019z" transform="translate(-326.605 -159.016)" style="fill:#319e6b"/>
        <path data-name="Path 11734" d="M129.041 700.184h-.762c-.477 0-.732-.166-.265-.561.27-.229.105-.466.151-.693a1.135 1.135 0 0 1 1.843-.682c.136.11.355.244.238.446a.331.331 0 0 1-.558.084.5.5 0 0 0-.755-.052.515.515 0 0 0-.143.608c.144.337.47.251.746.261a4.3 4.3 0 0 0 .476 0 .266.266 0 0 1 .32.26c.029.246-.1.334-.338.327-.317-.005-.635.001-.953.002z" transform="translate(-57.769 -578.056)" style="fill:#1f1e1f"/>
        <path data-name="Path 11736" d="M685.243 684.85c-.222 0-.444.006-.666 0-.482-.015-1.091.048-.338-.646.118-.109.047-.409.091-.615a1.168 1.168 0 0 1 1.86-.675c.163.128.313.271.209.469s-.335.174-.5.062c-.292-.2-.565-.285-.847 0a.485.485 0 0 0-.132.526c.157.378.518.287.826.3.158 0 .318-.007.476 0a.3.3 0 0 1 .325.365c-.023.224-.208.206-.355.211-.317.011-.635 0-.952 0z" transform="translate(-507.727 -565.66)" style="fill:#1f1e1f"/>
        <path data-name="Path 11737" d="M702.536 765.8c.332.689.146 1.1-.461 1.641a8.583 8.583 0 0 0-1.418 2.24c-.188.329-.327.675-.769.713a28.412 28.412 0 0 1 2.648-4.594z" transform="translate(-520.676 -632.924)" style="fill:#319e6b"/>
        <path data-name="Path 11738" d="M324.243 698.062c-.477.027-.883.077-.872-.634.009-.644.359-.606.789-.606s.8-.06.8.593c-.008.569-.222.739-.717.647z" transform="translate(-216.033 -577.113)" style="fill:#1f1e1f"/>
        <path data-name="Path 11739" d="M603.241 702.7c.552-.09.859 0 .858.656 0 .7-.437.533-.823.558-.45.029-.777.024-.764-.615.013-.599.27-.705.729-.599z" transform="translate(-441.889 -581.841)" style="fill:#1f1e1f"/>
        <path data-name="Path 11741" d="M814.52 767.618a4.892 4.892 0 0 1-2.231-3.852 22 22 0 0 1 2.231 3.852z" transform="translate(-611.621 -631.279)" style="fill:#319e6b"/>
        <path data-name="Path 11742" d="M261.379 693.462c-.463.048-.848.054-.821-.64.022-.563.232-.685.742-.664.48.02.854 0 .847.671-.006.588-.264.711-.768.633z" transform="translate(-165.211 -573.338)" style="fill:#1f1e1f"/>
        <path data-name="Path 11743" d="M540.214 693.457c-.492.117-.6-.166-.616-.683-.03-.736.446-.585.871-.627.556-.055.686.19.707.709.031.756-.463.587-.962.601z" transform="translate(-390.984 -573.325)" style="fill:#1f1e1f"/>
        <path data-name="Path 11745" d="M526.792 693.464c-.541.108-.767-.057-.772-.674-.006-.736.446-.573.868-.612.511-.047.694.1.715.654.026.68-.321.701-.811.632z" transform="translate(-379.998 -573.35)" style="fill:#1f1e1f"/>
        <path data-name="Path 11746" d="M247.905 693.435c-.479.027-.885.1-.875-.617.009-.654.325-.669.816-.69.541-.023.775.087.765.706-.011.594-.258.69-.706.601z" transform="translate(-154.266 -573.314)" style="fill:#1f1e1f"/>
        <path data-name="Path 11747" d="M310.72 698.046c-.379 0-.771.117-.776-.566s.311-.672.8-.678c.507-.006.791.031.786.685-.003.689-.398.563-.81.559z" transform="translate(-205.17 -577.098)" style="fill:#1f1e1f"/>
        <path data-name="Path 11750" d="M423.8 703.939c-.516.009-.937.129-.929-.557.006-.563.209-.712.726-.673.436.033.866-.093.857.632-.008.634-.316.659-.654.598z" transform="translate(-296.539 -581.872)" style="fill:#1f1e1f"/>
        <path data-name="Path 11753" d="M767.6 686.58a2.6 2.6 0 0 1-1.53-2.664 10.5 10.5 0 0 1 1.53 2.664z" transform="translate(-574.214 -566.672)" style="fill:#319e6b"/>
        <path data-name="Path 11756" d="M489.738 210.512a2.843 2.843 0 0 1-1.543-2.643 10.748 10.748 0 0 1 1.543 2.643z" transform="translate(-349.393 -181.499)" style="fill:#319e6b"/>
        <path data-name="Path 11761" d="M751.364 689.866a3.846 3.846 0 0 1-1.53 2.656 8.2 8.2 0 0 1 1.53-2.656z" transform="translate(-561.088 -571.486)" style="fill:#319e6b"/>
        <path data-name="Path 11763" d="M807.249 755.036c-.962-.355-1.111-1.18-1.183-2.049a5.843 5.843 0 0 1 1.183 2.049z" transform="translate(-606.586 -622.557)" style="fill:#319e6b"/>
        <path data-name="Path 11764" d="M695.059 789.9c-.377.64.141 1.809-1.134 1.916a4.639 4.639 0 0 1 1.134-1.916z" transform="translate(-515.852 -652.427)" style="fill:#319e6b"/>
        <path data-name="Path 11765" d="M759.411 681.071c-.363.02-.741-.054-.839.5-.061.345-.435.493-.738.647.038-.531.44-.881.67-1.315.1-.2.191-.555.481-.487a.666.666 0 0 1 .426.655z" transform="translate(-567.561 -563.831)" style="fill:#319e6b"/>
        <path data-name="Path 11766" d="M663.8 513.721c-.472-.449-.934.073-1.4.015a.487.487 0 0 1 .05-.177c.23-.279.3-.852.654-.819.435.04.584.56.696.981z" transform="translate(-490.344 -428.17)" style="fill:#2b8c87"/>
        <path data-name="Path 11773" d="M670.45 519.406c-.4-.031-.356-.311-.322-.583a.55.55 0 0 1 .322.583z" transform="translate(-496.58 -433.094)" style="fill:#2b8c87"/>
        <path data-name="Path 11785" d="m337.036 120.8-.051.014a.256.256 0 0 0 .032-.008.091.091 0 0 1 .019-.006z" transform="translate(-227.049 -111.051)" style="fill:#fafcfb"/>
    </g>
</svg>
