<svg xmlns="http://www.w3.org/2000/svg" width="149.026" height="211.061" viewBox="0 0 149.026 211.061">
    <g data-name="Group 38369">
        <path data-name="Path 11649" d="M312.962 164.953c6.042-.63 11.828.78 17.6 2.23a112.973 112.973 0 0 1 29.075 11.37c3.658 2.1 7.169 4.424 9.439 8.154a4.847 4.847 0 0 1 .762 2.527 137.353 137.353 0 0 1-1.74 23.6 119.559 119.559 0 0 1-8.4 30.377 88.126 88.126 0 0 1-18.742 27.289 84.5 84.5 0 0 1-20.656 15.055c-.854.442-1.723.855-2.685 1.331-.972-7.151-.253-14.118-.582-21.056a2.221 2.221 0 0 1 .913-1.907q9.89-8.973 19.706-18.027a19.456 19.456 0 0 0 3.645-4.2l-24.241 15.189c.134-4.968-.7-9.518-.475-14.12a3.044 3.044 0 0 1 1.161-2.446q14.087-12.4 28.065-24.932a5.333 5.333 0 0 0 1.464-1.817l-30.686 19.81c0-5.173.2-9.927-.091-14.651a5.427 5.427 0 0 1 1.954-4.531c4.538-4.631 9.044-9.292 13.289-14.314l-15.473 10.41c-.394-4.531-.785-8.806-1.132-13.084-.461-5.681-.892-11.364-1.324-17.047a1.18 1.18 0 0 0-.832-1.195 27.591 27.591 0 0 1-.014-14.015z" transform="translate(-238.581 -164.72)" style="fill:#005380"/>
        <path data-name="Path 11650" d="m246.808 165.058.013 14.015c-.794 10.328-1.445 20.67-2.671 31.249L228 199.477l-.477.554c3.718 3.594 13.25 12.92 13.3 12.88 3.591 2.956 3.388 6.363 3.268 10.084-.108 3.375-.023 6.757-.023 10.589l-30.188-19.506c1.61 2.573 4.071 4.257 6.207 6.241 5.163 4.8 10.519 9.385 15.8 14.057 2.3 2.037 4.587 4.1 6.924 6.092a2.249 2.249 0 0 1 .865 1.927c-.037 4.774-.018 9.549-.018 14.768l-24.931-15.712c1.349 2.46 3.211 3.544 4.678 4.928 6.4 6.036 12.956 11.909 19.448 17.848a2.45 2.45 0 0 1 .751 2.268c-.944 6.621-.162 13.282-.469 19.918 0 .075-.026.149-.094.516-2.882-.885-5.292-2.6-7.8-4.067A79.585 79.585 0 0 1 215 265.78a88.35 88.35 0 0 1-10.561-15.237 99.837 99.837 0 0 1-8.585-21.316 151.436 151.436 0 0 1-3.6-16.531c-1.043-6.612-1.167-13.3-1.544-19.972-.306-5.427 2.121-8.752 6.237-11.533a94.677 94.677 0 0 1 25.3-11.654c8.006-2.483 16.008-4.988 24.561-4.479z" transform="translate(-172.426 -164.992)" style="fill:#072c4c"/>
    </g>
    <g data-name="Group 38365">
        <g data-name="Group 38367">
            <path data-name="Subtraction 16" d="M3.69 23.085c-.519 0-1.044-.029-1.551-.057h-.061c-.492-.026-1-.054-1.5-.054H.513a.5.5 0 0 1-.4-.142 1.019 1.019 0 0 1-.085-.761c.008-.065.016-.126.02-.181.065-.8.184-1.616.3-2.4.03-.209.065-.444.1-.669.051-.36.2-.521.475-.521a1.97 1.97 0 0 1 .39.057h.008l.153.031a11.277 11.277 0 0 0 2.047.241 2.012 2.012 0 0 0 1.942-.87 5.965 5.965 0 0 0 .5-2.979c0-.962 0-1.929.008-2.864.01-2.945.021-5.991-.034-8.985a1.8 1.8 0 0 1 .309-1.351 1.528 1.528 0 0 1 1.144-.325h.141l.23.006c2.519.063 2.519.063 2.549 2.775V4.1c0 .246 0 .5.005.737a21.524 21.524 0 0 0 .316 4.311 2.6 2.6 0 0 0 2.393 2.338 20.486 20.486 0 0 0 2.283.109c.563 0 1.137-.014 1.691-.028h.089c.284-.007.578-.014.866-.019a.906.906 0 0 0 .9-.493 2.571 2.571 0 0 0 .137-1.056c0-.779 0-1.573.011-2.339.014-1.566.029-3.183-.045-4.77a1.8 1.8 0 0 1 .311-1.355 1.088 1.088 0 0 1 .829-.286 3.231 3.231 0 0 1 .509.046.89.89 0 0 0 .144.011h.612c1.218 0 1.782.036 2.073.375s.3.991.3 2.277c0 .469 0 .957-.007 1.387-.008 1.034-.015 2.1.017 3.153a2.958 2.958 0 0 0 3.067 3.066c.559.016 1.169.024 1.922.024.489 0 .978 0 1.522-.007h.1c.5 0 1.016-.007 1.541-.007a9.5 9.5 0 0 1-.735-3.149 8.093 8.093 0 0 1 .463-3.105 7.963 7.963 0 0 1 1.754-2.9A7.46 7.46 0 0 1 36.21.584 9.3 9.3 0 0 1 39.423 0a6.957 6.957 0 0 1 5.009 1.927 6.707 6.707 0 0 1 1.822 4.91c-.016 2.27-.024 3.52.574 4.122s1.809.6 4.22.6c3.1 0 3.1 0 3.1-3.073 0-.573.008-1.156.016-1.719.018-1.316.036-2.676-.044-4.007a1.544 1.544 0 0 1 .256-1.178c.215-.229.566-.323 1.21-.323h.271c2.637.029 2.637.029 2.637 2.8 0 .945 0 1.907-.006 2.837v.032c-.007 2.426-.015 4.935.027 7.4a1.755 1.755 0 0 1-.286 1.294 1.56 1.56 0 0 1-1.143.315h-.028a2701.75 2701.75 0 0 0-15.727-.052c-5.587 0-10.649.024-15.475.074h-.019a2.947 2.947 0 0 1-1.756-.727L24 15.177l-.032-.023a2.462 2.462 0 0 0-1.356-.642 1.15 1.15 0 0 0-.308.043 5.837 5.837 0 0 0-1.314.612 4.321 4.321 0 0 1-2.148.753h-.059c-.775-.018-1.8-.038-2.827-.038-.918 0-1.738.016-2.506.048h-.185a4.245 4.245 0 0 1-2.967-1.284 12.541 12.541 0 0 1-.269 3.65 6.62 6.62 0 0 1-1.735 3.065 5.942 5.942 0 0 1-4.604 1.724zM39.073 4.44a3.44 3.44 0 0 0-3.064 1.944 3.2 3.2 0 0 0 .718 4.052 4.281 4.281 0 0 0 3.15 1.229 6.577 6.577 0 0 0 1.594-.2c.584-.147.508-.685.435-1.206a1.792 1.792 0 0 1-.012-.737c0-.22.013-.427.026-.626a3.082 3.082 0 0 0-.05-1.087 10.254 10.254 0 0 1-.2-.79c-.281-1.2-.571-2.445-2.318-2.566a2.91 2.91 0 0 0-.279-.013z" transform="translate(18.554 181.332)" style="stroke:transparent;stroke-miterlimit:10;fill:#005380"/>
            <path data-name="Path 11652" d="M417.155 571.086c-1.2-1.505-1.107-3.242-1.627-4.8-.7-2.1-1.892-2.742-3.951-2.138-.927.272-2.26 1.226-2.691.681-.764-.966-.9-2.442-1.246-3.719-.132-.484.21-.582.655-.717 2.519-.764 5.046-1.382 7.685-.724 2.079.519 4 2.94 4.263 5.435a10.478 10.478 0 0 0 2.116 6.048c.809.971.239 2.535.22 3.827-.01.684-.7.44-1.1.441-6.842.015-13.684-.016-20.525.038-1.122.009-1.282-.425-1.256-1.378.058-2.1.05-4.211.007-6.315a2.934 2.934 0 0 0-2.953-2.6c-.9.068-.544.736-.58 1.175-.222 2.724.095 5.441-.307 8.2-.667 4.572-3.285 6.984-7.5 8.14-4.489 1.231-8.8 1.085-12.685-1.727-4.252-3.077-4.576-9.365-1.636-13.6a1.081 1.081 0 0 1 1.676-.36c.79.528 1.916.757 2.418 1.458.551.771-.5 1.543-.812 2.325-1.431 3.563.179 6.533 3.955 7.437a9.715 9.715 0 0 0 8.868-1.713 3.585 3.585 0 0 0 1.3-3.089c-.06-3.486.11-6.98-.072-10.457-.1-1.911.59-2.341 2.286-2.16 1.171.125 2.366.008 3.55.027 5.12.079 7.058 2.813 7.232 7.118.127 3.147.049 3.15 3.205 3.15z" transform="translate(-274.088 -378.19)" style="fill:#072c4c"/>
            <path data-name="Subtraction 17" d="M2.461 23.851a.756.756 0 0 1-.829-.549 6.161 6.161 0 0 1 .352-3.69l.09-.3c.03-.1.074-.152.135-.152a.459.459 0 0 1 .22.112l.012.009a.5.5 0 0 0 .259.119c.221 0 .452-.006.705-.006.413 0 .849.005 1.2.009h.038c.454.006.864.011 1.279.011h.526a4.083 4.083 0 0 0 2.752-.749 5.144 5.144 0 0 0 1.348-2.8h-.025c-.359 0-.72 0-1.07-.006h-.1c-.34 0-.763-.006-1.163-.006-.537 0-.975.006-1.38.019h-.19a5.876 5.876 0 0 1-2.735-.672 6.817 6.817 0 0 1-2.144-1.771 7.889 7.889 0 0 1-1.492-2.956 7.3 7.3 0 0 1-.1-3.329 11.584 11.584 0 0 1 1.59-4.209A6.092 6.092 0 0 1 5.358.41 11.4 11.4 0 0 1 8.286 0a6.5 6.5 0 0 1 4.731 1.765 6.121 6.121 0 0 1 1.416 2.289 9.54 9.54 0 0 1 .5 3.229c0 .966.024 1.949.048 2.9a39.554 39.554 0 0 1-.349 8.059 5.955 5.955 0 0 1-2.555 3.988 9.668 9.668 0 0 1-4.23 1.5 13.077 13.077 0 0 1-1.75.1c-.73 0-1.472-.043-2.191-.085l-.193-.011h-.091a4.082 4.082 0 0 0-.543.053H3.052a4.311 4.311 0 0 1-.591.064zM7.853 4.358a3.073 3.073 0 0 0-1.027.193 3.379 3.379 0 0 0-1.995 2.071A3.946 3.946 0 0 0 5.1 9.929c.5.848 2.516 1.681 4.081 1.681a2.843 2.843 0 0 0 .838-.109c.843-.261.688-.834.564-1.295-.067-.246-.124-.458-.038-.6A6.124 6.124 0 0 0 9.9 5.791a2.213 2.213 0 0 0-2.047-1.433z" transform="translate(2.029 181.379)" style="stroke:transparent;stroke-miterlimit:10;fill:#005380"/>
            <path data-name="Path 11659" d="M331.919 546.772c0-3.807.041-7.614-.025-11.419-.02-1.125.316-1.429 1.43-1.429 2.94 0 2.94-.062 2.94 2.846 0 7.219-.084 14.44.049 21.656.042 2.267-1.38 1.48-2.439 1.59-1.18.122-2.076.135-2-1.63.154-3.866.045-7.742.045-11.614z" transform="translate(-249.739 -362.784)" style="fill:#005380"/>
            <path data-name="Path 11664" d="M402.973 625.348a2.072 2.072 0 0 1 2.268-2.4c1.713-.078 2.308 1.023 2.441 2.358.162 1.634-1.153 2.31-2.431 2.319a2.064 2.064 0 0 1-2.278-2.277z" transform="translate(-292.757 -416.64)" style="fill:#072c4c"/>
            <path data-name="Path 11665" d="M266.079 547.851a2.3 2.3 0 0 1-2.116-2.407c-.037-1.631 1.053-2.226 2.316-2.329a2.141 2.141 0 0 1 2.4 2.237c.057 1.539-.961 2.289-2.6 2.499z" transform="translate(-208.657 -368.339)" style="fill:#005380"/>
            <path data-name="Path 11666" d="M309.988 547.871a2.346 2.346 0 0 1-2.014-2.567 2.169 2.169 0 0 1 2.468-2.161 2.142 2.142 0 0 1 2.244 2.39c-.066 1.54-1.113 2.228-2.698 2.338z" transform="translate(-235.282 -368.359)" style="fill:#005380"/>
            <path data-name="Path 11667" d="M230.775 608.118c.128 1.6-.624 2.246-2.213 2.216-1.486-.028-2.4-.695-2.495-2.129-.108-1.632.9-2.223 2.453-2.257s2.374.541 2.255 2.17z" transform="translate(-185.725 -406.356)" style="fill:#005380"/>
            <path data-name="Path 11668" d="M216.785 608.06a2.056 2.056 0 0 1-2.272 2.209c-1.518.024-2.513-.552-2.472-2.192.035-1.386.587-2.187 2.234-2.213 1.662-.026 2.365.636 2.51 2.196z" transform="translate(-177.244 -406.306)" style="fill:#005380"/>
            <path data-name="Path 11669" d="M476.691 605.962c1.636-.122 2.221.647 2.22 2.2 0 1.609-.709 2.125-2.248 2.175a2.118 2.118 0 0 1-2.424-2.148 2.035 2.035 0 0 1 2.452-2.227z" transform="translate(-335.875 -406.349)" style="fill:#072c4c"/>
            <path data-name="Path 11670" d="M388.968 625.107c-.2-1.63.882-1.994 2.135-2.09a2.212 2.212 0 0 1 2.49 2.118c.173 1.086-1.318 2.572-2.413 2.6a2.41 2.41 0 0 1-2.212-2.628z" transform="translate(-284.271 -416.679)" style="fill:#072c4c"/>
        </g>
        <g data-name="Group 38368">
            <path data-name="Path 11654" d="M127.024 463.508c.005-3-.33-6.026 1.4-8.788a8.619 8.619 0 0 1 8.077-3.8c3.158.4 6.421 3.167 7.076 6.009.154.669.282 1.242-.816 1.2-1.413-.057-2.623.154-3.424-1.653-.827-1.865-3.355-2.513-5.323-1.943a5.09 5.09 0 0 0-3.444 4.986q-.1 3.945 0 7.9c.079 3.307 2.319 5.154 5.759 4.852a4.944 4.944 0 0 0 4.188-5.848c-.1-.717-.408-.867-1.019-.84-.591.026-1.185.006-1.777.005-2.151 0-2.308-.21-2.043-2.345.066-.533.14-.861.77-.856 2.237.018 4.475.006 6.712.007.4 0 .846.012.826.566-.109 2.965.551 6.007-1.168 8.791a8.335 8.335 0 0 1-9.335 3.723 7.82 7.82 0 0 1-6.439-7.419c-.092-1.516-.02-3.034-.02-4.547z" transform="translate(-126.996 -312.529)" style="fill:#082c4d"/>
            <path data-name="Path 11655" d="M182.954 463.79c0-3.489.046-6.978-.026-10.465-.023-1.131.325-1.426 1.43-1.41 4.211.062 8.426.093 12.637-.013 1.405-.036 1.391.611 1.414 1.638.025 1.1-.11 1.649-1.453 1.6-3.09-.113-6.187 0-9.28-.057-1.018-.02-1.4.263-1.344 1.315.078 1.576.067 3.16 0 4.738-.043 1.042.351 1.375 1.372 1.353 2.566-.055 5.139.074 7.7-.053 1.429-.071 1.369.658 1.4 1.662.037 1.106-.124 1.68-1.465 1.618-2.5-.115-5 .037-7.5-.062-1.255-.05-1.6.377-1.514 1.565a28.45 28.45 0 0 1 0 4.143c-.1 1.271.417 1.539 1.587 1.509 3.026-.076 6.059.058 9.081-.062 1.409-.056 1.4.617 1.41 1.645.006 1.045-.03 1.666-1.421 1.632-4.21-.1-8.425-.076-12.637-.012-1.119.017-1.439-.307-1.419-1.422.074-3.621.028-7.242.028-10.862z" transform="translate(-160.835 -313.158)" style="fill:#072c4c"/>
            <path data-name="Subtraction 14" d="M7.12 17.726a5.808 5.808 0 0 1-3.52-1.012c-.767-.5-2.595-1.862-3-3.566A19.557 19.557 0 0 1 0 8.113a11.344 11.344 0 0 1 1.2-4.905C2.311 1.019 4.2 0 7.144 0c.335 0 .694.013 1.068.039a5.417 5.417 0 0 1 2.918 1.009 6.4 6.4 0 0 1 1.918 2.411 12.255 12.255 0 0 1 1.1 5.722c0 .823-.287 1.129-1.042 1.129h-.109a50.723 50.723 0 0 0-1.769-.026c-.442 0-.895 0-1.319.007-.363 0-.816.006-1.246.006-.375 0-.751 0-1.2.007-.35 0-.786.007-1.2.007-.595 0-1.085-.008-1.542-.026-.091 0-.176-.005-.26-.005-.511 0-.788.082-.925.273-.153.213-.133.581.063 1.158a4.239 4.239 0 0 0 4.068 2.8 5 5 0 0 0 2.762-.862 2.258 2.258 0 0 1 1.208-.456c.7 0 1.074.607 1.4 1.143.085.138.165.267.248.384a.861.861 0 0 1 .211.722c-.1.359-.57.563-.985.744h-.006c-.15.065-.292.127-.412.194a10.466 10.466 0 0 1-4.973 1.346zM8.675 7.454c.383 0 .694.01.98.032.093.006.175.01.248.01a1 1 0 0 0 .851-.3c.182-.242.179-.639-.01-1.288a3.623 3.623 0 0 0-3.529-2.844 4.528 4.528 0 0 0-1.173.161 3.88 3.88 0 0 0-1.949 1.427 2.609 2.609 0 0 0-.635 2.121c.02.646.766.716 1.086.716a1.354 1.354 0 0 0 .25-.017 4.5 4.5 0 0 0 .515.011c.294 0 .714 0 1.284-.008h.5c.252 0 .509 0 .757-.009h.069c.248-.007.504-.012.756-.012z" transform="translate(57.839 145.444)" style="stroke:transparent;stroke-miterlimit:10;fill:#005380"/>
            <path data-name="Subtraction 15" d="M7.257 17.839c-.16 0-.325 0-.489-.011a7.127 7.127 0 0 1-4.428-1.674 6.355 6.355 0 0 1-2.1-4.171A17.806 17.806 0 0 1 .5 4.759C1.475 1.512 3.621 0 7.25 0a15.862 15.862 0 0 1 1.759.1 5.686 5.686 0 0 1 3.72 2.155 7.291 7.291 0 0 1 1.633 4.4c.013.483.01.956.006 1.5v.849a10.41 10.41 0 0 0-.042 1.3 7.908 7.908 0 0 1-.236 2.41 7.2 7.2 0 0 1-2.479 3.8 7.039 7.039 0 0 1-4.354 1.325zM7.233 3.253c-.11 0-.222 0-.334.011a3.272 3.272 0 0 0-3.207 3.461c-.014.437-.011.882-.007 1.312v.656c0 .238 0 .478-.005.709-.006.544-.011 1.1.009 1.655.074 2.047 1.137 3.193 3.074 3.315.2.011.355.017.5.017 2.163 0 3.308-.977 3.5-2.989a27.627 27.627 0 0 0 0-5.11 3.25 3.25 0 0 0-3.529-3.037z" transform="translate(134.156 145.394)" style="stroke:transparent;stroke-miterlimit:10;fill:#005380"/>
            <path data-name="Path 11658" d="M324.292 470.916c1.285-.855 2.163-1.941 3.7-1.991 4.044-.131 6.462 1.894 6.632 5.983.142 3.415-.016 6.841.051 10.261.036 1.833-1.271 1.007-2.063 1.147-.949.167-1.583.017-1.544-1.279.1-3.155.042-6.314.027-9.472a3.133 3.133 0 0 0-3.356-3.452c-2.235-.029-3.423 1.051-3.46 3.3-.05 3.025-.091 6.055.02 9.077.053 1.445-.3 1.917-1.825 1.9-1.452-.012-1.708-.494-1.685-1.809.078-4.538 0-9.078.061-13.616.01-.724-.682-2.013 1-1.994 1.263.017 2.84-.456 2.442 1.945z" transform="translate(-244.199 -323.456)" style="fill:#005380"/>
            <path data-name="Path 11660" d="M363.058 468.852c3.457-.137 3.485-.147 4.513 2.758 1.082 3.058 2.1 6.138 3.249 9.493 1.287-3.709 2.493-7.207 3.716-10.7a2.647 2.647 0 0 1 3.487-1.6c.688.286.353.7.2 1.11-1.884 5.058-3.8 10.1-5.628 15.181-.353.978-.945 1.092-1.8 1.062-.726-.026-1.316.018-1.651-.907-1.967-5.437-4.014-10.844-6.086-16.397z" transform="translate(-269.814 -323.265)" style="fill:#005380"/>
            <path data-name="Path 11661" d="M435.4 471.256a5.881 5.881 0 0 1 7.152-1.983c.519.186 1.777.6.813 1.39-.784.645-.453 2.976-2.556 1.854-2.711-1.445-5.279.073-5.312 3.117-.033 3.026-.086 6.056.028 9.079.052 1.4-.5 1.582-1.695 1.584-1.25 0-1.879-.148-1.842-1.669.107-4.472-.008-8.948.081-13.421.016-.806-.856-2.326 1.1-2.3 1.331.012 3.131-.549 2.231 2.349z" transform="translate(-311.461 -323.382)" style="fill:#005480"/>
            <path data-name="Path 11662" d="M410.682 477.482c0-2.365.083-4.734-.03-7.094-.068-1.429.709-1.362 1.7-1.4 1.08-.036 1.658.09 1.634 1.441a396.11 396.11 0 0 0 0 14.584c.029 1.455-.713 1.352-1.688 1.374-1.042.024-1.721-.031-1.656-1.422.124-2.486.04-4.986.04-7.483z" transform="translate(-298.604 -323.497)" style="fill:#005380"/>
            <path data-name="Path 11663" d="M239.128 490.175a23.048 23.048 0 0 0-3.536.034c-2.008.316-2.1-.786-2.012-2.268.045-.8.377-.982 1.086-.977 3.017.021 6.035.055 9.05-.011 1.52-.034 1 1.012 1.066 1.746.077.811.129 1.573-1.13 1.5-1.503-.099-3.016-.026-4.524-.024z" transform="translate(-191.467 -334.365)" style="fill:#005380"/>
            <path data-name="Path 11671" d="M413.9 453.681c.372 1.492-.409 1.667-1.687 1.727-1.633.077-1.5-.831-1.581-1.942-.1-1.387.518-1.534 1.688-1.581 1.437-.057 1.899.456 1.58 1.796z" transform="translate(-298.591 -313.148)" style="fill:#005380"/>
        </g>
    </g>
</svg>
